<svg id="Capa_1" data-name="Capa 1" xmlns="http://www.w3.org/2000/svg" viewBox="0 0 101.78 21.27"><title>Sin título-1</title><path d="M.85,20.42a2.74,2.74,0,0,1-.84-2L0,2.86a2.86,2.86,0,0,1,.85-2,2.74,2.74,0,0,1,2-.84L89.49,0a6.65,6.65,0,0,1,2.62.58A6.9,6.9,0,0,1,94.38,2L101,8.6a2.75,2.75,0,0,1,.82,2,2.75,2.75,0,0,1-.82,2l-6.58,6.58a7.93,7.93,0,0,1-4.9,2l-86.6,0A2.87,2.87,0,0,1,.85,20.42ZM90,10.63a2.86,2.86,0,1,0,4.89-2,2.86,2.86,0,0,0-4.89,2Z" style="fill:#0695d6"/><path d="M8.38,11.67v4.75H6.15V3.62H11a5,5,0,0,1,3.41,1.12,3.76,3.76,0,0,1,1.26,3,3.63,3.63,0,0,1-1.24,2.93,5.19,5.19,0,0,1-3.46,1Zm0-1.79H11a2.63,2.63,0,0,0,1.81-.56,2,2,0,0,0,.62-1.61,2.22,2.22,0,0,0-.63-1.66,2.44,2.44,0,0,0-1.74-.64H8.38Z" style="fill:#fff"/><path d="M23.21,15.49a3.31,3.31,0,0,1-2.67,1.11,3,3,0,0,1-2.34-.91,3.85,3.85,0,0,1-.79-2.62V6.91h2.14V13q0,1.81,1.5,1.81a2.11,2.11,0,0,0,2.1-1.12V6.91h2.14v9.51h-2Z" style="fill:#fff"/><path d="M35.8,11.76a5.71,5.71,0,0,1-1,3.52,3.22,3.22,0,0,1-2.72,1.31,3.1,3.1,0,0,1-2.6-1.2l-.11,1H27.45V2.92h2.14v4.9a3.09,3.09,0,0,1,2.49-1.09A3.26,3.26,0,0,1,34.8,8a5.81,5.81,0,0,1,1,3.61Zm-2.14-.18a4,4,0,0,0-.54-2.32,1.81,1.81,0,0,0-1.58-.77,2,2,0,0,0-2,1.21v3.92a2,2,0,0,0,2,1.24,1.8,1.8,0,0,0,1.55-.75,3.91,3.91,0,0,0,.56-2.26Z" style="fill:#fff"/><path d="M39.86,16.42H37.72V2.92h2.14Z" style="fill:#fff"/><path d="M42.19,4.43a1.15,1.15,0,0,1,.31-.82,1.17,1.17,0,0,1,.89-.33,1.19,1.19,0,0,1,.9.33,1.14,1.14,0,0,1,.32.82,1.11,1.11,0,0,1-.32.81,1.2,1.2,0,0,1-.9.32,1.18,1.18,0,0,1-.89-.32A1.12,1.12,0,0,1,42.19,4.43Zm2.27,12H42.32V6.91h2.14Z" style="fill:#fff"/><path d="M50.69,14.89A1.93,1.93,0,0,0,52,14.42a1.59,1.59,0,0,0,.56-1.15h2A3.13,3.13,0,0,1,54,14.93a3.63,3.63,0,0,1-1.41,1.22,4.19,4.19,0,0,1-1.92.45,4.05,4.05,0,0,1-3.16-1.29,5.12,5.12,0,0,1-1.17-3.57v-.22A5,5,0,0,1,47.54,8a4,4,0,0,1,3.16-1.3,3.91,3.91,0,0,1,2.76,1,3.54,3.54,0,0,1,1.12,2.6h-2A2,2,0,0,0,52,9a1.79,1.79,0,0,0-1.33-.53,1.88,1.88,0,0,0-1.6.75,3.84,3.84,0,0,0-.57,2.28v.34a3.9,3.9,0,0,0,.56,2.31A1.88,1.88,0,0,0,50.69,14.89Z" style="fill:#fff"/><path d="M61.88,16.42a3.3,3.3,0,0,1-.25-.89,3.59,3.59,0,0,1-4.83.25,2.62,2.62,0,0,1-.91-2A2.7,2.7,0,0,1,57,11.42a5.47,5.47,0,0,1,3.23-.81h1.31V10a1.66,1.66,0,0,0-.41-1.18,1.64,1.64,0,0,0-1.26-.44,1.89,1.89,0,0,0-1.2.36,1.13,1.13,0,0,0-.47.93H56.1a2.37,2.37,0,0,1,.52-1.46A3.45,3.45,0,0,1,58,7.12a5,5,0,0,1,2-.39,4,4,0,0,1,2.66.84,3,3,0,0,1,1,2.36v4.29a4.86,4.86,0,0,0,.36,2v.15Zm-2.35-1.54a2.43,2.43,0,0,0,1.19-.31,2.06,2.06,0,0,0,.84-.83V12H60.42a3.15,3.15,0,0,0-1.78.41,1.34,1.34,0,0,0-.6,1.17,1.25,1.25,0,0,0,.41,1A1.58,1.58,0,0,0,59.54,14.88Z" style="fill:#fff"/><path d="M65.54,11.59a5.65,5.65,0,0,1,1-3.53,3.26,3.26,0,0,1,2.73-1.33,3.1,3.1,0,0,1,2.44,1.05V2.92h2.14v13.5H71.94l-.11-1a3.15,3.15,0,0,1-2.56,1.16,3.25,3.25,0,0,1-2.7-1.34A5.86,5.86,0,0,1,65.54,11.59Zm2.14.18A4,4,0,0,0,68.23,14a1.81,1.81,0,0,0,1.59.81,2,2,0,0,0,1.92-1.17V9.62a2,2,0,0,0-1.9-1.14,1.83,1.83,0,0,0-1.6.82A4.41,4.41,0,0,0,67.68,11.78Z" style="fill:#fff"/><path d="M75.7,11.58a5.61,5.61,0,0,1,.55-2.52,4.06,4.06,0,0,1,1.56-1.72,4.39,4.39,0,0,1,2.3-.6A4.15,4.15,0,0,1,83.24,8a4.87,4.87,0,0,1,1.3,3.29v.5A5.66,5.66,0,0,1,84,14.27,4,4,0,0,1,82.45,16a4.41,4.41,0,0,1-2.32.61,4.13,4.13,0,0,1-3.22-1.34,5.13,5.13,0,0,1-1.21-3.57Zm2.14.18a3.84,3.84,0,0,0,.61,2.3,2,2,0,0,0,1.69.83A2,2,0,0,0,81.81,14a4.23,4.23,0,0,0,.6-2.47,3.78,3.78,0,0,0-.62-2.29,2.09,2.09,0,0,0-3.34,0A4.15,4.15,0,0,0,77.84,11.76Z" style="fill:#fff"/></svg>