<svg id="Capa_1" data-name="Capa 1" xmlns="http://www.w3.org/2000/svg" viewBox="0 0 172 21.27"><title>Sin título-1</title><path d="M.85,20.42a2.74,2.74,0,0,1-.84-2L0,2.86a2.86,2.86,0,0,1,.85-2,2.74,2.74,0,0,1,2-.84L159.49,0a6.65,6.65,0,0,1,2.62.58A6.9,6.9,0,0,1,164.38,2L171,8.6a2.75,2.75,0,0,1,.82,2,2.75,2.75,0,0,1-.82,2l-6.58,6.58a7.93,7.93,0,0,1-4.9,2l-156.6,0A2.87,2.87,0,0,1,.85,20.42ZM160,10.63a2.86,2.86,0,1,0,4.89-2,2.86,2.86,0,0,0-4.89,2Z" style="fill:#005dbc"/><path d="M13.63,10.71H8.38v3.92h6.14v1.79H6.15V3.62h8.31V5.41H8.38V8.95h5.26Z" style="fill:#fff"/><path d="M18.11,6.91,18.17,8a3.42,3.42,0,0,1,2.77-1.27q3,0,3,3.4v6.28H21.82V10.26a2,2,0,0,0-.39-1.34,1.65,1.65,0,0,0-1.28-.43,2.06,2.06,0,0,0-1.92,1.17v6.77H16.09V6.91Z" style="fill:#fff"/><path d="M31.37,16.42V8.49H29.92V6.91h1.45V6a3.27,3.27,0,0,1,.88-2.44,3.37,3.37,0,0,1,2.46-.86,4.94,4.94,0,0,1,1.2.16l-.05,1.67A4.21,4.21,0,0,0,35,4.49,1.37,1.37,0,0,0,33.5,6.06v.84h1.93V8.49H33.5v7.93Z" style="fill:#fff"/><path d="M36.6,11.58a5.61,5.61,0,0,1,.55-2.52,4.06,4.06,0,0,1,1.56-1.72,4.39,4.39,0,0,1,2.3-.6A4.15,4.15,0,0,1,44.13,8a4.87,4.87,0,0,1,1.3,3.29v.5a5.66,5.66,0,0,1-.54,2.51A4,4,0,0,1,43.35,16a4.41,4.41,0,0,1-2.32.61,4.13,4.13,0,0,1-3.22-1.34,5.13,5.13,0,0,1-1.21-3.57Zm2.14.18a3.84,3.84,0,0,0,.61,2.3,2,2,0,0,0,1.69.83A2,2,0,0,0,42.71,14a4.23,4.23,0,0,0,.6-2.47,3.78,3.78,0,0,0-.62-2.29,2.09,2.09,0,0,0-3.34,0A4.15,4.15,0,0,0,38.73,11.76Z" style="fill:#fff"/><path d="M52.22,8.86a5.29,5.29,0,0,0-.87-.07,2,2,0,0,0-2,1.13v6.5H47.24V6.91h2L49.33,8a2.41,2.41,0,0,1,2.14-1.24,2,2,0,0,1,.76.12Z" style="fill:#fff"/><path d="M55.58,6.91l.06,1a3.42,3.42,0,0,1,2.74-1.17A2.63,2.63,0,0,1,61,8.19a3.37,3.37,0,0,1,2.92-1.46,3,3,0,0,1,2.34.87A3.83,3.83,0,0,1,67,10.17v6.25H64.91V10.23a1.89,1.89,0,0,0-.4-1.33,1.73,1.73,0,0,0-1.31-.42A1.78,1.78,0,0,0,62,8.87a2.06,2.06,0,0,0-.65,1v6.52H59.24V10.16a1.52,1.52,0,0,0-1.71-1.68,1.88,1.88,0,0,0-1.82,1v6.89H53.57V6.91Z" style="fill:#fff"/><path d="M74.92,16.42a3.3,3.3,0,0,1-.25-.89,3.59,3.59,0,0,1-4.83.25,2.62,2.62,0,0,1-.91-2,2.7,2.7,0,0,1,1.13-2.33,5.47,5.47,0,0,1,3.23-.81H74.6V10a1.66,1.66,0,0,0-.41-1.18,1.64,1.64,0,0,0-1.26-.44,1.89,1.89,0,0,0-1.2.36,1.13,1.13,0,0,0-.47.93H69.13a2.37,2.37,0,0,1,.52-1.46,3.45,3.45,0,0,1,1.41-1.07,5,5,0,0,1,2-.39,4,4,0,0,1,2.66.84,3,3,0,0,1,1,2.36v4.29a4.86,4.86,0,0,0,.36,2v.15Zm-2.35-1.54a2.43,2.43,0,0,0,1.19-.31,2.06,2.06,0,0,0,.84-.83V12H73.45a3.15,3.15,0,0,0-1.78.41,1.34,1.34,0,0,0-.6,1.17,1.25,1.25,0,0,0,.41,1A1.58,1.58,0,0,0,72.57,14.88Z" style="fill:#fff"/><path d="M81.65,4.6V6.91h1.68V8.49H81.65V13.8a1.17,1.17,0,0,0,.21.79,1,1,0,0,0,.77.24,3.29,3.29,0,0,0,.75-.09v1.65a5.26,5.26,0,0,1-1.41.2q-2.46,0-2.46-2.72V8.49H77.95V6.91h1.56V4.6Z" style="fill:#fff"/><path d="M84.3,11.58a5.61,5.61,0,0,1,.55-2.52A4.06,4.06,0,0,1,86.4,7.33a4.39,4.39,0,0,1,2.3-.6A4.15,4.15,0,0,1,91.83,8a4.87,4.87,0,0,1,1.3,3.29v.5a5.66,5.66,0,0,1-.54,2.51A4,4,0,0,1,91,16a4.41,4.41,0,0,1-2.32.61,4.13,4.13,0,0,1-3.22-1.34,5.13,5.13,0,0,1-1.21-3.57Zm2.14.18a3.84,3.84,0,0,0,.61,2.3,2,2,0,0,0,1.69.83A2,2,0,0,0,90.41,14a4.23,4.23,0,0,0,.6-2.47,3.78,3.78,0,0,0-.62-2.29,2.09,2.09,0,0,0-3.34,0A4.15,4.15,0,0,0,86.43,11.76Z" style="fill:#fff"/><path d="M105.11,16.42a3.3,3.3,0,0,1-.25-.89,3.59,3.59,0,0,1-4.83.25,2.62,2.62,0,0,1-.91-2,2.7,2.7,0,0,1,1.13-2.33,5.47,5.47,0,0,1,3.23-.81h1.31V10a1.66,1.66,0,0,0-.41-1.18,1.64,1.64,0,0,0-1.26-.44,1.89,1.89,0,0,0-1.2.36,1.13,1.13,0,0,0-.47.93H99.32a2.37,2.37,0,0,1,.52-1.46,3.45,3.45,0,0,1,1.41-1.07,5,5,0,0,1,2-.39,4,4,0,0,1,2.66.84,3,3,0,0,1,1,2.36v4.29a4.86,4.86,0,0,0,.36,2v.15Zm-2.35-1.54a2.43,2.43,0,0,0,1.19-.31,2.06,2.06,0,0,0,.84-.83V12h-1.15a3.15,3.15,0,0,0-1.78.41,1.34,1.34,0,0,0-.6,1.17,1.25,1.25,0,0,0,.41,1A1.58,1.58,0,0,0,102.76,14.88Z" style="fill:#fff"/><path d="M117.51,11.76a5.71,5.71,0,0,1-1,3.52,3.22,3.22,0,0,1-2.72,1.31,3.1,3.1,0,0,1-2.6-1.2l-.11,1h-1.93V2.92h2.14v4.9a3.09,3.09,0,0,1,2.49-1.09A3.26,3.26,0,0,1,116.52,8a5.81,5.81,0,0,1,1,3.61Zm-2.14-.18a4,4,0,0,0-.54-2.32,1.81,1.81,0,0,0-1.58-.77,2,2,0,0,0-2,1.21v3.92a2,2,0,0,0,2,1.24,1.8,1.8,0,0,0,1.55-.75,3.91,3.91,0,0,0,.56-2.26Z" style="fill:#fff"/><path d="M119.3,4.43a1.15,1.15,0,0,1,.31-.82,1.17,1.17,0,0,1,.89-.33,1.19,1.19,0,0,1,.9.33,1.14,1.14,0,0,1,.32.82,1.11,1.11,0,0,1-.32.81,1.2,1.2,0,0,1-.9.32,1.18,1.18,0,0,1-.89-.32A1.12,1.12,0,0,1,119.3,4.43Zm2.27,12h-2.14V6.91h2.14Z" style="fill:#fff"/><path d="M128.08,16.59a4.42,4.42,0,0,1-3.29-1.28,4.64,4.64,0,0,1-1.26-3.41v-.26a5.7,5.7,0,0,1,.55-2.54,4.18,4.18,0,0,1,1.54-1.75,4.08,4.08,0,0,1,2.21-.62,3.73,3.73,0,0,1,3,1.24,5.24,5.24,0,0,1,1.06,3.51v.86h-6.21a2.86,2.86,0,0,0,.79,1.86,2.36,2.36,0,0,0,1.74.69,2.89,2.89,0,0,0,2.39-1.19l1.15,1.1a3.84,3.84,0,0,1-1.53,1.32A4.77,4.77,0,0,1,128.08,16.59Zm-.25-8.15a1.8,1.8,0,0,0-1.42.62,3.19,3.19,0,0,0-.69,1.71h4.07v-.16A2.59,2.59,0,0,0,129.22,9,1.79,1.79,0,0,0,127.83,8.45Z" style="fill:#fff"/><path d="M138.53,8.86a5.29,5.29,0,0,0-.87-.07,2,2,0,0,0-2,1.13v6.5h-2.14V6.91h2L135.64,8a2.41,2.41,0,0,1,2.14-1.24,2,2,0,0,1,.76.12Z" style="fill:#fff"/><path d="M143,4.6V6.91h1.68V8.49H143V13.8a1.17,1.17,0,0,0,.21.79,1,1,0,0,0,.77.24,3.29,3.29,0,0,0,.75-.09v1.65a5.26,5.26,0,0,1-1.41.2q-2.46,0-2.46-2.72V8.49H139.3V6.91h1.56V4.6Z" style="fill:#fff"/><path d="M145.64,11.58a5.61,5.61,0,0,1,.55-2.52,4.06,4.06,0,0,1,1.56-1.72,4.39,4.39,0,0,1,2.3-.6A4.15,4.15,0,0,1,153.18,8a4.87,4.87,0,0,1,1.3,3.29v.5a5.66,5.66,0,0,1-.54,2.51A4,4,0,0,1,152.4,16a4.41,4.41,0,0,1-2.32.61,4.13,4.13,0,0,1-3.22-1.34,5.13,5.13,0,0,1-1.21-3.57Zm2.14.18a3.84,3.84,0,0,0,.61,2.3,2,2,0,0,0,1.69.83,2,2,0,0,0,1.68-.84,4.23,4.23,0,0,0,.6-2.47,3.78,3.78,0,0,0-.62-2.29,2.09,2.09,0,0,0-3.34,0A4.15,4.15,0,0,0,147.78,11.76Z" style="fill:#fff"/></svg>