<svg id="Capa_1" data-name="Capa 1" xmlns="http://www.w3.org/2000/svg" viewBox="0 0 230 230"><defs><style>.cls-1,.cls-2{fill:#00b9f1;}.cls-1{isolation:isolate;}</style></defs><title>equipo-marco</title><g id="cinco"><path class="cls-1" d="M114.8,225.12h-0.39l0-2.93h0.44v2.93h0Zm6.63-.2-0.2-2.93,0.49,0,0.2,2.93Zm-13.36,0-0.49,0,0.2-2.93,0.49,0Zm20.23-.59L128,221.42l0.49,0,0.34,2.93Zm-27.11,0-0.49,0,0.39-2.93,0.49,0Zm33.94-1-0.54-2.88,0.49-.1,0.54,2.88Zm-40.76,0-0.49-.1,0.54-2.88,0.49,0.1Zm47.49-1.41L141.13,219l0.49-.1,0.73,2.83Zm-54.22-.1-0.49-.15,0.73-2.83,0.49,0.1Zm60.9-1.8-0.88-2.78,0.44-.15,0.93,2.78ZM81,219.81l-0.49-.15,0.93-2.78L81.84,217ZM155,217.61L154,214.88l0.44-.2,1.07,2.73Zm-80.55-.15-0.44-.2,1.07-2.73,0.44,0.2Zm86.94-2.58-1.22-2.63,0.44-.2,1.27,2.63Zm-93.32-.2-0.44-.2,1.27-2.63,0.44,0.2Zm99.47-2.93-1.41-2.58,0.44-.24,1.41,2.58ZM62,211.57l-0.44-.24,1.41-2.54L63.36,209Zm111.56-3.32L172,205.76l0.39-.24L173.9,208ZM56,208l-0.44-.24,1.56-2.44,0.39,0.24Zm123.26-3.61L177.56,202l0.39-.29,1.71,2.34Zm-129-.24-0.39-.29,1.76-2.34L52,201.82Zm134.48-3.95L182.87,198l0.39-.29,1.85,2.24Zm-139.94-.29-0.39-.29,1.85-2.24,0.39,0.29Zm145.16-4.29-2-2.15,0.34-.34,2,2.15Zm-150.32-.29L39.28,195l2-2.15,0.34,0.34Zm155.2-4.53-2.15-2,0.34-.34,2.15,2Zm-160.12-.39-0.34-.34,2.15-2,0.34,0.34Zm164.76-4.78-2.24-1.9,0.29-.39,2.24,1.85Zm-169.29-.39-0.34-.39L32.06,183l0.29,0.39Zm173.53-5.07-2.34-1.71,0.29-.39,2.34,1.71Zm-177.77-.39-0.29-.39L28,177.68l0.29,0.39Zm181.72-5.31-2.44-1.61,0.24-.39,2.49,1.56ZM22,174.07l-0.24-.44,2.49-1.56,0.24,0.39Zm189.18-5.56-2.54-1.41,0.24-.44,2.58,1.41Zm-192.7-.39-0.24-.44,2.58-1.41,0.24,0.44Zm195.86-5.75-2.63-1.27,0.2-.44,2.63,1.27Zm-199-.39-0.2-.44,2.63-1.22,0.2,0.44ZM217.15,156L214.42,155l0.2-.44,2.73,1.07Zm-204.54-.34-0.2-.44,2.73-1.07,0.2,0.44Zm206.93-6.14-2.78-.93,0.15-.44,2.78,0.93Zm-209.27-.39-0.15-.49,2.78-.88L13,148.23Zm211.22-6.24-2.83-.73,0.1-.49,2.83,0.73ZM8.32,142.52L8.17,142l2.83-.73,0.1,0.49ZM223,136.14l-2.88-.54,0.1-.49,2.88,0.54ZM6.8,135.8l-0.1-.49,2.88-.54,0.1,0.49Zm217.32-6.48-2.88-.39,0-.49,2.93,0.34ZM5.73,129l0-.49,2.93-.34,0,0.49Zm219-6.53-2.93-.2,0-.49,2.93,0.2ZM5.1,122l0-.49,2.93-.2,0,0.49ZM225,115.66l-2.93,0v-0.63H225v0.59ZM8,115.07H5.1L5,114.68H8l0,0.39H8Zm213.91-6.48,0-.49,2.93-.2,0,0.49ZM8,108.44L5,108.25l0-.49L8,108Zm213.32-6.58,0-.49,2.93-.39,0,0.49ZM8.61,101.71l-2.93-.34,0-.49,2.93,0.39Zm211.66-6.48-0.1-.49L223,94.2l0.1,0.49ZM9.63,95.08l-2.88-.54,0.1-.49,2.88,0.54Zm209.18-6.44-0.1-.49,2.83-.73,0.15,0.49ZM11.09,88.5l-2.83-.73,0.15-.49L11.24,88ZM217,82.21l-0.15-.44,2.78-.93,0.15,0.49Zm-204-.2-2.78-.88,0.15-.49,2.78,0.93Zm201.76-6.14-0.2-.44,2.73-1.07,0.2,0.44Zm-199.47-.2L12.51,74.6l0.2-.44,2.73,1.07Zm196.79-6-0.2-.44L214.47,68l0.2,0.44Zm-194.11-.2-2.63-1.22,0.2-.44,2.63,1.27ZM209,63.68l-0.24-.44,2.54-1.41,0.24,0.44Zm-188-.2-2.58-1.41,0.24-.44L21.19,63Zm184.6-5.61-0.24-.39,2.49-1.56,0.24,0.44Zm-181.19-.2-2.49-1.56,0.24-.44,2.49,1.56Zm177.43-5.36-0.29-.39,2.34-1.71,0.29,0.39Zm-173.63-.2-2.39-1.71L26.11,50l2.34,1.76ZM197.74,47l-0.29-.39,2.24-1.85L200,45.15ZM32.3,46.81L30.06,45l0.29-.39,2.24,1.85Zm161-4.88L193,41.59l2.15-2,0.34,0.34Zm-156.56-.2-2.15-2,0.34-.34,2.15,2Zm151.79-4.58-0.34-.34,2-2.15L190.53,35ZM41.52,37l-2-2.15,0.34-.34,2,2.15Zm142-4.34-0.39-.29L185,30.14l0.39,0.29Zm-137-.15-1.85-2.24L45.08,30l1.85,2.24Zm131.65-4-0.39-.29,1.71-2.39,0.39,0.29ZM51.86,28.38L50.15,26l0.39-.29,1.71,2.39Zm120.78-3.66-0.39-.24L173.8,22l0.44,0.24Zm-115.22-.1-1.56-2.49,0.44-.24,1.56,2.49Zm109.46-3.36L166.44,21l1.41-2.58,0.44,0.24Zm-103.66-.1L61.8,18.58l0.44-.24,1.41,2.58Zm97.66-3-0.44-.2,1.22-2.63,0.44,0.2Zm-91.72-.1L67.9,15.46l0.44-.2,1.22,2.63Zm85.52-2.58-0.44-.2,1.07-2.73,0.44,0.2Zm-79.33,0-1.07-2.73,0.44-.2,1.07,2.73Zm73-2.24-0.44-.15,0.88-2.78,0.49,0.15Zm-66.65,0-0.93-2.78,0.49-.15L82.14,13Zm60.22-1.85-0.49-.1,0.73-2.83,0.49,0.15Zm-53.78,0L87.4,8.44l0.49-.15,0.73,2.83Zm47.2-1.46-0.49-.1,0.54-2.88,0.49,0.1Zm-40.62,0L94.18,6.93l0.49-.1L95.2,9.71Zm34-1-0.49,0,0.34-2.93,0.49,0Zm-27.35,0L101,5.8l0.49,0,0.34,2.93ZM122,8.1l-0.49,0,0.2-2.93,0.49,0ZM108,8.1l-0.2-2.93,0.49,0L108.52,8Zm7.22-.29h-0.49V4.88h0.49V7.8Z"/></g><g id="cuatro"><path class="cls-1" d="M114.79,217.84c-56.28,0-102.7-46.1-102.7-102.76a99.2,99.2,0,0,1,1.77-18.71,101.12,101.12,0,0,1,5.47-19,102.79,102.79,0,0,1,198.39,37.74h-2.14A100.65,100.65,0,0,0,21.31,78.2,97,97,0,0,0,16,96.8a99.75,99.75,0,0,0-1.77,18.33c0,55.48,45.35,100.61,100.56,100.61v2.09h0Z"/></g><g id="tres"><path class="cls-1" d="M195.57,111.49V111l9.11-.43v0.59Zm-0.43-5.57-0.05-.48,9.06-1.07,0.05,0.54Zm-0.8-5.47-0.11-.48,9-1.72,0.11,0.54ZM193.16,95l-0.11-.48,8.79-2.3L202,92.73Zm-1.61-5.36-0.16-.48L200,86.24l0.16,0.54Zm-1.93-5.2-0.21-.48,8.42-3.54L198,80.93Zm-2.3-5.09-0.21-.43,8.15-4.07,0.27,0.54Zm-2.63-4.93L184.42,74l7.83-4.61,0.27,0.48Zm-2.95-4.66-0.27-.43,7.5-5.15,0.32,0.48Zm-3.32-4.5-0.32-.43,7.13-5.68,0.32,0.43Zm-3.59-4.29-0.32-.38,6.7-6.16,0.38,0.43Zm-3.86-4-0.38-.38,6.27-6.59,0.43,0.38Zm-4.18-3.7-0.38-.32,5.79-7,0.43,0.38Zm-4.4-3.48L162,49.41l5.31-7.4,0.43,0.32Zm-4.61-3.11-0.43-.27,4.77-7.77,0.48,0.32ZM153,43.84l-0.43-.21,4.23-8,0.48,0.27Zm-5-2.47-0.48-.21,3.7-8.36L151.67,33Zm-5.15-2.14-0.48-.16,3.06-8.58,0.54,0.21Zm-5.31-1.72L137,37.35l2.47-8.79L140,28.72Zm-5.41-1.34-0.48-.11,1.88-8.9L134,27.27Zm-5.47-1-0.48-.05,1.23-9,0.59,0.05ZM121,34.57l-0.48-.05,0.59-9.11,0.54,0.05Zm-5.63-.21h-0.59V25.24h0.59v9.11Z"/><path class="cls-1" d="M114.79,204.86h-0.48v-9.11h0.48v9.11Zm-6.06-.21-0.54-.05,0.64-9.11,0.48,0.05Zm-6.16-.64L102,204l1.29-9,0.48,0.05Zm-6.11-1-0.54-.11,1.93-8.9,0.48,0.11Zm-6.06-1.5-0.54-.16,2.52-8.74,0.48,0.16Zm-5.9-1.88L84,199.4l3.16-8.58L87.61,191Zm-5.79-2.36L78.18,197l3.75-8.31,0.48,0.21Zm-5.57-2.68-0.48-.27,4.29-8,0.43,0.21Zm-5.41-3.11-0.48-.32,4.82-7.72,0.43,0.27ZM62.58,188l-0.48-.32,5.36-7.34,0.43,0.32Zm-4.93-3.81-0.43-.38,5.84-7,0.38,0.32ZM53,180.1l-0.43-.38,6.33-6.54,0.38,0.38Zm-4.34-4.4-0.38-.43L55,169.16l0.32,0.38Zm-4-4.72-0.38-.43,7.18-5.63,0.32,0.38Zm-3.7-5-0.32-.48,7.56-5.15,0.27,0.43Zm-3.32-5.25-0.27-.48,7.88-4.61,0.27,0.43Zm-3-5.41-0.27-.48,8.15-4.07,0.21,0.48ZM32,149.65l-0.21-.54,8.42-3.48,0.21,0.48Zm-2.2-5.79-0.16-.54,8.63-2.84L38.46,141Zm-1.77-6-0.16-.54,8.84-2.25,0.11,0.48Zm-1.39-6.06-0.11-.54,9-1.66,0.11,0.48Zm-0.91-6.11-0.05-.54,9.06-1,0.05,0.54Zm-0.54-6.22v-0.59l9.11-.38V119Z"/></g><g id="dos"><path class="cls-1" d="M113.18,74.55h-0.27L112.7,70H113Zm-2.84.21-0.27.05-0.54-4.56,0.27-.05Zm-2.73.43-0.27.05-0.86-4.5,0.27-.05Zm-2.73.59-0.21.05-1.18-4.45,0.27-.05Zm-2.68.8-0.27.11-1.45-4.34,0.27-.11Zm-2.63,1-0.21.11-1.77-4.23,0.27-.11ZM97,78.68l-0.21.11-2-4.07L95,74.61ZM94.53,80l-0.21.11L92,76.22l0.27-.16Zm-2.36,1.5L92,81.68l-2.57-3.75,0.21-.16Zm-2.25,1.66-0.21.16-2.84-3.59,0.21-.16ZM87.77,85l-0.21.16-3.11-3.38,0.21-.16Zm-2,2-0.16.16-3.32-3.16,0.21-.21ZM83.91,89l-0.16.21-3.54-2.89,0.16-.21Zm-1.77,2.2L82,91.44l-3.7-2.68,0.16-.21Zm-1.55,2.3-0.16.21-3.91-2.41,0.16-.27ZM79.2,95.94l-0.11.21L75,94l0.16-.27ZM78,98.46l-0.11.21-4.18-1.82,0.11-.27Zm-1.07,2.63-0.11.21L72.5,99.75l0.11-.27ZM76,103.71L76,104l-4.4-1.23,0.05-.27Zm-0.7,2.73-0.05.27-4.5-1,0.05-.27Zm-0.48,2.73-0.05.27-4.56-.64,0.05-.27ZM74.53,112v0.27L70,111.92v-0.27Zm-0.11,2.84v0.27H69.87v-0.27h4.56Z"/><path class="cls-1" d="M160,115.08v0.27h-4.56v-0.27H160Zm-0.11,3.06v0.27l-4.56-.32v-0.27Zm-0.32,3.11-0.05.27-4.5-.64,0.05-.27Zm-0.54,3.11-0.05.27-4.45-1,0.05-.27Zm-0.75,3-0.05.27-4.4-1.29,0.05-.27Zm-1,2.95-0.11.27L153,129l0.11-.21Zm-1.13,2.89-0.11.27-4.18-1.88,0.11-.21ZM154.83,136l-0.11.27-4-2.14,0.11-.21Zm-1.5,2.68-0.16.21-3.86-2.41,0.16-.21Zm-1.77,2.63-0.16.21-3.7-2.68,0.16-.21Zm-1.88,2.47-0.16.21L146,141.08l0.16-.21Zm-2.09,2.3-0.21.21-3.27-3.16,0.16-.16Zm-2.2,2.2-0.21.21-3.06-3.38,0.21-.16Zm-2.41,2-0.21.16-2.84-3.59,0.21-.16Zm-2.47,1.82-0.21.16-2.57-3.81,0.21-.16Zm-2.63,1.72-0.27.16-2.3-4,0.21-.11Zm-2.73,1.5-0.27.11-2-4.07,0.21-.11Zm-2.84,1.29-0.27.11-1.72-4.23,0.21-.11Zm-2.89,1.07-0.27.11-1.45-4.34,0.21-.11Zm-3,.91-0.27.05L125,154.26l0.27-.05Zm-3.06.7-0.27.05-0.8-4.5,0.27-.05Zm-3.06.48-0.27.05-0.54-4.56,0.27-.05Zm-3.11.27h-0.27l-0.21-4.56H117Z"/></g><g id="uno"><path class="cls-2" d="M54.59,140.38A65.49,65.49,0,0,1,115,49.57,64.18,64.18,0,0,1,138.54,54l-0.59,1.5a63.83,63.83,0,0,0-81.85,84.27Z"/><path class="cls-2" d="M115,180.47a66,66,0,0,1-25.3-5l0.64-1.5a63.91,63.91,0,0,0,83.41-84l1.5-.64A65.48,65.48,0,0,1,115,180.47Z"/></g></svg>