<?xml version="1.0" encoding="utf-8"?>
<!-- Generator: Adobe Illustrator 19.2.1, SVG Export Plug-In . SVG Version: 6.00 Build 0)  -->
<svg version="1.1" id="Capa_1" xmlns="http://www.w3.org/2000/svg" xmlns:xlink="http://www.w3.org/1999/xlink" x="0px" y="0px"
	 viewBox="0 0 230 230" style="enable-background:new 0 0 230 230;" xml:space="preserve">
<style type="text/css">
	.st0{fill:#01BDF2;}
	.st1{clip-path:url(#SVGID_2_);}
	.st2{opacity:0.2;fill:#0072BC;enable-background:new    ;}
	.st3{fill:none;stroke:#01BDF2;stroke-width:3.0619;stroke-linecap:square;stroke-linejoin:round;}
	.st4{fill:#FAFAFA;stroke:#01BDF2;stroke-width:3;stroke-linecap:square;stroke-linejoin:round;}
</style>
<g>
	<g id="Capa_1_2_">
		<g id="cinco_1_">
			<path class="st0" d="M114.8,225.1h-0.4v-2.9h0.4L114.8,225.1L114.8,225.1L114.8,225.1z M121.4,224.9l-0.2-2.9h0.5l0.2,2.9H121.4z
				 M108.1,224.9h-0.5l0.2-2.9h0.5L108.1,224.9z M128.3,224.3l-0.3-2.9h0.5l0.3,2.9L128.3,224.3z M101.2,224.3h-0.5l0.4-2.9h0.5
				L101.2,224.3z M135.1,223.3l-0.5-2.9l0.5-0.1l0.5,2.9L135.1,223.3z M94.4,223.3l-0.5-0.1l0.5-2.9l0.5,0.1L94.4,223.3z
				 M141.9,221.9l-0.7-2.9l0.5-0.1l0.7,2.8L141.9,221.9z M87.6,221.8l-0.5-0.1l0.7-2.8l0.5,0.1L87.6,221.8z M148.5,220l-0.9-2.8
				l0.4-0.1l0.9,2.8L148.5,220z M81,219.8l-0.5-0.1l0.9-2.8l0.4,0.1L81,219.8z M155,217.6l-1-2.7l0.4-0.2l1.1,2.7L155,217.6z
				 M74.4,217.5l-0.4-0.2l1.1-2.7l0.4,0.2L74.4,217.5z M161.4,214.9l-1.2-2.6l0.4-0.2l1.3,2.6L161.4,214.9z M68.1,214.7l-0.4-0.2
				l1.3-2.6l0.4,0.2L68.1,214.7z M167.5,211.8l-1.4-2.6l0.4-0.2l1.4,2.6L167.5,211.8z M62,211.6l-0.4-0.2l1.4-2.5l0.4,0.2L62,211.6z
				 M173.6,208.2l-1.6-2.5l0.4-0.2l1.5,2.5L173.6,208.2z M56,208l-0.4-0.2l1.6-2.4l0.4,0.2L56,208z M179.3,204.4l-1.7-2.4l0.4-0.3
				l1.7,2.3L179.3,204.4z M50.3,204.1l-0.4-0.3l1.8-2.3l0.4,0.3L50.3,204.1z M184.7,200.2l-1.9-2.2l0.4-0.3l1.9,2.2L184.7,200.2z
				 M44.8,199.9l-0.4-0.3l1.8-2.2l0.4,0.3L44.8,199.9z M190,195.6l-2-2.1l0.3-0.3l2,2.1L190,195.6z M39.6,195.3l-0.4-0.3l2-2.1
				l0.3,0.3L39.6,195.3z M194.8,190.8l-2.1-2l0.3-0.3l2.1,2L194.8,190.8z M34.7,190.4l-0.3-0.3l2.2-2l0.3,0.3L34.7,190.4z
				 M199.5,185.6l-2.2-1.9l0.3-0.4l2.2,1.9L199.5,185.6z M30.2,185.2l-0.3-0.4l2.2-1.9l0.3,0.4L30.2,185.2z M203.7,180.2l-2.3-1.7
				l0.3-0.4l2.3,1.7L203.7,180.2z M25.9,179.8l-0.3-0.4l2.3-1.7l0.3,0.4L25.9,179.8z M207.7,174.5l-2.4-1.6l0.2-0.4l2.5,1.6
				L207.7,174.5z M22,174.1l-0.2-0.4l2.5-1.6l0.2,0.4L22,174.1z M211.2,168.5l-2.5-1.4l0.2-0.4l2.6,1.4L211.2,168.5z M18.5,168.1
				l-0.2-0.4l2.6-1.4l0.2,0.4L18.5,168.1z M214.3,162.4l-2.6-1.3l0.2-0.4l2.6,1.3L214.3,162.4z M15.3,162l-0.2-0.4l2.6-1.2l0.2,0.4
				L15.3,162z M217.1,156l-2.7-1l0.2-0.4l2.7,1.1L217.1,156z M12.6,155.7l-0.2-0.4l2.7-1.1l0.2,0.4L12.6,155.7z M219.5,149.5
				l-2.8-0.9l0.1-0.4l2.8,0.9L219.5,149.5z M10.3,149.1l-0.1-0.5l2.8-0.9l0.1,0.5L10.3,149.1z M221.5,142.9l-2.8-0.7l0.1-0.5
				l2.8,0.7L221.5,142.9z M8.3,142.5L8.2,142l2.8-0.7l0.1,0.5L8.3,142.5z M223,136.1l-2.9-0.5l0.1-0.5l2.9,0.5L223,136.1z
				 M6.8,135.8l-0.1-0.5l2.9-0.5l0.1,0.5L6.8,135.8z M224.1,129.3l-2.9-0.4v-0.5l2.9,0.3L224.1,129.3z M5.7,129v-0.5l2.9-0.3v0.5
				L5.7,129z M224.7,122.5l-2.9-0.2v-0.5l2.9,0.2V122.5z M5.1,122v-0.5l2.9-0.2v0.5L5.1,122z M225,115.7h-2.9V115h2.9V115.7
				L225,115.7z M8,115.1H5.1L5,114.7h3V115.1L8,115.1z M221.9,108.6v-0.5l2.9-0.2v0.5L221.9,108.6z M8,108.4l-3-0.2v-0.5l3,0.2
				V108.4z M221.3,101.9v-0.5l2.9-0.4v0.5L221.3,101.9z M8.6,101.7l-2.9-0.3v-0.5l2.9,0.4V101.7z M220.3,95.2l-0.1-0.5l2.8-0.5
				l0.1,0.5L220.3,95.2z M9.6,95.1l-2.9-0.5l0.1-0.5l2.9,0.5L9.6,95.1z M218.8,88.6l-0.1-0.5l2.8-0.7l0.1,0.5L218.8,88.6z
				 M11.1,88.5l-2.8-0.7l0.1-0.5l2.8,0.7L11.1,88.5z M217,82.2l-0.1-0.4l2.8-0.9l0.1,0.5L217,82.2z M13,82l-2.8-0.9l0.1-0.5l2.8,0.9
				L13,82z M214.8,75.9l-0.2-0.4l2.7-1.1l0.2,0.4L214.8,75.9z M15.3,75.7l-2.8-1.1l0.2-0.4l2.7,1.1L15.3,75.7z M212.1,69.7l-0.2-0.4
				l2.6-1.2l0.2,0.4L212.1,69.7z M18,69.5l-2.6-1.2l0.2-0.4l2.6,1.3L18,69.5z M209,63.7l-0.2-0.4l2.5-1.4l0.2,0.4L209,63.7z
				 M21,63.5l-2.6-1.4l0.2-0.4l2.5,1.4L21,63.5z M205.6,57.9l-0.2-0.4l2.5-1.6l0.2,0.4L205.6,57.9z M24.4,57.7l-2.5-1.6l0.2-0.4
				l2.5,1.6L24.4,57.7z M201.8,52.3l-0.3-0.4l2.3-1.7l0.3,0.4L201.8,52.3z M28.2,52.1l-2.4-1.7l0.3-0.4l2.3,1.8L28.2,52.1z
				 M197.7,47l-0.3-0.4l2.2-1.8l0.3,0.4L197.7,47z M32.3,46.8L30.1,45l0.3-0.4l2.2,1.8L32.3,46.8z M193.3,41.9l-0.3-0.3l2.1-2
				l0.3,0.3L193.3,41.9z M36.7,41.7l-2.2-2l0.3-0.3l2.2,2L36.7,41.7z M188.5,37.2l-0.3-0.3l2-2.2l0.3,0.3L188.5,37.2z M41.5,37
				l-2-2.2l0.3-0.3l2,2.2L41.5,37z M183.5,32.7l-0.4-0.3l1.9-2.2l0.4,0.3L183.5,32.7z M46.5,32.5l-1.8-2.2l0.4-0.3l1.8,2.2
				L46.5,32.5z M178.2,28.5l-0.4-0.3l1.7-2.4l0.4,0.3L178.2,28.5z M51.9,28.4L50.2,26l0.4-0.3l1.7,2.4L51.9,28.4z M172.6,24.7
				l-0.4-0.2l1.6-2.5l0.4,0.2L172.6,24.7z M57.4,24.6l-1.6-2.5l0.4-0.2l1.6,2.5L57.4,24.6z M166.9,21.3l-0.4-0.3l1.4-2.6l0.4,0.2
				L166.9,21.3z M63.2,21.2l-1.4-2.6l0.4-0.2l1.4,2.6L63.2,21.2z M160.9,18.2l-0.4-0.2l1.2-2.6l0.4,0.2L160.9,18.2z M69.2,18.1
				l-1.3-2.6l0.4-0.2l1.2,2.6L69.2,18.1z M154.7,15.5l-0.4-0.2l1.1-2.7l0.4,0.2L154.7,15.5z M75.3,15.5l-1.1-2.7l0.4-0.2l1.1,2.7
				L75.3,15.5z M148.3,13.2l-0.4-0.1l0.9-2.8l0.5,0.1L148.3,13.2z M81.7,13.2l-0.9-2.8l0.5-0.1l0.9,2.7L81.7,13.2z M141.9,11.4
				l-0.5-0.1l0.7-2.8l0.5,0.1L141.9,11.4z M88.1,11.4l-0.7-2.9l0.5-0.1l0.7,2.8L88.1,11.4z M135.3,9.9l-0.5-0.1l0.5-2.9l0.5,0.1
				L135.3,9.9z M94.7,9.9l-0.5-3l0.5-0.1l0.5,2.9L94.7,9.9z M128.7,8.9h-0.5l0.3-2.9h0.5L128.7,8.9z M101.4,8.9L101,5.8h0.5l0.3,2.9
				L101.4,8.9z M122,8.1h-0.5l0.2-2.9h0.5L122,8.1z M108,8.1l-0.2-2.9h0.5l0.2,2.8L108,8.1z M115.2,7.8h-0.5V4.9h0.5V7.8L115.2,7.8z
				"/>
		</g>
		<g>
			<defs>
				<circle id="SVGID_1_" cx="115" cy="115" r="97.5"/>
			</defs>
			<clipPath id="SVGID_2_">
				<use xlink:href="#SVGID_1_"  style="overflow:visible;"/>
			</clipPath>
			<g class="st1">
				<path class="st2" d="M185.8,188c0,0-22.9-49.9-70.7-49.9S44.4,188,44.4,188L27,277l169.3-2.4L185.8,188z"/>
				<path class="st2" d="M115.1,56.9c22.3,0,40.3,18,40.3,40.2c0,0,0,0.1,0,0.1c0,22.2-18,40.3-40.2,40.3c0,0-0.1,0-0.1,0
					c-22.2,0-40.3-17.9-40.3-40.2c0,0,0-0.1,0-0.1c0-22.3,18-40.3,40.2-40.4C115,56.9,115,56.9,115.1,56.9z"/>
			</g>
		</g>
		<path class="st3" d="M161.4,205.5c-50,25.6-111.2,5.9-136.9-44.1S18.7,50.2,68.7,24.6s111.2-5.9,136.9,44.1
			c15.6,30.5,14.8,66.9-2.1,96.7"/>
		<path class="st4" d="M205.4,176.8c4.1,7.2,4.1,16,0,23.2c-2,3.5-4.9,6.4-8.4,8.4c-7.2,4.1-16,4.1-23.2,0c-3.5-2-6.4-4.9-8.4-8.4
			c-4.1-7.2-4.1-16,0-23.2c2-3.5,4.9-6.4,8.4-8.4c7.2-4.1,16-4.1,23.2,0C200.5,170.4,203.4,173.3,205.4,176.8z"/>
		<path class="st0" d="M196.4,187v3c0,0.8-0.7,1.5-1.5,1.5c0,0,0,0,0,0h-6.5v6.5c0,0.8-0.7,1.5-1.5,1.5c0,0,0,0,0,0h-3
			c-0.8,0-1.5-0.7-1.5-1.5c0,0,0,0,0,0v-6.5h-6.5c-0.8,0-1.5-0.7-1.5-1.5c0,0,0,0,0,0v-3c0-0.8,0.7-1.5,1.5-1.5c0,0,0,0,0,0h6.5V179
			c0-0.8,0.7-1.5,1.5-1.5c0,0,0,0,0,0h3c0.8,0,1.5,0.7,1.5,1.5c0,0,0,0,0,0v6.5h6.5C195.7,185.5,196.3,186.2,196.4,187
			C196.4,187,196.4,187,196.4,187z"/>
	</g>
</g>
</svg>
