<?xml version="1.0" encoding="utf-8"?>
<!-- Generator: Adobe Illustrator 19.2.1, SVG Export Plug-In . SVG Version: 6.00 Build 0)  -->
<svg version="1.1" id="Capa_1" xmlns="http://www.w3.org/2000/svg" xmlns:xlink="http://www.w3.org/1999/xlink" x="0px" y="0px"
	 viewBox="0 0 230 230" style="enable-background:new 0 0 230 230;" xml:space="preserve">
<style type="text/css">
	.st0{fill:#01BDF2;enable-background:new    ;}
	.st1{fill:#01BDF2;}
</style>
<title>equipo-marco</title>
<g>
	<g>
		<g>
			<g id="cinco_8_">
				<path class="st0" d="M114.8,225.1h-0.4l0-2.9h0.4L114.8,225.1L114.8,225.1z M121.4,224.9l-0.2-2.9l0.5,0l0.2,2.9L121.4,224.9z
					 M108.1,224.9l-0.5,0l0.2-2.9l0.5,0L108.1,224.9z M128.3,224.3l-0.3-2.9l0.5,0l0.3,2.9L128.3,224.3z M101.2,224.3l-0.5,0
					l0.4-2.9l0.5,0L101.2,224.3z M135.1,223.3l-0.5-2.9l0.5-0.1l0.5,2.9L135.1,223.3z M94.4,223.2l-0.5-0.1l0.5-2.9l0.5,0.1
					L94.4,223.2z M141.9,221.8l-0.7-2.8l0.5-0.1l0.7,2.8L141.9,221.8z M87.6,221.7l-0.5-0.1l0.7-2.8l0.5,0.1L87.6,221.7z
					 M148.5,219.9l-0.9-2.8l0.4-0.1l0.9,2.8L148.5,219.9z M81,219.8l-0.5-0.1l0.9-2.8l0.4,0.1L81,219.8z M155,217.6l-1.1-2.7
					l0.4-0.2l1.1,2.7L155,217.6z M74.5,217.5l-0.4-0.2l1.1-2.7l0.4,0.2L74.5,217.5z M161.4,214.9l-1.2-2.6l0.4-0.2l1.3,2.6
					L161.4,214.9z M68.1,214.7l-0.4-0.2l1.3-2.6l0.4,0.2L68.1,214.7z M167.6,211.8l-1.4-2.6l0.4-0.2l1.4,2.6L167.6,211.8z M62,211.6
					l-0.4-0.2l1.4-2.5l0.4,0.2L62,211.6z M173.5,208.3l-1.6-2.5l0.4-0.2l1.6,2.5L173.5,208.3z M56,208l-0.4-0.2l1.6-2.4l0.4,0.2
					L56,208z M179.3,204.4l-1.7-2.4l0.4-0.3l1.7,2.3L179.3,204.4z M50.2,204.2l-0.4-0.3l1.8-2.3l0.4,0.3L50.2,204.2z M184.7,200.2
					l-1.9-2.2l0.4-0.3l1.9,2.2L184.7,200.2z M44.8,199.9l-0.4-0.3l1.9-2.2l0.4,0.3L44.8,199.9z M189.9,195.6l-2-2.1l0.3-0.3l2,2.1
					L189.9,195.6z M39.6,195.3l-0.3-0.3l2-2.1l0.3,0.3L39.6,195.3z M194.8,190.8l-2.1-2l0.3-0.3l2.1,2L194.8,190.8z M34.7,190.4
					l-0.3-0.3l2.1-2l0.3,0.3L34.7,190.4z M199.5,185.6l-2.2-1.9l0.3-0.4l2.2,1.9L199.5,185.6z M30.2,185.2l-0.3-0.4l2.2-1.9l0.3,0.4
					L30.2,185.2z M203.7,180.2l-2.3-1.7l0.3-0.4l2.3,1.7L203.7,180.2z M25.9,179.8l-0.3-0.4l2.4-1.7l0.3,0.4L25.9,179.8z
					 M207.6,174.5l-2.4-1.6l0.2-0.4l2.5,1.6L207.6,174.5z M22,174.1l-0.2-0.4l2.5-1.6l0.2,0.4L22,174.1z M211.2,168.5l-2.5-1.4
					l0.2-0.4l2.6,1.4L211.2,168.5z M18.5,168.1l-0.2-0.4l2.6-1.4l0.2,0.4L18.5,168.1z M214.4,162.4l-2.6-1.3l0.2-0.4l2.6,1.3
					L214.4,162.4z M15.3,162l-0.2-0.4l2.6-1.2l0.2,0.4L15.3,162z M217.1,156l-2.7-1.1l0.2-0.4l2.7,1.1L217.1,156z M12.6,155.7
					l-0.2-0.4l2.7-1.1l0.2,0.4L12.6,155.7z M219.5,149.5l-2.8-0.9l0.1-0.4l2.8,0.9L219.5,149.5z M10.3,149.2l-0.1-0.5l2.8-0.9
					l0.1,0.4L10.3,149.2z M221.5,142.9l-2.8-0.7l0.1-0.5l2.8,0.7L221.5,142.9z M8.3,142.5L8.2,142l2.8-0.7l0.1,0.5L8.3,142.5z
					 M223,136.1l-2.9-0.5l0.1-0.5l2.9,0.5L223,136.1z M6.8,135.8l-0.1-0.5l2.9-0.5l0.1,0.5L6.8,135.8z M224.1,129.3l-2.9-0.4l0-0.5
					l2.9,0.3L224.1,129.3z M5.7,129l0-0.5l2.9-0.3l0,0.5L5.7,129z M224.8,122.4l-2.9-0.2l0-0.5l2.9,0.2L224.8,122.4z M5.1,122l0-0.5
					l2.9-0.2l0,0.5L5.1,122z M225,115.7l-2.9,0v-0.6h2.9V115.7z M8,115.1H5.1l0,0L5,114.7h3L8,115.1L8,115.1z M221.9,108.6l0-0.5
					l2.9-0.2l0,0.5L221.9,108.6z M8,108.4L5,108.2l0-0.5L8,108L8,108.4z M221.3,101.9l0-0.5l2.9-0.4l0,0.5L221.3,101.9z M8.6,101.7
					l-2.9-0.3l0-0.5l2.9,0.4L8.6,101.7z M220.3,95.2l-0.1-0.5l2.9-0.5l0.1,0.5L220.3,95.2z M9.6,95.1l-2.9-0.5l0.1-0.5l2.9,0.5
					L9.6,95.1z M218.8,88.6l-0.1-0.5l2.8-0.7l0.1,0.5L218.8,88.6z M11.1,88.5l-2.8-0.7l0.1-0.5l2.8,0.7L11.1,88.5z M217,82.2
					l-0.1-0.4l2.8-0.9l0.1,0.5L217,82.2z M12.9,82l-2.8-0.9l0.1-0.5l2.8,0.9L12.9,82z M214.7,75.9l-0.2-0.4l2.7-1.1l0.2,0.4
					L214.7,75.9z M15.2,75.7l-2.7-1.1l0.2-0.4l2.7,1.1L15.2,75.7z M212,69.7l-0.2-0.4l2.6-1.3l0.2,0.4L212,69.7z M17.9,69.5
					l-2.6-1.2l0.2-0.4l2.6,1.3L17.9,69.5z M209,63.7l-0.2-0.4l2.5-1.4l0.2,0.4L209,63.7z M21,63.5l-2.6-1.4l0.2-0.4l2.5,1.4L21,63.5
					z M205.6,57.9l-0.2-0.4l2.5-1.6l0.2,0.4L205.6,57.9z M24.4,57.7l-2.5-1.6l0.2-0.4l2.5,1.6L24.4,57.7z M201.8,52.3l-0.3-0.4
					l2.3-1.7l0.3,0.4L201.8,52.3z M28.2,52.1l-2.4-1.7l0.3-0.4l2.3,1.8L28.2,52.1z M197.7,47l-0.3-0.4l2.2-1.9l0.3,0.4L197.7,47z
					 M32.3,46.8L30.1,45l0.3-0.4l2.2,1.9L32.3,46.8z M193.3,41.9l-0.3-0.3l2.1-2l0.3,0.3L193.3,41.9z M36.7,41.7l-2.1-2l0.3-0.3
					l2.1,2L36.7,41.7z M188.5,37.2l-0.3-0.3l2-2.1l0.3,0.3L188.5,37.2z M41.5,37l-2-2.1l0.3-0.3l2,2.1L41.5,37z M183.5,32.7
					l-0.4-0.3l1.9-2.2l0.4,0.3L183.5,32.7z M46.5,32.5l-1.9-2.2l0.4-0.3l1.9,2.2L46.5,32.5z M178.2,28.5l-0.4-0.3l1.7-2.4l0.4,0.3
					L178.2,28.5z M51.9,28.4L50.2,26l0.4-0.3l1.7,2.4L51.9,28.4z M172.6,24.7l-0.4-0.2l1.6-2.5l0.4,0.2L172.6,24.7z M57.4,24.6
					l-1.6-2.5l0.4-0.2l1.6,2.5L57.4,24.6z M166.9,21.3l-0.4-0.2l1.4-2.6l0.4,0.2L166.9,21.3z M63.2,21.2l-1.4-2.6l0.4-0.2l1.4,2.6
					L63.2,21.2z M160.9,18.2l-0.4-0.2l1.2-2.6l0.4,0.2L160.9,18.2z M69.2,18.1l-1.3-2.6l0.4-0.2l1.2,2.6L69.2,18.1z M154.7,15.5
					l-0.4-0.2l1.1-2.7l0.4,0.2L154.7,15.5z M75.4,15.5l-1.1-2.7l0.4-0.2l1.1,2.7L75.4,15.5z M148.4,13.2l-0.4-0.1l0.9-2.8l0.5,0.1
					L148.4,13.2z M81.7,13.2l-0.9-2.8l0.5-0.1l0.9,2.8L81.7,13.2z M141.9,11.3l-0.5-0.1l0.7-2.8l0.5,0.1L141.9,11.3z M88.1,11.3
					l-0.7-2.8l0.5-0.1l0.7,2.8L88.1,11.3z M135.3,9.8l-0.5-0.1l0.5-2.9l0.5,0.1L135.3,9.8z M94.7,9.8l-0.5-2.9l0.5-0.1l0.5,2.9
					L94.7,9.8z M128.7,8.8l-0.5,0l0.3-2.9l0.5,0L128.7,8.8z M101.3,8.7L101,5.8l0.5,0l0.3,2.9L101.3,8.7z M122,8.1l-0.5,0l0.2-2.9
					l0.5,0L122,8.1z M108,8.1l-0.2-2.9l0.5,0l0.2,2.9L108,8.1z M115.2,7.8h-0.3h-0.1V4.9h0.1h0.3V7.8z"/>
			</g>
			<g id="cuatro_8_">
				<path class="st0" d="M114.8,217.8c-56.3,0-102.7-46.1-102.7-102.8c0-6.3,0.6-12.6,1.8-18.7c1.2-6.5,3.1-12.9,5.5-19
					c7.5-19,20.4-35.2,37.1-46.8c17.2-12,37.4-18.2,58.5-18.2c56.7,0,102.8,45.9,102.8,102.8h-2.1c0-55.7-45.1-100.6-100.6-100.6
					c-20.6,0-40.4,6.2-57.2,17.9C41.2,43.8,28.6,59.7,21.3,78.2c-2.4,6-4.2,12.2-5.3,18.6c-1.1,6-1.8,12.2-1.8,18.3
					c0,55.5,45.3,100.6,100.6,100.6L114.8,217.8L114.8,217.8z"/>
			</g>
			<g id="tres_8_">
				<path class="st0" d="M195.6,111.5V111l9.1-0.4v0.6L195.6,111.5z M195.1,105.9l-0.1-0.5l9.1-1.1l0.1,0.5L195.1,105.9z
					 M194.3,100.4l-0.1-0.5l9-1.7l0.1,0.5L194.3,100.4z M193.2,95l-0.1-0.5l8.8-2.3l0.2,0.5L193.2,95z M191.6,89.6l-0.2-0.5l8.6-2.9
					l0.2,0.5L191.6,89.6z M189.6,84.4l-0.2-0.5l8.4-3.5l0.2,0.5L189.6,84.4z M187.3,79.3l-0.2-0.4l8.1-4.1l0.3,0.5L187.3,79.3z
					 M184.7,74.4l-0.3-0.4l7.8-4.6l0.3,0.5L184.7,74.4z M181.7,69.7l-0.3-0.4l7.5-5.1l0.3,0.5L181.7,69.7z M178.4,65.2l-0.3-0.4
					l7.1-5.7l0.3,0.4L178.4,65.2z M174.8,60.9l-0.3-0.4l6.7-6.2l0.4,0.4L174.8,60.9z M171,56.9l-0.4-0.4l6.3-6.6l0.4,0.4L171,56.9z
					 M166.8,53.2l-0.4-0.3l5.8-7l0.4,0.4L166.8,53.2z M162.4,49.7l-0.4-0.3l5.3-7.4l0.4,0.3L162.4,49.7z M157.8,46.6l-0.4-0.3
					l4.8-7.8l0.5,0.3L157.8,46.6z M153,43.8l-0.4-0.2l4.2-8l0.5,0.3L153,43.8z M147.9,41.4l-0.5-0.2l3.7-8.4l0.5,0.2L147.9,41.4z
					 M142.8,39.2l-0.5-0.2l3.1-8.6l0.5,0.2L142.8,39.2z M137.5,37.5l-0.5-0.2l2.5-8.8l0.5,0.2L137.5,37.5z M132.1,36.2l-0.5-0.1
					l1.9-8.9l0.5,0.1L132.1,36.2z M126.6,35.2l-0.5-0.1l1.2-9l0.6,0.1L126.6,35.2z M121,34.6l-0.5-0.1l0.6-9.1l0.5,0.1L121,34.6z
					 M115.4,34.4h-0.6v-9.1h0.6V34.4z"/>
				<path class="st0" d="M114.8,204.9h-0.5v-9.1h0.5V204.9z M108.7,204.6l-0.5-0.1l0.6-9.1l0.5,0.1L108.7,204.6z M102.6,204L102,204
					l1.3-9l0.5,0.1L102.6,204z M96.5,203l-0.5-0.1l1.9-8.9l0.5,0.1L96.5,203z M90.4,201.5l-0.5-0.2l2.5-8.7l0.5,0.2L90.4,201.5z
					 M84.5,199.6l-0.5-0.2l3.2-8.6l0.5,0.2L84.5,199.6z M78.7,197.3l-0.5-0.2l3.8-8.3l0.5,0.2L78.7,197.3z M73.1,194.6l-0.5-0.3
					l4.3-8l0.4,0.2L73.1,194.6z M67.7,191.5l-0.5-0.3l4.8-7.7l0.4,0.3L67.7,191.5z M62.6,188l-0.5-0.3l5.4-7.3l0.4,0.3L62.6,188z
					 M57.6,184.2l-0.4-0.4l5.8-7l0.4,0.3L57.6,184.2z M53,180.1l-0.4-0.4l6.3-6.5l0.4,0.4L53,180.1z M48.6,175.7l-0.4-0.4l6.8-6.1
					l0.3,0.4L48.6,175.7z M44.6,171l-0.4-0.4l7.2-5.6l0.3,0.4L44.6,171z M40.9,166l-0.3-0.5l7.6-5.1l0.3,0.4L40.9,166z M37.6,160.7
					l-0.3-0.5l7.9-4.6l0.3,0.4L37.6,160.7z M34.6,155.3l-0.3-0.5l8.1-4.1l0.2,0.5L34.6,155.3z M32,149.7l-0.2-0.5l8.4-3.5l0.2,0.5
					L32,149.7z M29.8,143.9l-0.2-0.5l8.6-2.8l0.2,0.5L29.8,143.9z M28.1,137.9l-0.2-0.5l8.8-2.3l0.1,0.5L28.1,137.9z M26.7,131.9
					l-0.1-0.5l9-1.7l0.1,0.5L26.7,131.9z M25.8,125.7l-0.1-0.5l9.1-1l0.1,0.5L25.8,125.7z M25.2,119.5v-0.6l9.1-0.4v0.5L25.2,119.5z
					"/>
			</g>
			<g id="dos_8_">
				<path class="st0" d="M113.2,74.6h-0.3l-0.2-4.6h0.3L113.2,74.6z M110.3,74.8l-0.3,0.1l-0.5-4.6l0.3-0.1L110.3,74.8z M107.6,75.2
					l-0.3,0.1l-0.9-4.5l0.3-0.1L107.6,75.2z M104.9,75.8l-0.2,0.1l-1.2-4.4l0.3-0.1L104.9,75.8z M102.2,76.6l-0.3,0.1l-1.4-4.3
					l0.3-0.1L102.2,76.6z M99.6,77.6l-0.2,0.1l-1.8-4.2l0.3-0.1L99.6,77.6z M97,78.7l-0.2,0.1l-2-4.1l0.3-0.1L97,78.7z M94.5,80
					l-0.2,0.1L92,76.2l0.3-0.2L94.5,80z M92.2,81.5L92,81.7l-2.6-3.8l0.2-0.2L92.2,81.5z M89.9,83.2l-0.2,0.2l-2.8-3.6l0.2-0.2
					L89.9,83.2z M87.8,85l-0.2,0.2l-3.1-3.4l0.2-0.2L87.8,85z M85.8,86.9l-0.2,0.2l-3.3-3.2l0.2-0.2L85.8,86.9z M83.9,89l-0.2,0.2
					l-3.5-2.9l0.2-0.2L83.9,89z M82.1,91.2L82,91.4l-3.7-2.7l0.2-0.2L82.1,91.2z M80.6,93.5l-0.2,0.2l-3.9-2.4l0.2-0.3L80.6,93.5z
					 M79.2,95.9l-0.1,0.2L75,94l0.2-0.3L79.2,95.9z M78,98.5l-0.1,0.2l-4.2-1.8l0.1-0.3L78,98.5z M76.9,101.1l-0.1,0.2l-4.3-1.6
					l0.1-0.3L76.9,101.1z M76,103.7L76,104l-4.4-1.2l0.1-0.3L76,103.7z M75.3,106.4l-0.1,0.3l-4.5-1l0.1-0.3L75.3,106.4z
					 M74.9,109.2l-0.1,0.3l-4.6-0.6l0.1-0.3L74.9,109.2z M74.5,112v0.3l-4.6-0.3v-0.3L74.5,112z M74.4,114.8v0.3h-4.6v-0.3H74.4z"/>
				<path class="st0" d="M160,115.1v0.3h-4.6v-0.3H160z M159.9,118.1v0.3l-4.6-0.3v-0.3L159.9,118.1z M159.6,121.2l-0.1,0.3
					l-4.5-0.6l0.1-0.3L159.6,121.2z M159.1,124.4l-0.1,0.3l-4.4-1l0.1-0.3L159.1,124.4z M158.3,127.4l-0.1,0.3l-4.4-1.3l0.1-0.3
					L158.3,127.4z M157.4,130.3l-0.1,0.3L153,129l0.1-0.2L157.4,130.3z M156.2,133.2l-0.1,0.3l-4.2-1.9l0.1-0.2L156.2,133.2z
					 M154.8,136l-0.1,0.3l-4-2.1l0.1-0.2L154.8,136z M153.3,138.7l-0.2,0.2l-3.9-2.4l0.2-0.2L153.3,138.7z M151.6,141.3l-0.2,0.2
					l-3.7-2.7l0.2-0.2L151.6,141.3z M149.7,143.8l-0.2,0.2l-3.5-2.9l0.2-0.2L149.7,143.8z M147.6,146.1l-0.2,0.2l-3.3-3.2l0.2-0.2
					L147.6,146.1z M145.4,148.3l-0.2,0.2l-3.1-3.4l0.2-0.2L145.4,148.3z M143,150.3l-0.2,0.2l-2.8-3.6l0.2-0.2L143,150.3z
					 M140.5,152.2l-0.2,0.2l-2.6-3.8l0.2-0.2L140.5,152.2z M137.9,153.9l-0.3,0.2l-2.3-4l0.2-0.1L137.9,153.9z M135.2,155.4
					l-0.3,0.1l-2-4.1l0.2-0.1L135.2,155.4z M132.3,156.7l-0.3,0.1l-1.7-4.2l0.2-0.1L132.3,156.7z M129.4,157.7l-0.3,0.1l-1.4-4.3
					l0.2-0.1L129.4,157.7z M126.4,158.7l-0.3,0.1l-1.1-4.4l0.3-0.1L126.4,158.7z M123.4,159.4l-0.3,0.1l-0.8-4.5l0.3-0.1
					L123.4,159.4z M120.3,159.8l-0.3,0.1l-0.5-4.6l0.3-0.1L120.3,159.8z M117.2,160.1h-0.3l-0.2-4.6h0.3L117.2,160.1z"/>
			</g>
			<g id="uno_8_">
				<path class="st1" d="M54.6,140.4c-3.4-8-5.1-16.6-5.1-25.4c0-36.1,29.4-65.5,65.5-65.5c8.1,0,16.1,1.4,23.6,4.4l-0.6,1.5
					c-7.3-2.8-15.1-4.3-23-4.3c-35.2,0-63.8,28.6-63.8,63.8c0,8.6,1.7,16.9,5,24.7L54.6,140.4z"/>
				<path class="st1" d="M115,180.5c-8.7,0-17.3-1.7-25.3-5l0.6-1.5c7.8,3.3,16.1,4.9,24.7,4.9c35.2,0,63.8-28.6,63.8-63.8
					c0-8.7-1.7-17.2-5.1-25.1l1.5-0.6c3.5,8.1,5.3,16.8,5.3,25.7C180.4,151.2,151,180.5,115,180.5z"/>
			</g>
		</g>
	</g>
	<g>
		<defs>
			<circle id="SVGID_1_" cx="115" cy="115" r="97.5"/>
		</defs>
		<use xlink:href="#SVGID_1_"  style="overflow:visible;fill:#FFFFFF;"/>
		<clipPath id="SVGID_2_">
			<use xlink:href="#SVGID_1_"  style="overflow:visible;"/>
		</clipPath>
	</g>
</g>
</svg>
