<svg xmlns="http://www.w3.org/2000/svg" xmlns:xlink="http://www.w3.org/1999/xlink" viewBox="0 0 230 230"><defs><style>.cls-1,.cls-6{fill:none;}.cls-2,.cls-3{isolation:isolate;}.cls-3,.cls-8{fill:#01bdf2;}.cls-4{clip-path:url(#clip-path);}.cls-5{fill:#0072bc;opacity:0.2;mix-blend-mode:multiply;}.cls-6,.cls-7{stroke:#01bdf2;stroke-linecap:square;stroke-linejoin:round;stroke-width:3px;}.cls-7{fill:#fafafa;}</style><clipPath id="clip-path"><circle class="cls-1" cx="115" cy="115" r="97.46"/></clipPath></defs><title>equipo-busqueda</title><g class="cls-2"><g id="Capa_1" data-name="Capa 1"><g id="cinco"><path class="cls-3" d="M114.8,225.12h-0.39l0-2.93h0.44v2.93h0Zm6.63-.2-0.2-2.93,0.49,0,0.2,2.93Zm-13.36,0-0.49,0,0.2-2.93,0.49,0Zm20.23-.59L128,221.42l0.49,0,0.34,2.93Zm-27.11,0-0.49,0,0.39-2.93,0.49,0Zm33.94-1-0.54-2.88,0.49-.1,0.54,2.88Zm-40.76,0-0.49-.1,0.54-2.88,0.49,0.1Zm47.49-1.41L141.13,219l0.49-.1,0.73,2.83Zm-54.22-.1-0.49-.15,0.73-2.83,0.49,0.1Zm60.9-1.8-0.88-2.78,0.44-.15,0.93,2.78ZM81,219.81l-0.49-.15,0.93-2.78L81.84,217ZM155,217.61L154,214.88l0.44-.2,1.07,2.73Zm-80.55-.15-0.44-.2,1.07-2.73,0.44,0.2Zm86.94-2.58-1.22-2.63,0.44-.2,1.27,2.63Zm-93.32-.2-0.44-.2,1.27-2.63,0.44,0.2Zm99.47-2.93-1.41-2.58,0.44-.24,1.41,2.58ZM62,211.57l-0.44-.24,1.41-2.54L63.36,209Zm111.56-3.32L172,205.76l0.39-.24L173.9,208ZM56,208l-0.44-.24,1.56-2.44,0.39,0.24Zm123.26-3.61L177.56,202l0.39-.29,1.71,2.34Zm-129-.24-0.39-.29,1.76-2.34L52,201.82Zm134.48-3.95L182.87,198l0.39-.29,1.85,2.24Zm-139.94-.29-0.39-.29,1.85-2.24,0.39,0.29Zm145.16-4.29-2-2.15,0.34-.34,2,2.15Zm-150.32-.29L39.28,195l2-2.15,0.34,0.34Zm155.2-4.53-2.15-2,0.34-.34,2.15,2Zm-160.12-.39-0.34-.34,2.15-2,0.34,0.34Zm164.76-4.78-2.24-1.9,0.29-.39,2.24,1.85Zm-169.29-.39-0.34-.39L32.06,183l0.29,0.39Zm173.53-5.07-2.34-1.71,0.29-.39,2.34,1.71Zm-177.77-.39-0.29-.39L28,177.68l0.29,0.39Zm181.72-5.31-2.44-1.61,0.24-.39,2.49,1.56ZM22,174.07l-0.24-.44,2.49-1.56,0.24,0.39Zm189.18-5.56-2.54-1.41,0.24-.44,2.58,1.41Zm-192.7-.39-0.24-.44,2.58-1.41,0.24,0.44Zm195.86-5.75-2.63-1.27,0.2-.44,2.63,1.27Zm-199-.39-0.2-.44,2.63-1.22,0.2,0.44ZM217.15,156L214.42,155l0.2-.44,2.73,1.07Zm-204.54-.34-0.2-.44,2.73-1.07,0.2,0.44Zm206.93-6.14-2.78-.93,0.15-.44,2.78,0.93Zm-209.27-.39-0.15-.49,2.78-.88L13,148.23Zm211.22-6.24-2.83-.73,0.1-.49,2.83,0.73ZM8.32,142.52L8.17,142l2.83-.73,0.1,0.49ZM223,136.14l-2.88-.54,0.1-.49,2.88,0.54ZM6.8,135.8l-0.1-.49,2.88-.54,0.1,0.49Zm217.32-6.48-2.88-.39,0-.49,2.93,0.34ZM5.73,129l0-.49,2.93-.34,0,0.49Zm219-6.53-2.93-.2,0-.49,2.93,0.2ZM5.1,122l0-.49,2.93-.2,0,0.49ZM225,115.66l-2.93,0v-0.63H225v0.59ZM8,115.07H5.1L5,114.68H8l0,0.39H8Zm213.91-6.48,0-.49,2.93-.2,0,0.49ZM8,108.44L5,108.25l0-.49L8,108Zm213.32-6.58,0-.49,2.93-.39,0,0.49ZM8.61,101.71l-2.93-.34,0-.49,2.93,0.39Zm211.66-6.48-0.1-.49L223,94.2l0.1,0.49ZM9.63,95.08l-2.88-.54,0.1-.49,2.88,0.54Zm209.18-6.44-0.1-.49,2.83-.73,0.15,0.49ZM11.09,88.5l-2.83-.73,0.15-.49L11.24,88ZM217,82.21l-0.15-.44,2.78-.93,0.15,0.49Zm-204-.2-2.78-.88,0.15-.49,2.78,0.93Zm201.76-6.14-0.2-.44,2.73-1.07,0.2,0.44Zm-199.47-.2L12.51,74.6l0.2-.44,2.73,1.07Zm196.79-6-0.2-.44L214.47,68l0.2,0.44Zm-194.11-.2-2.63-1.22,0.2-.44,2.63,1.27ZM209,63.68l-0.24-.44,2.54-1.41,0.24,0.44Zm-188-.2-2.58-1.41,0.24-.44L21.19,63Zm184.6-5.61-0.24-.39,2.49-1.56,0.24,0.44Zm-181.19-.2-2.49-1.56,0.24-.44,2.49,1.56Zm177.43-5.36-0.29-.39,2.34-1.71,0.29,0.39Zm-173.63-.2-2.39-1.71L26.11,50l2.34,1.76ZM197.74,47l-0.29-.39,2.24-1.85L200,45.15ZM32.3,46.81L30.06,45l0.29-.39,2.24,1.85Zm161-4.88L193,41.59l2.15-2,0.34,0.34Zm-156.56-.2-2.15-2,0.34-.34,2.15,2Zm151.79-4.58-0.34-.34,2-2.15L190.53,35ZM41.52,37l-2-2.15,0.34-.34,2,2.15Zm142-4.34-0.39-.29L185,30.14l0.39,0.29Zm-137-.15-1.85-2.24L45.08,30l1.85,2.24Zm131.65-4-0.39-.29,1.71-2.39,0.39,0.29ZM51.86,28.38L50.15,26l0.39-.29,1.71,2.39Zm120.78-3.66-0.39-.24L173.8,22l0.44,0.24Zm-115.22-.1-1.56-2.49,0.44-.24,1.56,2.49Zm109.46-3.36L166.44,21l1.41-2.58,0.44,0.24Zm-103.66-.1L61.8,18.58l0.44-.24,1.41,2.58Zm97.66-3-0.44-.2,1.22-2.63,0.44,0.2Zm-91.72-.1L67.9,15.46l0.44-.2,1.22,2.63Zm85.52-2.58-0.44-.2,1.07-2.73,0.44,0.2Zm-79.33,0-1.07-2.73,0.44-.2,1.07,2.73Zm73-2.24-0.44-.15,0.88-2.78,0.49,0.15Zm-66.65,0-0.93-2.78,0.49-.15L82.14,13Zm60.22-1.85-0.49-.1,0.73-2.83,0.49,0.15Zm-53.78,0L87.4,8.44l0.49-.15,0.73,2.83Zm47.2-1.46-0.49-.1,0.54-2.88,0.49,0.1Zm-40.62,0L94.18,6.93l0.49-.1L95.2,9.71Zm34-1-0.49,0,0.34-2.93,0.49,0Zm-27.35,0L101,5.8l0.49,0,0.34,2.93ZM122,8.1l-0.49,0,0.2-2.93,0.49,0ZM108,8.1l-0.2-2.93,0.49,0L108.52,8Zm7.22-.29h-0.49V4.88h0.49V7.8Z"/></g><g class="cls-4"><path class="cls-5" d="M185.8,188s-22.92-49.89-70.71-49.89S44.37,188,44.37,188L27,277l169.33-2.4Z"/><path class="cls-5" d="M115.09,56.87a40.29,40.29,0,0,1,40.34,40.34,40.27,40.27,0,0,1-40.34,40.34A40.27,40.27,0,0,1,74.74,97.22,40.29,40.29,0,0,1,115.09,56.87Z"/></g><path class="cls-6" d="M160.48,203.7a99.62,99.62,0,1,1,41.14-39.37"/><path class="cls-7" d="M205.4,176.84a23.29,23.29,0,0,1,0,23.23,23,23,0,0,1-8.42,8.42,23.3,23.3,0,0,1-23.23,0,23,23,0,0,1-8.42-8.42,23.29,23.29,0,0,1,0-23.23,23,23,0,0,1,8.42-8.42,23.28,23.28,0,0,1,23.23,0A23,23,0,0,1,205.4,176.84Z"/><path class="cls-8" d="M196.35,187v3a1.49,1.49,0,0,1-1.5,1.5h-6.5v6.5a1.49,1.49,0,0,1-1.5,1.5h-3a1.49,1.49,0,0,1-1.5-1.5v-6.5h-6.5a1.49,1.49,0,0,1-1.5-1.5v-3a1.49,1.49,0,0,1,1.5-1.5h6.5V179a1.49,1.49,0,0,1,1.5-1.5h3a1.49,1.49,0,0,1,1.5,1.5v6.5h6.5A1.49,1.49,0,0,1,196.35,187Z"/></g></g></svg>