<?xml version="1.0" encoding="utf-8"?>
<!-- Generator: Adobe Illustrator 23.0.2, SVG Export Plug-In . SVG Version: 6.00 Build 0)  -->
<svg version="1.1" id="Layer_1" xmlns="http://www.w3.org/2000/svg" xmlns:xlink="http://www.w3.org/1999/xlink" x="0px" y="0px"
	 viewBox="0 0 354.5 70" style="enable-background:new 0 0 354.5 70;" xml:space="preserve">
<style type="text/css">
	.st0{fill:#0D93D1;}
	.st1{fill:#0094D4;}
	.st2{fill:#FFFFFF;}
	.st3{fill:#231F20;}
	.st4{fill:#FFC10E;}
	.st5{fill:#2DA34A;}
	.st6{fill:#EE4023;}
	.st7{fill:#FBBB80;}
</style>
<g>
	<g>
		<path class="st0" d="M62.6,37.5h6.5c3.8,0,6.2,2.2,6.2,5.5v0c0,3.7-3,5.6-6.6,5.6h-3.3v5.3h-2.9V37.5z M68.9,46
			c2.2,0,3.5-1.2,3.5-2.9v0c0-1.9-1.4-2.9-3.5-2.9h-3.4V46H68.9z"/>
		<path class="st0" d="M77.7,41.5h2.8v2.8c0.8-1.9,2.2-3.1,4.4-3v3h-0.2c-2.5,0-4.2,1.6-4.2,4.9v4.7h-2.8V41.5z"/>
		<path class="st0" d="M86.5,47.7L86.5,47.7c0-3.6,2.5-6.5,6.1-6.5c3.9,0,5.9,3.1,5.9,6.7c0,0.3,0,0.5,0,0.8h-9.1
			c0.3,2,1.7,3.1,3.6,3.1c1.4,0,2.4-0.5,3.4-1.5l1.7,1.5c-1.2,1.4-2.8,2.3-5.1,2.3C89.3,54.2,86.5,51.6,86.5,47.7z M95.7,46.8
			c-0.2-1.8-1.3-3.3-3.1-3.3c-1.7,0-3,1.3-3.2,3.3H95.7z"/>
		<path class="st0" d="M100.1,52.3l1.3-1.9c1.3,1,2.8,1.5,4.1,1.5c1.2,0,1.9-0.5,1.9-1.3v0c0-1-1.3-1.3-2.8-1.7
			c-1.8-0.5-3.9-1.3-3.9-3.6v0c0-2.3,1.9-3.8,4.4-3.8c1.5,0,3.2,0.5,4.6,1.4l-1.1,2c-1.2-0.7-2.5-1.2-3.5-1.2
			c-1.1,0-1.7,0.5-1.7,1.2v0c0,0.9,1.3,1.3,2.8,1.7c1.8,0.6,3.8,1.4,3.8,3.6v0c0,2.6-2,3.9-4.6,3.9
			C103.6,54.1,101.7,53.5,100.1,52.3z"/>
		<path class="st0" d="M112.7,36.9h3.1v2.7h-3.1V36.9z M112.8,41.5h2.8v12.4h-2.8V41.5z"/>
		<path class="st0" d="M118.5,47.7L118.5,47.7c0-4.2,2.8-6.5,5.7-6.5c2,0,3.3,1,4.2,2.2v-6.7h2.8v17.1h-2.8v-2.1
			c-0.9,1.3-2.2,2.3-4.2,2.3C121.3,54.2,118.5,51.8,118.5,47.7z M128.5,47.7L128.5,47.7c0-2.4-1.7-4-3.6-4c-1.9,0-3.6,1.5-3.6,4v0
			c0,2.4,1.6,4,3.6,4C126.8,51.7,128.5,50.1,128.5,47.7z"/>
		<path class="st0" d="M133.9,47.7L133.9,47.7c0-3.6,2.5-6.5,6.1-6.5c3.9,0,5.9,3.1,5.9,6.7c0,0.3,0,0.5,0,0.8h-9.1
			c0.3,2,1.7,3.1,3.6,3.1c1.4,0,2.4-0.5,3.4-1.5l1.7,1.5c-1.2,1.4-2.8,2.3-5.1,2.3C136.7,54.2,133.9,51.6,133.9,47.7z M143.1,46.8
			c-0.2-1.8-1.3-3.3-3.1-3.3c-1.7,0-3,1.3-3.2,3.3H143.1z"/>
		<path class="st0" d="M148.5,41.5h2.8v1.9c0.8-1.2,1.9-2.2,3.9-2.2c2.8,0,4.4,1.9,4.4,4.8v7.9h-2.8v-7c0-1.9-1-3-2.7-3
			c-1.6,0-2.8,1.1-2.8,3.1v7h-2.8V41.5z"/>
		<path class="st0" d="M162.2,47.8L162.2,47.8c0-3.6,2.7-6.5,6.4-6.5c2.3,0,3.8,0.9,5,2.1l-1.8,1.9c-0.9-0.9-1.8-1.5-3.2-1.5
			c-2.1,0-3.6,1.8-3.6,3.9v0c0,2.2,1.5,4,3.7,4c1.3,0,2.3-0.6,3.2-1.5l1.7,1.7c-1.2,1.4-2.7,2.3-5.1,2.3
			C164.9,54.2,162.2,51.3,162.2,47.8z"/>
		<path class="st0" d="M176.1,36.9h3.1v2.7h-3.1V36.9z M176.2,41.5h2.8v12.4h-2.8V41.5z"/>
		<path class="st0" d="M190.1,53.9v-1.5c-0.8,1-2.1,1.8-4,1.8c-2.3,0-4.4-1.3-4.4-3.8v0c0-2.7,2.1-4.1,5-4.1c1.5,0,2.5,0.2,3.4,0.5
			v-0.2c0-1.7-1.1-2.7-3.1-2.7c-1.4,0-2.4,0.3-3.5,0.8l-0.8-2.3c1.4-0.6,2.7-1,4.7-1c3.7,0,5.4,1.9,5.4,5.2v7.3H190.1z M190.1,48.7
			c-0.7-0.3-1.7-0.5-2.8-0.5c-1.8,0-2.8,0.7-2.8,1.9v0c0,1.2,1.1,1.8,2.4,1.8c1.9,0,3.3-1.1,3.3-2.6V48.7z"/>
		<path class="st0" d="M202.2,47.7L202.2,47.7c0-4.2,2.8-6.5,5.7-6.5c2,0,3.3,1,4.2,2.2v-6.7h2.8v17.1h-2.8v-2.1
			c-0.9,1.3-2.2,2.3-4.2,2.3C205,54.2,202.2,51.8,202.2,47.7z M212.2,47.7L212.2,47.7c0-2.4-1.7-4-3.6-4c-1.9,0-3.6,1.5-3.6,4v0
			c0,2.4,1.6,4,3.6,4C210.5,51.7,212.2,50.1,212.2,47.7z"/>
		<path class="st0" d="M217.6,47.7L217.6,47.7c0-3.6,2.5-6.5,6.1-6.5c3.9,0,5.9,3.1,5.9,6.7c0,0.3,0,0.5,0,0.8h-9.1
			c0.3,2,1.7,3.1,3.6,3.1c1.4,0,2.4-0.5,3.4-1.5l1.7,1.5c-1.2,1.4-2.8,2.3-5.1,2.3C220.4,54.2,217.6,51.6,217.6,47.7z M226.8,46.8
			c-0.2-1.8-1.3-3.3-3.1-3.3c-1.7,0-3,1.3-3.2,3.3H226.8z"/>
		<path class="st0" d="M239.2,36.8h2.8v17.1h-2.8V36.8z"/>
		<path class="st0" d="M253.1,53.9v-1.5c-0.8,1-2.1,1.8-4,1.8c-2.3,0-4.4-1.3-4.4-3.8v0c0-2.7,2.1-4.1,5-4.1c1.5,0,2.5,0.2,3.4,0.5
			v-0.2c0-1.7-1.1-2.7-3.1-2.7c-1.4,0-2.4,0.3-3.5,0.8l-0.8-2.3c1.4-0.6,2.7-1,4.7-1c3.7,0,5.4,1.9,5.4,5.2v7.3H253.1z M253.2,48.7
			c-0.7-0.3-1.7-0.5-2.8-0.5c-1.8,0-2.8,0.7-2.8,1.9v0c0,1.2,1.1,1.8,2.4,1.8c1.9,0,3.3-1.1,3.3-2.6V48.7z"/>
		<path class="st0" d="M266.2,37.5h2.7l8.8,11.4V37.5h2.8v16.4h-2.4l-9.1-11.7v11.7h-2.8V37.5z"/>
		<path class="st0" d="M291.8,53.9v-1.5c-0.8,1-2.1,1.8-4,1.8c-2.3,0-4.4-1.3-4.4-3.8v0c0-2.7,2.1-4.1,5-4.1c1.5,0,2.5,0.2,3.4,0.5
			v-0.2c0-1.7-1.1-2.7-3.1-2.7c-1.4,0-2.4,0.3-3.5,0.8l-0.8-2.3c1.4-0.6,2.7-1,4.7-1c3.7,0,5.4,1.9,5.4,5.2v7.3H291.8z M291.8,48.7
			c-0.7-0.3-1.7-0.5-2.8-0.5c-1.8,0-2.8,0.7-2.8,1.9v0c0,1.2,1.1,1.8,2.4,1.8c1.9,0,3.3-1.1,3.3-2.6V48.7z"/>
		<path class="st0" d="M297.1,47.8L297.1,47.8c0-3.6,2.7-6.5,6.4-6.5c2.3,0,3.8,0.9,5,2.1l-1.8,1.9c-0.9-0.9-1.8-1.5-3.2-1.5
			c-2.1,0-3.6,1.8-3.6,3.9v0c0,2.2,1.5,4,3.7,4c1.3,0,2.3-0.6,3.2-1.5l1.7,1.7c-1.2,1.4-2.7,2.3-5.1,2.3
			C299.8,54.2,297.1,51.3,297.1,47.8z"/>
		<path class="st0" d="M310.9,36.9h3.1v2.7h-3.1V36.9z M311.1,41.5h2.8v12.4h-2.8V41.5z"/>
		<path class="st0" d="M316.7,47.8L316.7,47.8c0-3.6,2.8-6.5,6.6-6.5s6.6,2.9,6.6,6.4v0c0,3.5-2.8,6.5-6.6,6.5
			C319.5,54.2,316.7,51.3,316.7,47.8z M327.1,47.8L327.1,47.8c0-2.2-1.6-4-3.8-4c-2.3,0-3.7,1.8-3.7,3.9v0c0,2.2,1.6,4,3.8,4
			C325.6,51.7,327.1,49.9,327.1,47.8z M324.6,36.1l2.6,1.1l-2.9,2.7h-2.1L324.6,36.1z"/>
		<path class="st0" d="M332.6,41.5h2.8v1.9c0.8-1.2,1.9-2.2,3.9-2.2c2.8,0,4.4,1.9,4.4,4.8v7.9h-2.8v-7c0-1.9-1-3-2.7-3
			c-1.6,0-2.8,1.1-2.8,3.1v7h-2.8V41.5z"/>
	</g>
	<g>
		<g>
			<path class="st1" d="M29.6,34.1h-3.4c-0.7,0-1.2-0.3-1.4-0.6c-0.2-0.2-0.3-0.5-0.4-0.8c0,0,0-0.1,0-0.1c0-0.3,0-0.7,0-1
				c0.4-2.2,1.3-3.7,2.1-4.7c-0.1,0-0.2-0.1-0.2-0.1c-0.5-0.3-0.7-0.8-0.6-1.4c0.1-0.7,0.8-1.5,1-1.6c1.2-1.4,2.9-1.5,3.1-1.5
				c0.3,0,2.6-0.1,3.8,2.3c1.5,2.9,1.8,5.3,2.1,7.2l0,0.1c0,0.3,0,0.6,0,0.8c0,0,0,0.1,0,0.1c-0.1,0.3-0.2,0.5-0.3,0.6
				C35,33.8,34.6,34,34,34.1c-0.2,0-0.5,0-0.6,0c-0.1,0-0.1,0-0.1,0h-2.7v4.8h15.2c0-2.8-0.4-5.6-1.2-8.2c-0.8-2.5-1.9-4.7-3.4-6.6
				c-1.5-1.9-3.1-3.4-5-4.5c-1.9-1.1-4-1.6-6.1-1.6c-2.1,0-4.2,0.5-6.1,1.6c-1.9,1-3.6,2.5-5,4.5c-1.5,1.9-2.6,4.2-3.4,6.6
				c-0.8,2.6-1.2,5.3-1.2,8.2h15.2V34.1z"/>
		</g>
		<g>
			<path class="st2" d="M14.3,38.9c0,2.1,0.2,4.2,0.7,6.3c6.8-0.8,10.9-1.6,12.1-2.4c0.8-0.6,1.5-0.9,2.4-0.9v-3H14.3z"/>
			<path class="st2" d="M30.6,42c0.6,0.1,1.1,0.3,1.6,0.5c0,0,0.1,0,0.2,0c0.9,0,1.6,0.2,2.6,0.6c0.3,0.1,0.6,0.2,0.9,0.3
				c0.1,0,5.1,1.6,9.2,1.8c0.5-2,0.7-4.2,0.7-6.3H30.6V42z"/>
		</g>
		<polygon class="st3" points="29.1,15.4 29.1,15.4 29.1,15.4 		"/>
		<polygon class="st3" points="25.9,15.9 25.9,15.9 25.9,15.9 		"/>
		<polygon class="st3" points="25.9,15.9 25.9,15.9 25.9,15.9 		"/>
		<path class="st2" d="M36.8,48.7c-0.1,0.1-0.2,0.3-0.3,0.4c-0.3,0.2-0.6,0.4-1,0.4c-0.1,0.1-0.1,0.3-0.3,0.4
			c-0.2,0.3-0.6,0.6-1.3,0.5c-0.1,0.1-0.2,0.2-0.3,0.4c-0.3,0.3-0.8,0.5-1.3,0.4c-0.1,0.1-0.3,0.2-0.5,0.3c-0.3,0.1-0.7,0.2-1.2,0.1
			v4c0,0.3-0.2,0.5-0.5,0.5c-0.3,0-0.5-0.2-0.5-0.5v-3.9c-0.2,0.1-0.4,0.1-0.7,0.1c-0.1,0-0.2,0-0.3,0c-0.3-0.1-0.5-0.2-0.7-0.4
			c-0.3,0.1-0.9,0.1-1.4-0.2c-0.2-0.1-0.3-0.3-0.4-0.5c-0.1,0-0.3,0-0.5-0.1c-0.4-0.1-0.8-0.4-0.9-0.8c-0.1,0-0.2,0-0.4,0
			c-0.4-0.1-0.8-0.2-1-0.6c0-0.1-0.1-0.2-0.1-0.3c-2.2,1.1-4.7,2.2-5.8,2.7c0.4,0.7,0.9,1.4,1.4,2.1c1.5,1.9,3.1,3.4,5,4.5
			c0.9,0.5,1.8,0.9,2.7,1.1c0.1-0.2,0.2-0.3,0.4-0.4c0.9-0.6,2.5-0.2,3,0c0.5-0.1,2.1-0.6,3,0c0.2,0.1,0.3,0.3,0.4,0.4
			c0.9-0.3,1.8-0.6,2.7-1.1c1.9-1,3.6-2.5,5-4.5c0.5-0.6,0.9-1.3,1.3-2C41.3,51.2,38.6,50,36.8,48.7z"/>
		<g>
			<path class="st1" d="M31.5,62.5c0-0.1,0-0.2,0-0.4c0-0.1,0-0.2,0-0.3c0.5-0.1,1.3-0.3,1.8-0.9c0.3-0.3,0.4-0.7,0.3-1.1
				c0-0.4-0.2-0.7-0.5-0.9c-0.9-0.6-2.5-0.2-3,0c-0.5-0.1-2.1-0.6-3,0c-0.3,0.2-0.5,0.5-0.5,0.9c0,0.4,0.1,0.8,0.3,1.1
				c0.5,0.6,1.3,0.8,1.8,0.9c0,0.1,0,0.2,0,0.3c0,0.1,0,0.2,0,0.3c-0.4,0.4-1.6,1.4-3.3,1.6l0,0c0.1,0.1,0.2,0.3,0.5,0.6
				c1.5-0.3,2.6-1.1,3.1-1.6c0,0.1,0.1,0.1,0.2,0.2c-0.1,0.4-0.6,1.5-2.5,2c0.3,0.1,0.7,0.3,1.1,0.3c1.3-0.6,1.8-1.5,1.9-2
				c0.1,0,0.2,0,0.3,0c0.1,0,0.2,0,0.3,0c0.2,0.5,0.6,1.4,1.9,2c0.4-0.1,0.8-0.2,1.1-0.3c-1.9-0.5-2.3-1.6-2.5-2
				c0.1,0,0.1-0.1,0.2-0.2c0.5,0.5,1.6,1.3,3.1,1.6c0.3-0.3,0.5-0.5,0.5-0.6C33.1,63.9,31.9,62.9,31.5,62.5z"/>
			<g>
				<g>
					<path class="st2" d="M32.7,59.5c0.1,0.1,0.2,0.2,0.2,0.4c0,0.2,0,0.5-0.2,0.6c-0.2,0.2-0.5,0.4-0.9,0.5c0.2-0.3,0.2-0.7,0.1-1
						c-0.1-0.3-0.3-0.6-0.5-0.7C31.9,59.2,32.5,59.3,32.7,59.5z"/>
					<path class="st2" d="M28.8,60.3c0.3-0.7,1.2-0.7,1.2-0.7h0c0,0,0.3,0,0.5,0.1c0.4,0.1,0.6,0.3,0.7,0.6c0.1,0.3-0.1,0.6-0.3,0.8
						c-0.3-0.2-0.6-0.4-1-0.4c-0.4,0-0.7,0.1-1,0.4C29,60.9,28.7,60.6,28.8,60.3z"/>
					<path class="st2" d="M28.3,61c-0.3-0.1-0.7-0.3-0.9-0.5c-0.2-0.2-0.2-0.4-0.2-0.6c0-0.2,0.1-0.3,0.2-0.4
						c0.2-0.1,0.5-0.2,0.9-0.2c0.1,0,0.3,0,0.4,0c-0.2,0.2-0.4,0.4-0.5,0.7C28.1,60.4,28.1,60.7,28.3,61z"/>
					<path class="st2" d="M29.3,62.2c0-0.4,0.3-0.8,0.8-0.8c0.4,0,0.8,0.3,0.8,0.8c0,0.4-0.3,0.8-0.8,0.8
						C29.7,62.9,29.3,62.6,29.3,62.2z"/>
				</g>
				<path class="st2" d="M34.3,64.7c-1.5-0.3-2.6-1.1-3.1-1.6c-0.1,0.1-0.1,0.1-0.2,0.2c0.1,0.4,0.6,1.5,2.5,2
					C33.8,65.1,34.1,64.9,34.3,64.7z"/>
				<path class="st2" d="M29,63.1c-0.5,0.5-1.6,1.3-3.1,1.6c0.2,0.2,0.5,0.4,0.8,0.5c1.9-0.5,2.3-1.6,2.5-2
					C29.1,63.2,29.1,63.2,29,63.1z"/>
			</g>
		</g>
		<path class="st3" d="M49.2,43c0-0.1,0-0.2-0.1-0.3c-0.1-0.1-0.1-0.1-0.2-0.1c0.1-0.1,0.1-0.3,0.2-0.4c0.2-0.6,0.4-1.4,0.4-2.2
			c0-0.1-0.1-0.2-0.1-0.3c-0.1,0-0.1-0.1-0.2-0.1c0-0.1,0.1-0.3,0.1-0.4c0.2-0.7,0.2-1.4,0.1-2.2c0-0.1-0.1-0.2-0.2-0.3
			c-0.1,0-0.2,0-0.2,0c0-0.2,0.1-0.3,0.1-0.5c0.1-0.7,0.1-1.4-0.1-2.2c0-0.1-0.1-0.2-0.2-0.2c-0.1,0-0.1,0-0.2,0
			c0-0.1,0-0.2,0.1-0.3c0.1-0.7,0-1.4-0.2-2.2c0-0.1-0.1-0.2-0.2-0.2c-0.1,0-0.2,0-0.3,0l0,0c0-0.2,0-0.4,0-0.5
			c0-0.7-0.2-1.4-0.5-2.2c0-0.1-0.1-0.2-0.2-0.2c-0.1,0-0.2,0-0.3,0c0-0.2,0-0.3,0-0.5c-0.1-0.7-0.3-1.4-0.7-2.1
			c-0.1-0.1-0.1-0.2-0.3-0.2c-0.1,0-0.2,0-0.2,0.1c0-0.2-0.1-0.3-0.1-0.5c-0.2-0.7-0.5-1.4-1-2c-0.1-0.1-0.2-0.1-0.3-0.1
			c-0.1,0-0.2,0.1-0.3,0.1c-0.1-0.2-0.1-0.4-0.2-0.5c-0.3-0.6-0.7-1.3-1.3-1.9c-0.1-0.1-0.2-0.1-0.3-0.1c-0.1,0-0.2,0.1-0.2,0.1
			c-0.1-0.2-0.2-0.4-0.3-0.5c-0.4-0.6-0.9-1.1-1.5-1.6c-0.1-0.1-0.2-0.1-0.3-0.1c-0.1,0-0.2,0.1-0.2,0.2c-0.4-0.6-1-1-1.8-1.3
			c0.1,0,0.3,0,0.4,0C39.3,17.2,40,17,40,17c0.2-0.1,0.3-0.2,0.3-0.4c0-0.2-0.2-0.4-0.4-0.4c-1,0-1.4-0.3-1.8-0.5
			c-0.1,0-0.2-0.1-0.3-0.2l2.3-0.3c0.2,0,0.4-0.2,0.4-0.4c0-0.2-0.2-0.4-0.4-0.4L37.8,14c0.3-0.1,0.6-0.2,0.9-0.3
			c0.9-0.3,1.4-0.7,1.4-0.7c0.2-0.1,0.2-0.3,0.1-0.5c-0.1-0.2-0.3-0.3-0.5-0.2c-0.9,0.3-1.4,0.3-1.9,0.2c-0.1,0-0.2,0-0.3,0l2-1.2
			c0.2-0.1,0.2-0.3,0.2-0.5c-0.1-0.2-0.3-0.3-0.5-0.2l-2.3,0.6c0.2-0.2,0.5-0.4,0.7-0.6c0.7-0.6,1-1.2,1-1.2c0.1-0.2,0-0.4-0.1-0.5
			c-0.2-0.1-0.4-0.1-0.5,0c-0.7,0.7-1.1,0.8-1.7,0.9c-0.1,0-0.2,0.1-0.3,0.1L37.5,8c0.1-0.2,0.1-0.4,0-0.5c-0.1-0.1-0.4-0.2-0.5,0
			L35,8.8c0.1-0.2,0.3-0.5,0.4-0.8c0.4-0.8,0.5-1.5,0.5-1.5c0-0.2-0.1-0.4-0.3-0.4c-0.2-0.1-0.4,0-0.5,0.2c-0.4,0.9-0.7,1.2-1.2,1.5
			c-0.1,0.1-0.2,0.1-0.2,0.2l0.6-2.3c0.1-0.2-0.1-0.4-0.2-0.5c-0.2-0.1-0.4,0-0.5,0.2l-1.2,2c0-0.3,0.1-0.6,0.1-1
			c0.1-0.9-0.1-1.5-0.1-1.6c-0.1-0.2-0.2-0.3-0.4-0.3c-0.2,0-0.4,0.2-0.4,0.4c0,1-0.2,1.4-0.5,1.8c0,0.1-0.1,0.2-0.1,0.3l-0.3-2.3
			c0-0.2-0.2-0.4-0.4-0.4h0c-0.2,0-0.4,0.2-0.4,0.4L29.4,7c-0.1-0.3-0.2-0.6-0.3-0.9c-0.3-0.9-0.7-1.4-0.7-1.4
			c-0.1-0.2-0.3-0.2-0.5-0.1c-0.2,0.1-0.3,0.3-0.2,0.5c0.3,0.9,0.3,1.4,0.2,1.9c0,0.1,0,0.2,0,0.3l-1.2-2c-0.1-0.2-0.3-0.2-0.5-0.2
			c-0.2,0.1-0.3,0.3-0.2,0.5l0.6,2.2c-0.2-0.2-0.4-0.5-0.6-0.7c-0.6-0.7-1.2-1-1.2-1c-0.2-0.1-0.4,0-0.5,0.1c-0.1,0.2-0.1,0.4,0,0.5
			c0.7,0.7,0.8,1.1,0.9,1.7c0,0.1,0.1,0.2,0.1,0.3l-1.9-1.4c-0.2-0.1-0.4-0.1-0.5,0c-0.1,0.1-0.2,0.4,0,0.5l1.4,1.9
			c-0.2-0.1-0.5-0.3-0.8-0.4c-0.8-0.4-1.5-0.5-1.5-0.5c-0.2,0-0.4,0.1-0.4,0.3c-0.1,0.2,0,0.4,0.2,0.5c0.9,0.4,1.2,0.8,1.5,1.2
			c0.1,0.1,0.1,0.2,0.2,0.2L21,10.6c-0.2,0-0.4,0.1-0.5,0.2c-0.1,0.2,0,0.4,0.2,0.5l2,1.2c-0.3,0-0.6-0.1-0.9-0.1
			c-0.9-0.1-1.5,0.1-1.6,0.1c-0.2,0.1-0.3,0.2-0.3,0.4c0,0.2,0.2,0.4,0.4,0.4c1,0,1.4,0.2,1.8,0.5c0.1,0,0.2,0.1,0.3,0.1l-2.3,0.3
			c-0.2,0-0.4,0.2-0.4,0.4c0,0.2,0.2,0.4,0.4,0.4l2.3,0.3c-0.3,0.1-0.6,0.2-0.9,0.3c-0.9,0.3-1.4,0.7-1.4,0.7
			c-0.2,0.1-0.2,0.3-0.1,0.5c0.1,0.2,0.3,0.3,0.5,0.2c0.5-0.2,0.9-0.3,1.2-0.3c-0.5,0.4-0.9,0.8-1,1c-0.1,0.1-0.2,0.2-0.3,0.4
			c0-0.1-0.1-0.1-0.2-0.1c-0.1,0-0.2,0-0.3,0.1c-0.7,0.5-1.2,1.1-1.6,1.6c-0.1,0.2-0.2,0.3-0.3,0.5c0-0.1-0.1-0.1-0.2-0.1
			c-0.1,0-0.2,0-0.3,0.1c-0.6,0.6-1,1.2-1.3,1.9c-0.1,0.2-0.1,0.3-0.2,0.5c-0.1-0.1-0.1-0.1-0.2-0.1c-0.1,0-0.2,0-0.3,0.1
			c-0.5,0.7-0.8,1.3-1,2c-0.1,0.2-0.1,0.3-0.1,0.5c-0.1-0.1-0.2-0.1-0.3-0.1c-0.1,0-0.2,0.1-0.3,0.2c-0.4,0.7-0.6,1.4-0.7,2.1
			c0,0.2,0,0.3,0,0.5C13.1,28,13,27.9,12.9,28c-0.1,0-0.2,0.1-0.2,0.2c-0.3,0.8-0.4,1.5-0.5,2.2c0,0.2,0,0.3,0,0.5
			c-0.1,0-0.2-0.1-0.3,0c-0.1,0-0.2,0.1-0.2,0.2c-0.2,0.8-0.3,1.6-0.2,2.2c0,0.1,0,0.3,0.1,0.4c0,0-0.1,0-0.1,0
			c-0.1,0-0.2,0.1-0.2,0.2c-0.2,0.8-0.2,1.6-0.1,2.2c0,0.2,0.1,0.3,0.1,0.5c0,0-0.1,0-0.1,0c-0.1,0-0.2,0.1-0.2,0.3
			c-0.1,0.8-0.1,1.6,0.1,2.2c0,0.1,0.1,0.3,0.1,0.4c-0.1,0-0.2,0-0.2,0c-0.1,0.1-0.2,0.2-0.2,0.3c0,0.8,0.1,1.6,0.3,2.2
			c0.1,0.2,0.1,0.4,0.2,0.6c0,0,0,0,0,0c-0.1,0-0.2,0-0.3,0.1c-0.1,0.1-0.1,0.2-0.1,0.3c0.1,0.8,0.4,1.5,0.7,2.1
			c0.1,0.1,0.1,0.2,0.2,0.3c-0.1,0-0.1,0-0.2,0.1c-0.1,0.1-0.1,0.2-0.1,0.3c0.2,0.8,0.5,1.5,0.9,2.1c0.1,0.1,0.2,0.3,0.3,0.4
			c-0.1,0-0.2,0.1-0.2,0.1c-0.1,0.1-0.1,0.2,0,0.3c0.3,0.8,0.6,1.4,1.1,2c0.1,0.1,0.2,0.2,0.3,0.3c-0.1,0-0.1,0.1-0.2,0.1
			c-0.1,0.1-0.1,0.2,0,0.3c0.4,0.7,0.8,1.4,1.3,1.8c0.1,0.1,0.2,0.2,0.3,0.3c-0.1,0-0.1,0.1-0.2,0.2c0,0.1,0,0.2,0,0.3
			c0.4,0.7,1,1.3,1.5,1.7c0.2,0.1,0.3,0.2,0.5,0.3c0,0-0.1,0-0.1,0c-0.1,0-0.2,0.1-0.2,0.2c0,0.1,0,0.2,0.1,0.3
			c0.6,0.6,1.2,1.1,1.7,1.4c0.5,0.3,1,0.5,1.4,0.5c0.4,0.1,0.8,0.1,1.2,0c0,0,0,0,0.1,0c1,0.7,2.1,1.3,3.2,1.8
			c0.9,0.4,1.9,0.7,2.8,0.9c0.2,0,0.4,0.1,0.6,0.1c-0.4-0.1-0.8-0.4-1.1-0.7c0-0.1-0.1-0.1-0.1-0.2c-0.7-0.2-1.3-0.4-2-0.7
			c-1.1-0.4-2.1-1-3.1-1.7c0,0,0,0,0,0c0-0.3,0-0.7-0.1-1c0.7,0.6,1.3,1,2,1.4c0.9,0.5,1.9,0.9,2.9,1.2c0-0.1,0-0.1,0-0.2
			c0-0.2,0.1-0.3,0.1-0.5c-0.9-0.3-1.8-0.6-2.7-1.1c-1.9-1-3.6-2.5-5-4.5c-0.5-0.7-1-1.4-1.4-2.1c1.1-0.5,3.6-1.6,5.8-2.7
			c0,0.1,0,0.2,0.1,0.3c0.2,0.4,0.7,0.6,1,0.6c0.1,0,0.2,0,0.4,0c0.1,0.3,0.4,0.6,0.9,0.8c0.2,0.1,0.3,0.1,0.5,0.1
			c0.1,0.2,0.2,0.4,0.4,0.5c0.4,0.3,1,0.3,1.4,0.2c0.2,0.2,0.4,0.4,0.7,0.4c0.1,0,0.2,0,0.3,0c0.2,0,0.5-0.1,0.7-0.1v3.9
			c0,0.3,0.2,0.5,0.5,0.5c0.3,0,0.5-0.2,0.5-0.5v-4c0.5,0.1,0.9,0,1.2-0.1c0.2-0.1,0.4-0.2,0.5-0.3c0.5,0.1,1,0,1.3-0.4
			c0.1-0.1,0.2-0.3,0.3-0.4c0.7,0,1.1-0.3,1.3-0.5c0.1-0.1,0.2-0.3,0.3-0.4c0.4,0,0.8-0.2,1-0.4c0.1-0.1,0.2-0.3,0.3-0.4
			c1.8,1.4,4.5,2.6,5.7,3.1c-0.4,0.7-0.9,1.4-1.3,2c-1.5,1.9-3.1,3.4-5,4.5c-0.9,0.5-1.8,0.9-2.7,1.1c0.1,0.1,0.1,0.3,0.1,0.5
			c0,0.1,0,0.1,0,0.2c1-0.3,2-0.7,2.9-1.2c0.7-0.4,1.4-0.9,2-1.4c-0.1,0.3-0.1,0.7-0.1,1c0,0,0,0,0,0c-0.3,0.2-1.1,0.8-2.3,1.4
			c-0.9,0.4-1.8,0.8-2.7,1c0,0-0.1,0-0.1,0c0,0.1-0.1,0.1-0.1,0.2c-0.3,0.3-0.7,0.6-1.1,0.7c0.5-0.1,1-0.2,1.5-0.3
			c1-0.3,1.9-0.6,2.8-1.1c1.2-0.6,2-1.2,2.4-1.4c0,0,0,0,0,0c0.3,0.1,0.8,0.1,1.2,0c0.5-0.1,1-0.3,1.4-0.5c0.6-0.3,1.2-0.8,1.7-1.4
			c0.1-0.1,0.1-0.2,0.1-0.3c0-0.1-0.1-0.2-0.2-0.2c0,0,0,0-0.1,0c0.2-0.1,0.4-0.2,0.5-0.4c0.5-0.4,1.1-1,1.5-1.7
			c0.1-0.1,0.1-0.2,0-0.3c0-0.1-0.1-0.1-0.2-0.2c0.1-0.1,0.2-0.2,0.3-0.3c0.5-0.5,0.9-1.1,1.3-1.8c0-0.1,0-0.2,0-0.3
			c-0.1-0.1-0.1-0.1-0.2-0.2c0.1-0.1,0.2-0.2,0.3-0.4c0.4-0.5,0.8-1.2,1.1-2c0-0.1,0-0.2,0-0.3c-0.1-0.1-0.2-0.1-0.3-0.1l0,0
			c0.1-0.1,0.2-0.2,0.3-0.4c0.4-0.6,0.7-1.3,0.9-2.1c0-0.1,0-0.2-0.1-0.3c-0.1-0.1-0.2-0.1-0.3-0.1c0.1-0.1,0.2-0.3,0.3-0.4
			C48.9,44.5,49.1,43.8,49.2,43z M48.8,40.4C48.8,40.4,48.8,40.4,48.8,40.4c0,0.6-0.1,1.1-0.3,1.5c-0.2,0.5-0.4,0.9-0.7,1.2
			c-0.3,0.4-0.7,0.6-0.8,0.7c0,0,0,0,0,0c0,0,0,0,0,0c-0.5-0.6-0.7-1.4-0.7-2.2c0-0.3,0-0.6,0.1-0.8c0,0,0,0,0,0c0,0,0,0,0,0
			c0.4,0.5,0.6,1.2,0.6,1.2c0,0.1,0.1,0.2,0.2,0.2c0.1,0,0.2,0,0.2-0.1C47.9,41.2,48.4,40.7,48.8,40.4
			C48.8,40.4,48.8,40.4,48.8,40.4z M48.7,37.5C48.7,37.5,48.7,37.5,48.7,37.5C48.7,37.5,48.8,37.5,48.7,37.5c0,0.6,0,1.1-0.1,1.6
			c-0.1,0.5-0.3,0.9-0.6,1.3c-0.3,0.4-0.6,0.7-0.7,0.8c0,0,0,0,0,0s0,0,0,0c-0.8-0.9-0.9-2.2-0.8-3c0,0,0,0,0,0c0,0,0,0,0,0
			c0.4,0.5,0.7,1,0.7,1c0,0.1,0.1,0.1,0.2,0.1c0.1,0,0.2-0.1,0.2-0.2C47.9,38.3,48.4,37.8,48.7,37.5z M48.4,34.5
			C48.4,34.5,48.4,34.5,48.4,34.5C48.4,34.5,48.4,34.5,48.4,34.5c0.1,0.6,0.1,1.1,0,1.6c-0.1,0.5-0.2,0.9-0.4,1.3
			c-0.3,0.5-0.6,0.7-0.7,0.8c0,0,0,0,0,0s0,0,0,0c-0.8-0.7-1-2.1-1.1-2.9c0,0,0,0,0,0c0,0,0,0,0,0c0.5,0.4,0.8,0.9,0.8,0.9
			c0.1,0.1,0.1,0.1,0.2,0.1c0.1,0,0.2-0.1,0.2-0.2C47.7,35.4,48.1,34.8,48.4,34.5z M47.9,31.7C47.9,31.7,48,31.7,47.9,31.7
			C48,31.7,48,31.7,47.9,31.7c0.1,0.6,0.2,1.1,0.1,1.6c-0.1,0.5-0.2,0.9-0.4,1.3c-0.2,0.5-0.5,0.7-0.6,0.9c0,0,0,0,0,0c0,0,0,0,0,0
			c-0.7-0.6-1-1.4-1.1-2c-0.1-0.3-0.1-0.5-0.1-0.8c0,0,0,0,0,0c0,0,0,0,0,0c0.5,0.4,0.9,0.9,0.9,0.9c0.1,0.1,0.2,0.1,0.2,0.1
			c0.1,0,0.2-0.1,0.2-0.2C47.3,32.6,47.6,32,47.9,31.7z M25.3,31.9c0,0,0-0.1,0-0.1c0.4-1.9,1.2-3.3,1.7-4c0.4-0.6,0.8-0.9,1-1.1
			c0.1,0,0.1-0.1,0.2-0.1c0.2-0.2,0.2-0.4,0.1-0.6c-0.2-0.2-0.4-0.2-0.6-0.1c0,0-0.1,0.1-0.2,0.2c-0.4,0.3-0.7,0.2-0.7,0.2
			c-0.1-0.1-0.2-0.3-0.2-0.5c0.1-0.4,0.5-1,0.7-1.2c0,0,0,0,0,0c1-1.1,2.5-1.2,2.5-1.2c0,0,0,0,0,0c0,0,0.5,0,1.1,0.2
			c0.8,0.3,1.4,0.8,1.9,1.7c0.6,1.2,1.1,2.3,1.4,3.6c-0.8-0.3-1.5-0.9-1.5-0.9c-0.2-0.2-0.5-0.1-0.7,0.1c-0.1,0.1-0.1,0.2-0.1,0.3
			c0,0.1,0.1,0.2,0.2,0.3c0,0,1.1,0.9,2.4,1.2c0.1,0.4,0.2,0.9,0.3,1.4c-0.4-0.2-0.9-0.3-1.3-0.4c-0.3-0.1-0.5-0.1-0.7-0.2
			c-0.9-0.3-1.6-0.9-1.6-0.9c-0.2-0.2-0.5-0.1-0.7,0.1c-0.2,0.2-0.1,0.5,0.1,0.7c0,0,0.9,0.7,1.8,1.1c0.2,0.1,0.5,0.2,0.8,0.3
			c1.1,0.3,1.6,0.5,1.6,1.1c0,0.1-0.1,0.2-0.1,0.2c-0.4,0.4-1.1,0.4-1.4,0.4c0,0,0,0,0,0h-1c-0.2,0-1.3,0-2.2-0.6
			C27.7,31.1,26.6,31.3,25.3,31.9z M29.3,33.2h-3.2c-0.3,0-0.5-0.1-0.7-0.2c0,0-0.1-0.1-0.1-0.1C26.7,32.3,27.4,32,29.3,33.2z
			 M30.6,38.9v-4.8h2.7c0,0,0.1,0,0.1,0c0.1,0,0.4,0,0.6,0c0.6-0.1,1-0.3,1.3-0.6c0.1-0.1,0.3-0.3,0.3-0.6c0,0,0,0,0-0.1
			c0.1-0.2,0.1-0.5,0-0.8l0-0.1c-0.3-1.9-0.6-4.3-2.1-7.2c-1.2-2.4-3.5-2.3-3.8-2.3c-0.2,0-2,0.1-3.1,1.5c-0.1,0.1-0.8,0.9-1,1.6
			c-0.1,0.6,0.1,1.2,0.6,1.4c0.1,0,0.2,0.1,0.2,0.1c-0.7,0.9-1.6,2.4-2.1,4.7c-0.1,0.4-0.1,0.7,0,1c0,0,0,0.1,0,0.1
			c0.1,0.3,0.2,0.6,0.4,0.8c0.2,0.3,0.6,0.6,1.4,0.6h3.4v4.8v3c-0.9,0-1.6,0.3-2.4,0.9c-1.2,0.8-5.3,1.6-12.1,2.4
			c-0.5-2-0.7-4.1-0.7-6.3c0-2.8,0.4-5.6,1.2-8.2c0.8-2.5,1.9-4.7,3.4-6.6c1.4-1.9,3.1-3.4,5-4.5c1.9-1.1,4-1.6,6.1-1.6
			c2.1,0,4.2,0.5,6.1,1.6c1.9,1,3.6,2.5,5,4.5c1.5,1.9,2.6,4.2,3.4,6.6c0.8,2.6,1.2,5.3,1.2,8.2c0,2.2-0.2,4.3-0.7,6.3
			c-4.2-0.2-9.1-1.8-9.2-1.8c-0.3-0.1-0.7-0.2-0.9-0.3c-1-0.4-1.8-0.6-2.6-0.6c-0.1,0-0.1,0-0.2,0c-0.5-0.2-0.9-0.4-1.6-0.5V38.9z
			 M37.1,17.1c-0.3,0.1-0.6,0.2-1.1,0.3c-0.3,0.1-0.5,0.1-0.8,0.1c-0.6,0-1.1-0.1-1.5-0.4c0,0,0,0,0,0c0,0,0,0,0,0
			c0.2-0.1,0.5-0.3,0.9-0.4c0.4-0.1,0.9-0.1,1.3,0C36.2,16.7,36.7,16.9,37.1,17.1C37.1,17.1,37.1,17.1,37.1,17.1
			C37.1,17.1,37.1,17.1,37.1,17.1z M37.6,18.8C37.7,18.8,37.7,18.8,37.6,18.8C37.7,18.8,37.6,18.8,37.6,18.8
			c-0.2,0.1-0.5,0.2-0.8,0.2c0,0-0.1,0-0.1,0c-0.7,0-1.4-0.3-2.1-0.8c0,0,0,0,0,0c0,0,0,0,0,0c0.3-0.1,0.6-0.2,0.9-0.2
			C36.4,17.9,37.1,18.2,37.6,18.8z M34.4,16.2c-0.3,0.1-0.8,0.3-1.5,0.4c-0.1,0-0.2,0.1-0.2,0.2c0,0.1,0,0.2,0.1,0.3
			c0,0,0.6,0.4,1,0.9c0,0,0,0,0,0c0,0,0,0,0,0h0c-0.7,0-2-0.2-2.9-1.3c0,0,0,0,0,0c0.1-0.1,0.4-0.3,0.8-0.5
			C32.4,15.9,33.3,15.9,34.4,16.2C34.4,16.1,34.4,16.2,34.4,16.2C34.4,16.2,34.4,16.2,34.4,16.2z M31.3,15.7
			c-0.2,0.2-0.7,0.5-1.4,0.7c-0.1,0-0.2,0.1-0.2,0.2c0,0.1,0.1,0.2,0.2,0.2c0,0,0.6,0.2,1.1,0.6c0,0,0,0,0,0c0,0,0,0,0,0
			c-0.2,0-0.4,0-0.6,0c-0.7,0-1.7-0.1-2.4-0.7c0,0,0,0,0,0c0.1-0.2,0.3-0.4,0.7-0.6C29.3,15.8,30.2,15.6,31.3,15.7
			C31.3,15.6,31.3,15.7,31.3,15.7C31.3,15.7,31.3,15.7,31.3,15.7z M28.2,15.7c-0.2,0.2-0.5,0.6-1.3,1c-0.1,0-0.1,0.1-0.1,0.3
			c0,0.1,0.1,0.2,0.2,0.2c0,0,0.6,0.1,1.2,0.4c0,0,0,0,0,0c0,0,0,0,0,0c-0.3,0.1-0.5,0.2-0.8,0.2c-0.2,0-0.5,0.1-0.8,0.1
			c-0.5,0-1-0.1-1.5-0.3c0,0,0,0,0,0c0.1-0.2,0.2-0.5,0.5-0.7C26.2,16.2,27.1,15.9,28.2,15.7C28.2,15.7,28.2,15.7,28.2,15.7
			C28.2,15.7,28.2,15.7,28.2,15.7z M24.2,17.6c-0.1,0.1-0.1,0.2-0.1,0.3c0,0.1,0.1,0.2,0.2,0.2h0c0,0,0.3,0,0.6,0
			c0.2,0,0.5,0.1,0.7,0.1c0,0,0,0,0,0c0,0,0,0,0,0c-0.3,0.1-0.5,0.2-0.8,0.3c-0.6,0.2-1.1,0.3-1.5,0.3c-0.4,0-0.6-0.1-0.9-0.1
			c0,0,0,0,0,0c0.1-0.5,0.6-1.8,2.8-2.5c0,0,0,0,0,0c0,0,0,0,0,0C25.1,16.6,24.8,17.1,24.2,17.6z M46.4,30.7
			c0.1-0.9,0.4-1.5,0.6-1.9c0,0,0,0,0,0c0,0,0,0,0,0c0.2,0.5,0.3,1.1,0.3,1.5c0,0.5,0,0.9-0.2,1.4c-0.2,0.5-0.4,0.8-0.5,0.9
			c0,0,0,0,0,0c0,0,0,0,0,0c-0.6-0.4-1.1-1-1.4-1.8C45.1,30.6,45,30.3,45,30c0,0,0,0,0,0c0,0,0,0,0,0c0.5,0.3,1,0.8,1,0.8
			c0.1,0.1,0.2,0.1,0.3,0.1C46.4,30.9,46.4,30.8,46.4,30.7z M45.5,28c0-0.9,0.2-1.5,0.4-1.9c0,0,0,0,0,0c0,0,0,0,0,0
			c0.2,0.5,0.4,1,0.4,1.5c0.1,0.5,0.1,0.9,0,1.4c-0.1,0.5-0.3,0.8-0.4,1c0,0,0,0,0,0c0,0,0,0,0,0c-0.7-0.3-1.2-0.9-1.6-1.7
			C44.2,28,44,27.8,44,27.5c0,0,0,0,0,0c0,0,0,0,0,0c0.6,0.3,1.1,0.7,1.1,0.7c0.1,0.1,0.2,0.1,0.3,0h0C45.4,28.2,45.5,28.1,45.5,28z
			 M44.1,25.7L44.1,25.7c0.1-0.1,0.1-0.2,0.1-0.2c-0.1-0.9,0-1.5,0.2-1.9c0,0,0,0,0,0c0,0,0,0,0,0c0.3,0.5,0.5,1,0.6,1.4
			c0.1,0.5,0.2,0.9,0.1,1.4c-0.1,0.5-0.2,0.9-0.3,1c0,0,0,0,0,0s0,0,0,0c-0.7-0.3-1.4-0.8-1.8-1.5c-0.2-0.2-0.3-0.5-0.4-0.8
			c0,0,0,0,0,0c0,0,0,0,0,0c0.6,0.2,1.2,0.6,1.2,0.6C43.9,25.7,44,25.8,44.1,25.7z M42.3,23.4c0.1,0.1,0.2,0.1,0.3,0
			c0.1-0.1,0.1-0.2,0.1-0.3c-0.2-0.8-0.2-1.5-0.1-1.9c0,0,0,0,0,0c0,0,0,0,0,0c0.4,0.4,0.6,0.9,0.8,1.3c0.2,0.4,0.3,0.9,0.3,1.3
			c0,0.5-0.1,0.9-0.1,1c0,0,0,0,0,0l0,0c-0.7-0.1-1.4-0.5-2-1.2c-0.2-0.2-0.4-0.5-0.6-0.7c0,0,0,0,0,0c0,0,0,0,0,0
			C41.7,23,42.3,23.4,42.3,23.4z M40.4,21.3c0.1,0,0.2,0,0.3-0.1c0.1-0.1,0.1-0.2,0-0.3c-0.4-0.8-0.5-1.5-0.5-1.9c0,0,0,0,0,0
			c0,0,0,0,0,0c0.4,0.4,0.8,0.8,1,1.2c0.3,0.4,0.5,0.8,0.6,1.3C42,22,42,22.4,42,22.5c0,0,0,0,0,0c0,0,0,0,0,0
			c-0.8,0-1.6-0.4-2.1-0.8c-0.2-0.2-0.5-0.4-0.7-0.6c0,0,0,0,0,0c0,0,0,0,0,0c0,0,0.1,0,0.1,0C39.9,21,40.4,21.3,40.4,21.3z
			 M39.7,19.4c0.2,0.5,0.2,1,0.2,1.2c0,0,0,0,0,0c0,0-0.1,0-0.1,0c-1,0-2.2-0.7-2.8-1.1c0,0,0,0,0,0c0,0,0,0,0,0
			c0.6-0.1,1.2,0,1.2,0c0.1,0,0.2,0,0.3-0.1c0.1-0.1,0-0.2,0-0.3c-0.4-0.5-0.6-1.1-0.8-1.5c0,0,0,0,0,0c0,0,0,0,0,0
			C38.7,17.9,39.4,18.5,39.7,19.4z M21.5,16.4c0,0,0.1,0,0.1-0.1c0.6-0.2,1.2-0.3,1.4-0.4c0.7-0.1,1.1-0.4,1.1-0.4
			c0.1,0,0.1-0.1,0.1-0.2c0-0.1-0.1-0.1-0.1-0.1l-2.9-0.4l2.9-0.4c0.1,0,0.1-0.1,0.1-0.2c0-0.1-0.1-0.2-0.1-0.2c0,0-0.6-0.1-1.3-0.4
			c-0.2-0.1-0.4-0.2-0.5-0.3c-0.3-0.1-0.5-0.3-0.8-0.4c0.1,0,0.1,0,0.2,0c0.6,0,1.2,0.1,1.5,0.2c0.7,0.1,1.2,0,1.2,0
			c0.1,0,0.1-0.1,0.1-0.1c0-0.1,0-0.1-0.1-0.2L22,11.4l2.8,0.7c0.1,0,0.2,0,0.2-0.1c0-0.1,0-0.2-0.1-0.2c0,0-0.5-0.3-1-0.8
			c-0.1-0.1-0.3-0.3-0.4-0.4c-0.2-0.2-0.4-0.4-0.6-0.7c0,0,0.1,0,0.1,0.1c0.6,0.3,1.1,0.6,1.3,0.7c0.6,0.4,1.1,0.5,1.1,0.5
			c0.1,0,0.1,0,0.2-0.1c0-0.1,0-0.1,0-0.2l-1.8-2.3l2.3,1.7c0.1,0,0.2,0,0.2,0c0.1-0.1,0.1-0.2,0-0.2c0-0.1-0.4-0.5-0.6-1.2
			c-0.1-0.2-0.1-0.4-0.2-0.5c-0.1-0.3-0.2-0.5-0.3-0.9c0,0,0.1,0.1,0.1,0.1c0.4,0.5,0.8,0.9,0.9,1.2c0.4,0.5,0.8,0.8,0.8,0.9
			c0.1,0,0.1,0,0.2,0c0.1,0,0.1-0.1,0.1-0.2l-0.7-2.8l1.5,2.5c0,0.1,0.1,0.1,0.2,0.1c0.1,0,0.1-0.1,0.1-0.2c0,0-0.1-0.6-0.1-1.3
			c0-0.2,0-0.4,0-0.6c0-0.3,0.1-0.6,0-0.9c0,0,0,0.1,0.1,0.1c0.2,0.6,0.3,1.2,0.4,1.4c0.1,0.6,0.4,1.1,0.4,1.1C29.4,9,29.5,9,29.6,9
			c0.1,0,0.1-0.1,0.1-0.1L30.1,6l0.4,2.9c0,0.1,0.1,0.1,0.2,0.1c0.1,0,0.2-0.1,0.2-0.1c0,0,0.1-0.6,0.4-1.3c0.1-0.2,0.2-0.4,0.3-0.5
			c0.1-0.3,0.3-0.5,0.4-0.8c0,0.1,0,0.1,0,0.2c0,0.6-0.1,1.2-0.2,1.5c-0.1,0.7,0,1.2,0,1.2c0,0.1,0.1,0.1,0.1,0.1
			c0.1,0,0.1,0,0.2-0.1l1.5-2.5l-0.7,2.8c0,0.1,0,0.2,0.1,0.2c0.1,0,0.2,0,0.2-0.1c0-0.1,0.4-0.6,0.8-1c0.1-0.1,0.3-0.3,0.4-0.4
			C34.6,8,34.8,7.8,35,7.6c0,0,0,0.1-0.1,0.1c-0.3,0.6-0.6,1.1-0.7,1.3c-0.4,0.6-0.5,1.1-0.5,1.1c0,0.1,0,0.1,0.1,0.2
			c0.1,0,0.1,0,0.2,0l2.3-1.7l-1.7,2.3c0,0.1,0,0.2,0,0.2c0.1,0.1,0.2,0.1,0.2,0c0,0,0.5-0.4,1.2-0.6c0.2-0.1,0.4-0.1,0.5-0.2
			c0.3-0.1,0.5-0.2,0.9-0.3c0,0-0.1,0.1-0.1,0.1c-0.5,0.4-0.9,0.8-1.2,0.9c-0.5,0.4-0.9,0.8-0.9,0.8c0,0.1,0,0.1,0,0.2
			c0,0.1,0.1,0.1,0.2,0.1l2.8-0.7l-2.5,1.5c-0.1,0-0.1,0.1-0.1,0.2c0,0.1,0.1,0.1,0.2,0.1c0.1,0,0.7-0.1,1.3-0.1c0.2,0,0.4,0,0.6,0
			c0.3,0,0.6,0.1,0.9,0c0,0-0.1,0-0.1,0.1c-0.6,0.2-1.2,0.3-1.4,0.4C36.4,13.8,36,14,36,14.1c-0.1,0-0.1,0.1-0.1,0.2
			c0,0.1,0.1,0.1,0.1,0.1l2.9,0.4L36,15.2c-0.1,0-0.1,0.1-0.1,0.2c0,0.1,0.1,0.2,0.1,0.2c0.1,0,0.7,0.1,1.3,0.4
			c0.2,0.1,0.3,0.2,0.5,0.3c0.3,0.1,0.5,0.3,0.8,0.4c-0.1,0-0.1,0-0.2,0c-0.6,0-1.2-0.1-1.5-0.2l-0.1,0c-0.5-0.2-1.1-0.3-1.6-0.4
			c0,0,0,0,0,0c0-0.1-0.1-0.2-0.2-0.2c-0.8-0.3-1.5-0.4-2.2-0.4c-0.2,0-0.5,0-0.7,0c0,0,0-0.1,0-0.1c0-0.1-0.1-0.2-0.3-0.2
			c-0.8-0.1-1.6-0.1-2.2,0c-0.3,0.1-0.5,0.1-0.7,0.2c0-0.1,0-0.1-0.1-0.2c-0.1-0.1-0.2-0.1-0.3-0.1c-0.8,0.1-1.6,0.2-2.2,0.5
			c-0.2,0.1-0.3,0.2-0.5,0.2c0-0.1-0.1-0.2-0.1-0.2c-0.1-0.1-0.2-0.1-0.3-0.1c-0.8,0.2-1.5,0.5-2.1,0.9l0,0c-0.2,0-0.3,0-0.4,0
			c-0.1,0-0.5,0-0.6,0C22.2,16.4,21.9,16.4,21.5,16.4z M22.3,17.2C22.3,17.2,22.3,17.2,22.3,17.2C22.3,17.2,22.3,17.3,22.3,17.2
			c0,0.5-0.1,1.1-0.6,1.9c-0.1,0.1-0.1,0.2,0,0.3c0.1,0.1,0.2,0.1,0.2,0.1c0,0,0.6-0.1,1.3-0.1c0,0,0,0,0,0c0,0,0,0,0,0
			c-0.5,0.4-1.6,1.1-2.8,1.1c0,0-0.1,0-0.1,0c0,0,0,0,0,0C20.3,20,20.4,18.6,22.3,17.2z M18.3,21.5c0.1-0.4,0.3-0.9,0.6-1.3
			c0.3-0.4,0.6-0.8,1-1.2c0,0,0,0,0,0c0,0,0,0,0,0c0,0.4-0.1,1.1-0.5,1.9c0,0.1,0,0.2,0,0.3c0.1,0.1,0.2,0.1,0.3,0.1
			c0,0,0.6-0.2,1.2-0.2c0,0,0,0,0,0c0,0,0,0,0,0c-0.2,0.2-0.5,0.4-0.7,0.6c-0.5,0.4-1.2,0.8-1.9,0.8c0,0-0.1,0-0.1,0c0,0,0,0,0,0
			C18.3,22.4,18.2,22,18.3,21.5z M17.7,21.1C17.7,21.1,17.7,21.1,17.7,21.1C17.7,21.1,17.7,21.1,17.7,21.1c0.1,0.4,0.2,1.1-0.1,2
			c0,0.1,0,0.2,0.1,0.3c0.1,0.1,0.2,0.1,0.3,0c0,0,0.5-0.4,1.2-0.4c0,0,0,0,0,0c0,0,0,0,0,0c-0.4,0.6-1.4,1.7-2.5,1.9l0,0
			c0,0,0,0,0,0C16.5,24.3,16.2,22.9,17.7,21.1z M15.2,24.9c0.1-0.5,0.4-0.9,0.7-1.4c0,0,0,0,0,0c0,0,0,0,0,0c0.1,0.4,0.3,1.1,0.1,2
			c0,0.1,0,0.2,0.1,0.3c0.1,0.1,0.2,0,0.3,0c0,0,0.5-0.5,1.2-0.6c0,0,0,0,0,0c0,0,0,0,0,0c-0.1,0.2-0.3,0.5-0.5,0.8
			c-0.5,0.7-1.1,1.2-1.9,1.4c0,0,0,0,0,0s0,0,0,0c-0.1-0.1-0.2-0.5-0.2-1C14.9,25.9,15,25.4,15.2,24.9z M13.8,27.6
			c0.1-0.5,0.2-1,0.5-1.5c0,0,0,0,0,0h0c0,0,0,0,0,0c0.2,0.4,0.4,1.1,0.4,1.9c0,0.1,0,0.2,0.1,0.2c0.1,0,0.2,0,0.3,0
			c0,0,0.5-0.5,1.1-0.7c0,0,0,0,0,0c0,0,0,0,0,0c-0.1,0.2-0.2,0.5-0.3,0.7c-0.4,0.8-1,1.3-1.7,1.7c0,0,0,0,0,0c0,0,0,0,0,0
			c-0.1-0.2-0.3-0.5-0.4-1C13.7,28.5,13.7,28.1,13.8,27.6z M13,28.8C13,28.8,13,28.8,13,28.8C13.1,28.8,13.1,28.8,13,28.8
			c0.3,0.4,0.6,1,0.7,1.9c0,0.1,0.1,0.2,0.2,0.2c0.1,0,0.2,0,0.3-0.1c0,0,0.4-0.5,1-0.9c0,0,0,0,0,0c0,0,0,0,0,0
			c0,0.3-0.1,0.5-0.2,0.8c-0.3,0.8-0.8,1.5-1.5,1.9c0,0,0,0,0,0c0,0,0,0,0,0c-0.1-0.1-0.3-0.4-0.5-0.9c-0.1-0.4-0.2-0.9-0.2-1.4
			C12.8,29.9,12.9,29.3,13,28.8z M12.2,31.7C12.2,31.7,12.2,31.7,12.2,31.7C12.2,31.6,12.2,31.7,12.2,31.7c0.3,0.3,0.7,0.9,0.9,1.8
			c0,0.1,0.1,0.2,0.2,0.2c0.1,0,0.2,0,0.2-0.1c0,0,0.4-0.6,0.9-1c0,0,0,0,0,0c0,0,0,0,0,0c0,0.3,0,0.5-0.1,0.8
			c-0.2,0.8-0.6,1.5-1.2,2.1c0,0,0,0,0,0c0,0,0,0,0,0c-0.1-0.1-0.4-0.4-0.6-0.8c-0.2-0.4-0.3-0.8-0.4-1.3
			C12.1,32.7,12.1,32.2,12.2,31.7z M11.8,34.5C11.8,34.5,11.8,34.5,11.8,34.5C11.8,34.5,11.8,34.5,11.8,34.5c0.3,0.3,0.8,0.9,1,1.7
			c0,0.1,0.1,0.2,0.2,0.2c0.1,0,0.2,0,0.2-0.1c0,0,0.3-0.6,0.8-1c0,0,0,0,0,0c0,0,0,0,0,0c0,0.3,0,0.6-0.1,0.9
			c-0.1,0.9-0.5,1.6-1,2.1c0,0,0,0,0,0s0,0,0,0c-0.1-0.1-0.4-0.4-0.7-0.8c-0.2-0.4-0.4-0.8-0.4-1.3C11.7,35.6,11.7,35.1,11.8,34.5z
			 M11.5,37.5C11.5,37.5,11.5,37.5,11.5,37.5C11.5,37.5,11.5,37.5,11.5,37.5c0.1,0,0.2,0.1,0.2,0.2c0.3,0.3,0.6,0.8,0.9,1.5
			c0,0.1,0.1,0.2,0.3,0.2c0.1,0,0.2-0.1,0.2-0.2v0c0,0,0.1-0.6,0.6-1.1c0,0,0,0,0,0c0,0,0,0,0,0c0.1,0.3,0.1,0.9,0,1.4
			c-0.1,0.7-0.4,1.2-0.8,1.7c0,0,0,0,0,0c0,0,0,0,0,0C12.4,40.8,11.4,39.8,11.5,37.5z M11.4,40.5C11.4,40.5,11.4,40.5,11.4,40.5
			c0.1,0.1,0.2,0.1,0.2,0.2c0.3,0.3,0.7,0.7,1,1.4c0,0.1,0.1,0.1,0.2,0.1l0,0h0c0.1,0,0.2-0.1,0.2-0.2c0,0,0.3-0.6,0.7-1.2
			c0,0,0,0,0,0c0,0,0,0,0,0c0.1,0.6,0.2,1.8-0.7,3.1c0,0,0,0,0,0s0,0,0,0C12.6,43.7,11.5,42.8,11.4,40.5
			C11.4,40.5,11.4,40.5,11.4,40.5z M11.6,43.5C11.6,43.5,11.6,43.5,11.6,43.5C11.6,43.5,11.6,43.5,11.6,43.5c0.4,0.2,1,0.6,1.5,1.3
			c0.1,0.1,0.2,0.1,0.2,0.1c0.1,0,0.2-0.1,0.2-0.2v0l0,0l0,0c0,0,0.2-0.7,0.5-1.3c0,0,0,0,0,0c0,0,0,0,0,0c0.1,0.2,0.2,0.5,0.3,0.8
			c0.2,0.8,0,1.6-0.4,2.4c0,0,0,0,0,0c0,0,0,0,0,0c-0.1-0.1-0.5-0.2-0.9-0.6c-0.3-0.3-0.6-0.7-0.9-1.1
			C11.9,44.6,11.7,44.1,11.6,43.5z M12.2,46.3C12.2,46.3,12.2,46.3,12.2,46.3C12.3,46.3,12.3,46.3,12.2,46.3c0.1,0,0.2,0,0.3,0.1
			c0.4,0.2,0.9,0.5,1.3,1.1c0.1,0.1,0.2,0.1,0.3,0.1c0.1,0,0.2-0.1,0.2-0.2c0,0,0.1-0.7,0.4-1.3c0,0,0,0,0,0h0c0,0,0,0,0,0
			c0.3,0.6,0.7,1.9,0.1,3.1c0,0,0,0,0,0c0,0,0,0,0,0C14.2,49.1,12.9,48.5,12.2,46.3z M13.9,50.5c-0.3-0.4-0.6-0.8-0.8-1.3
			c0,0,0,0,0,0c0,0,0,0,0,0c0.1,0,0.2,0.1,0.2,0.1c0.4,0.1,0.9,0.4,1.4,0.9c0.1,0.1,0.2,0.1,0.3,0.1c0.1,0,0.2-0.1,0.2-0.2
			c0,0,0-0.7,0.2-1.3c0,0,0,0,0,0c0,0,0,0,0,0c0.1,0.2,0.3,0.5,0.4,0.8c0.3,0.8,0.3,1.6,0.1,2.3c0,0,0,0,0,0l0,0
			c-0.1,0-0.5-0.1-1-0.4C14.6,51.2,14.3,50.9,13.9,50.5z M14.4,51.9C14.4,51.9,14.4,51.9,14.4,51.9C14.4,51.8,14.4,51.8,14.4,51.9
			c0.5,0,1.1,0.3,1.8,0.8c0.1,0.1,0.2,0.1,0.3,0c0.1,0,0.1-0.1,0.1-0.2c0,0-0.1-0.6,0.1-1.3c0,0,0,0,0,0c0,0,0,0,0,0
			c0.2,0.2,0.3,0.5,0.4,0.7c0.3,0.5,0.6,1.4,0.4,2.2c0,0,0,0,0,0h0c-0.2,0-0.6-0.1-1-0.3c-0.4-0.2-0.8-0.4-1.1-0.8
			C15,52.8,14.6,52.4,14.4,51.9z M20,56.8c0,0-0.2-0.6-0.3-1.2c0,0,0,0,0,0c0,0,0,0,0,0c0.6,0.5,1.5,1.5,1.5,2.8c0,0,0,0,0,0
			c-0.1,0-0.2,0-0.4,0c-0.2,0-0.4,0-0.6-0.1c-0.8-0.2-1.7-0.6-2.5-1.4c0,0,0,0,0,0c0,0,0,0,0,0c0.4-0.1,1.1-0.1,2,0.3
			c0.1,0,0.2,0,0.3-0.1C20,57,20,56.8,20,56.8z M17.8,55c0.1,0.1,0.2,0.1,0.3,0c0.1-0.1,0.1-0.2,0.1-0.3c0,0-0.2-0.6-0.1-1.3
			c0,0,0,0,0,0c0,0,0,0,0,0c0.5,0.6,1.2,1.7,1.2,2.9c0,0,0,0,0,0c0,0-0.1,0-0.1,0c-0.2,0-0.5,0-0.9-0.2c-0.4-0.1-0.8-0.4-1.2-0.7
			c-0.4-0.3-0.7-0.7-1.1-1.1c0,0,0,0,0,0c0,0,0,0,0,0C16.3,54.4,17,54.5,17.8,55z M27.3,48.6c-0.1,0.1-0.2,0.1-0.2,0.2
			c-0.5,0.4-0.8,0.8-1,1.2c-0.1,0-0.1,0-0.2,0c-0.4-0.1-0.4-0.3-0.4-0.4c0-0.2,0.1-0.4,0.4-0.7c0.4-0.3,0.7-0.5,0.9-0.5
			c0.1,0,0.2,0,0.3,0.1C27.2,48.4,27.3,48.5,27.3,48.6C27.3,48.5,27.3,48.6,27.3,48.6z M27.8,50.6c-0.2,0-0.6,0.1-0.8-0.1
			c-0.1,0-0.1-0.1-0.1-0.2c0-0.3,0.4-0.7,0.7-0.9c0.4-0.3,0.7-0.5,0.9-0.5c0.1,0,0.2,0,0.3,0.1c0.1,0.1,0.1,0.1,0.1,0.2
			c0,0.1-0.1,0.3-0.3,0.4C28.2,49.9,28,50.3,27.8,50.6z M29.9,50.7c-0.2,0.1-0.7,0.5-1.1,0.4c-0.1,0-0.2,0-0.2-0.1
			c0.2-0.4,0.6-0.6,0.9-0.8c0.5-0.3,0.7-0.1,0.7-0.1c0.1,0.1,0.1,0.2,0.1,0.2C30.2,50.4,30,50.6,29.9,50.7
			C29.9,50.7,29.9,50.7,29.9,50.7z M25.5,48c-0.1,0.1-0.1,0.1-0.2,0.2c-0.2,0.2-0.5,0.5-0.6,0.9c-0.1,0-0.1,0-0.2,0
			c-0.3,0-0.4-0.1-0.4-0.2c0,0-0.1-0.2,0.1-0.4c0.2-0.3,0.7-0.5,1-0.5c0,0,0.1,0,0.1,0c0,0,0,0,0,0C25.4,48,25.5,48,25.5,48z
			 M36,48.5c-0.1,0.1-0.3,0.2-0.5,0.2c-0.3-0.5-1.2-1.5-2.3-2.1c-0.1,0-0.2-0.1-0.3,0c-0.1,0-0.2,0.1-0.2,0.2c0,0.1-0.1,0.2,0,0.3
			c0,0.1,0.1,0.2,0.2,0.2c0.9,0.5,1.7,1.4,2,1.8c0,0.1-0.1,0.1-0.1,0.2c-0.2,0.2-0.4,0.3-0.7,0.3c-0.1-0.2-0.3-0.5-0.5-0.8
			c-0.3-0.4-1-0.9-1.1-0.9c-0.1-0.1-0.2-0.1-0.3-0.1c-0.1,0-0.2,0.1-0.3,0.2c-0.1,0.1-0.1,0.2-0.1,0.3c0,0.1,0.1,0.2,0.2,0.3
			c0.2,0.1,0.7,0.5,0.9,0.8c0.3,0.3,0.4,0.5,0.4,0.6c0,0.1-0.1,0.2-0.2,0.3c-0.1,0.1-0.3,0.2-0.5,0.2c-0.1-0.2-0.3-0.7-0.7-1.1
			c-0.1-0.2-0.4-0.2-0.6,0c-0.1,0.1-0.1,0.2-0.1,0.3c0,0.1,0,0.2,0.1,0.3c0.3,0.3,0.5,0.6,0.6,0.8c-0.1,0-0.1,0.1-0.2,0.1
			c-0.2,0.1-0.4,0.1-0.7,0.1c0.1-0.2,0.2-0.3,0.2-0.5c0-0.2,0-0.6-0.4-0.9c-0.2-0.2-0.5-0.3-1-0.3c0-0.2-0.2-0.5-0.4-0.7
			c-0.4-0.3-0.8-0.4-1.3-0.3l0,0c-0.1-0.2-0.2-0.4-0.6-0.6c-0.3-0.2-0.7-0.2-1.1-0.1c-0.3-0.3-0.8-0.3-0.9-0.3
			c-0.5-0.1-1.2,0.2-1.7,0.6c-2.3,1.2-5.3,2.6-6.5,3.1c-0.6-1.2-1.2-2.5-1.6-3.8c-0.1-0.4-0.2-0.7-0.3-1.1c3.4-0.4,6.2-0.8,8.2-1.2
			c2.1-0.4,3.5-0.8,4.1-1.3c0.8-0.6,1.3-0.8,2.1-0.8c0.2,0,0.3,0,0.5,0.1c-0.1,0.1-0.3,0.1-0.4,0.2c-0.3,0.2-0.5,0.4-0.7,0.5
			c-0.2,0.1-0.3,0.3-0.5,0.4c-0.2,0.1-0.4,0.2-0.6,0.3c-0.5,0.2-0.9,0.4-1,0.7c-0.1,0.3-0.1,0.7,0.2,1c0.4,0.5,1,0.5,1.4,0.5
			c0.5,0,1.2-0.2,1.7-0.5c0.2-0.1,0.3-0.2,0.5-0.3c0.2-0.1,0.4-0.3,0.5-0.3c0,0,0,0,0,0c0.4-0.1,0.9-0.1,1.4,0.1
			c0.5,0.2,1,0.5,1.4,0.8c1.1,0.7,1.9,1.6,2.1,1.9C36.2,48.3,36.1,48.4,36,48.5z M37.5,48.2c-0.3-0.2-0.6-0.5-0.7-0.6c0,0,0,0,0,0
			l0,0c0,0-0.1-0.1-0.1-0.1c-0.4-0.4-1.1-1.3-2.2-1.9c-0.7-0.5-2.1-1.4-3.5-1c-0.3,0.1-0.5,0.2-0.8,0.4c-0.1,0.1-0.3,0.2-0.4,0.3
			c-0.4,0.2-1,0.4-1.3,0.4c-0.4,0-0.6,0-0.7-0.1c-0.1-0.1-0.1-0.2-0.1-0.2c0.1-0.1,0.4-0.2,0.6-0.3c0.2-0.1,0.5-0.2,0.6-0.3
			c0.3-0.2,0.4-0.3,0.6-0.5c0.2-0.1,0.3-0.3,0.6-0.5c0.4-0.3,0.8-0.3,1.5-0.3l0,0c0.1,0,0.2,0,0.3,0c0.1,0,0.2,0,0.3,0
			c0.7,0,1.4,0.2,2.3,0.6c0.3,0.1,0.6,0.2,1,0.3c0.1,0,1.4,0.4,3.2,0.9c1.6,0.4,3.9,0.8,6,1c-0.1,0.4-0.2,0.7-0.3,1
			c-0.5,1.4-1,2.7-1.7,4C41.8,50.6,39.2,49.5,37.5,48.2z M42.5,56.8c-1,1-1.9,1.3-2.5,1.4c-0.2,0-0.4,0.1-0.6,0.1
			c-0.2,0-0.3,0-0.4,0c0,0,0,0,0,0c0-0.7,0.2-1.5,0.8-2.2c0.2-0.2,0.4-0.4,0.6-0.6c0,0,0,0,0,0c0,0,0,0,0,0
			c-0.1,0.6-0.3,1.2-0.3,1.2c0,0.1,0,0.2,0.1,0.3c0.1,0.1,0.2,0.1,0.3,0.1C41.4,56.8,42.1,56.8,42.5,56.8
			C42.5,56.8,42.5,56.8,42.5,56.8C42.5,56.8,42.5,56.8,42.5,56.8z M44.4,54.4c-0.3,0.5-0.7,0.8-1.1,1.1c-0.4,0.3-0.8,0.5-1.2,0.7
			c-0.4,0.1-0.7,0.2-0.9,0.2c0,0-0.1,0-0.1,0c0,0,0,0,0,0c-0.1-0.7,0.2-1.5,0.6-2.2c0.1-0.2,0.3-0.5,0.5-0.7c0,0,0,0,0,0
			c0,0,0,0,0,0c0.1,0.6-0.1,1.3-0.1,1.3c0,0.1,0,0.2,0.1,0.2c0.1,0.1,0.2,0.1,0.3,0C43.2,54.5,43.9,54.4,44.4,54.4
			C44.3,54.4,44.4,54.4,44.4,54.4C44.4,54.4,44.4,54.4,44.4,54.4z M44.9,53.1c-0.4,0.3-0.7,0.6-1.1,0.8c-0.5,0.2-0.9,0.3-1,0.3h0
			c0,0,0,0,0,0c-0.1-0.7,0-1.5,0.4-2.3c0.1-0.2,0.3-0.5,0.4-0.7c0,0,0,0,0,0c0,0,0,0,0,0c0.1,0.6,0.1,1.3,0.1,1.3
			c0,0.1,0,0.2,0.1,0.2c0.1,0,0.2,0,0.3,0c0.7-0.5,1.4-0.7,1.8-0.8c0,0,0,0,0,0c0,0,0,0,0,0C45.6,52.4,45.3,52.8,44.9,53.1z
			 M46.3,50.5c-0.3,0.4-0.7,0.7-1,0.9c-0.4,0.3-0.8,0.3-1,0.4l0,0c0,0,0,0,0,0C44,51,44,50.3,44.3,49.4c0.1-0.2,0.2-0.5,0.3-0.7
			c0,0,0,0,0,0c0,0,0,0,0,0c0.2,0.6,0.2,1.3,0.2,1.3c0,0.1,0.1,0.2,0.2,0.2c0.1,0,0.2,0,0.3-0.1h0c0.5-0.6,1.1-0.9,1.4-1
			c0.1,0,0.2-0.1,0.3-0.1c0,0,0,0,0,0c0,0,0,0,0,0C46.9,49.6,46.6,50.1,46.3,50.5z M47.3,47.7c-0.3,0.4-0.6,0.8-0.9,1
			c-0.4,0.3-0.8,0.4-1,0.5c0,0,0,0,0,0c0,0,0,0,0,0c-0.3-0.8-0.2-1.7-0.1-2.3c0.1-0.3,0.2-0.5,0.3-0.8c0,0,0,0,0,0l0,0c0,0,0,0,0,0
			c0.3,0.6,0.4,1.3,0.4,1.3c0,0.1,0.1,0.2,0.2,0.2c0.1,0,0.2,0,0.3-0.1c0.5-0.7,1.2-1,1.6-1.2c0,0,0,0,0,0c0,0,0,0,0,0
			C47.8,46.9,47.6,47.3,47.3,47.7z M48.1,44.9c-0.2,0.4-0.5,0.8-0.8,1.1c-0.4,0.3-0.7,0.5-0.9,0.6c0,0,0,0,0,0c0,0,0,0,0,0
			c-0.4-0.7-0.5-1.5-0.4-2.4c0-0.3,0.1-0.6,0.2-0.8c0,0,0,0,0,0c0,0,0,0,0,0c0.3,0.6,0.5,1.3,0.5,1.3c0,0.1,0.1,0.2,0.2,0.2
			c0.1,0,0.2,0,0.2-0.1c0.5-0.7,1-1.1,1.4-1.4c0,0,0,0,0,0c0,0,0,0,0,0C48.4,44,48.3,44.5,48.1,44.9z"/>
		<path class="st4" d="M35.3,16c0.5,0,1.1,0.1,1.6,0.4l0.1,0c0.3,0.1,0.9,0.1,1.5,0.2c0.1,0,0.1,0,0.2,0c-0.3-0.1-0.6-0.2-0.8-0.4
			c-0.2-0.1-0.3-0.2-0.5-0.3c-0.6-0.3-1.2-0.4-1.3-0.4c-0.1,0-0.1-0.1-0.1-0.2c0-0.1,0.1-0.2,0.1-0.2l2.9-0.4L36,14.4
			c-0.1,0-0.1-0.1-0.1-0.1c0-0.1,0-0.1,0.1-0.2c0,0,0.5-0.3,1.1-0.4c0.3-0.1,0.8-0.2,1.4-0.4c0,0,0.1,0,0.1-0.1c-0.3,0-0.6,0-0.9,0
			c-0.2,0-0.4,0-0.6,0c-0.7,0-1.3,0.1-1.3,0.1c-0.1,0-0.2,0-0.2-0.1c0-0.1,0-0.2,0.1-0.2l2.5-1.5l-2.8,0.7c-0.1,0-0.1,0-0.2-0.1
			c0-0.1,0-0.1,0-0.2c0,0,0.3-0.5,0.9-0.8c0.2-0.2,0.7-0.5,1.2-0.9c0,0,0.1-0.1,0.1-0.1c-0.3,0.2-0.6,0.2-0.9,0.3
			c-0.2,0.1-0.3,0.1-0.5,0.2c-0.7,0.3-1.2,0.6-1.2,0.6c-0.1,0-0.2,0-0.2,0c-0.1-0.1-0.1-0.2,0-0.2l1.7-2.3L34,10.3
			c-0.1,0-0.1,0-0.2,0c-0.1,0-0.1-0.1-0.1-0.2c0,0,0.1-0.6,0.5-1.1c0.2-0.2,0.5-0.7,0.7-1.3c0,0,0-0.1,0.1-0.1
			c-0.2,0.3-0.4,0.4-0.7,0.6c-0.1,0.1-0.3,0.2-0.4,0.4c-0.5,0.5-0.8,1-0.8,1c0,0.1-0.1,0.1-0.2,0.1c-0.1,0-0.1-0.1-0.1-0.2l0.7-2.8
			L32,9.1c0,0.1-0.1,0.1-0.2,0.1c-0.1,0-0.1-0.1-0.1-0.1c0,0-0.1-0.6,0-1.2c0-0.3,0.1-0.9,0.2-1.5c0-0.1,0-0.1,0-0.2
			c-0.1,0.3-0.2,0.6-0.4,0.8c-0.1,0.2-0.2,0.3-0.3,0.5c-0.3,0.6-0.4,1.3-0.4,1.3c0,0.1-0.1,0.1-0.2,0.1c-0.1,0-0.2-0.1-0.2-0.1
			L30.1,6l-0.4,2.9c0,0.1-0.1,0.1-0.1,0.1c-0.1,0-0.1,0-0.2-0.1c0,0-0.3-0.5-0.4-1.1c-0.1-0.3-0.2-0.8-0.4-1.4c0,0,0-0.1-0.1-0.1
			c0,0.3,0,0.6,0,0.9c0,0.2,0,0.4,0,0.6c0,0.7,0.1,1.3,0.1,1.3c0,0.1,0,0.2-0.1,0.2c-0.1,0-0.2,0-0.2-0.1l-1.5-2.5l0.7,2.8
			c0,0.1,0,0.1-0.1,0.2c-0.1,0-0.1,0-0.2,0c0,0-0.5-0.3-0.8-0.9c-0.2-0.2-0.5-0.7-0.9-1.2c0,0-0.1-0.1-0.1-0.1
			c0.2,0.3,0.2,0.6,0.3,0.9c0.1,0.2,0.1,0.3,0.2,0.5c0.2,0.6,0.6,1.1,0.6,1.2c0,0.1,0,0.2,0,0.2c-0.1,0.1-0.2,0.1-0.2,0l-2.3-1.7
			l1.8,2.3c0,0.1,0,0.1,0,0.2c0,0.1-0.1,0.1-0.2,0.1c0,0-0.5-0.1-1.1-0.5c-0.2-0.2-0.7-0.5-1.3-0.7c0,0-0.1,0-0.1-0.1
			c0.3,0.2,0.4,0.4,0.6,0.7c0.1,0.1,0.2,0.3,0.4,0.4c0.5,0.5,1,0.8,1,0.8c0.1,0,0.1,0.1,0.1,0.2c0,0.1-0.1,0.1-0.2,0.1L22,11.4
			l2.5,1.5c0.1,0,0.1,0.1,0.1,0.2c0,0.1-0.1,0.1-0.1,0.1c0,0-0.6,0.1-1.2,0c-0.3,0-0.9-0.1-1.5-0.2c-0.1,0-0.1,0-0.2,0
			c0.3,0.1,0.6,0.2,0.8,0.4c0.1,0.1,0.3,0.2,0.5,0.3c0.6,0.3,1.3,0.4,1.3,0.4c0.1,0,0.1,0.1,0.1,0.2c0,0.1-0.1,0.2-0.1,0.2l-2.9,0.4
			l2.9,0.4c0.1,0,0.1,0.1,0.1,0.1c0,0.1,0,0.1-0.1,0.2c0,0-0.5,0.3-1.1,0.4c-0.3,0.1-0.8,0.2-1.4,0.4c0,0-0.1,0-0.1,0.1
			c0.3,0,0.6,0,0.9,0c0,0,0.4,0,0.6,0c0.1,0,0.3,0,0.4,0l0,0c0.6-0.4,1.3-0.7,2.1-0.9c0.1,0,0.2,0,0.3,0.1c0.1,0.1,0.1,0.1,0.1,0.2
			c0.1-0.1,0.3-0.2,0.5-0.2c0.6-0.3,1.3-0.4,2.2-0.5c0.1,0,0.2,0,0.3,0.1c0,0.1,0.1,0.1,0.1,0.2c0.2-0.1,0.5-0.2,0.7-0.2
			c0.7-0.1,1.4-0.1,2.2,0c0.1,0,0.2,0.1,0.3,0.2c0,0,0,0.1,0,0.1c0.2,0,0.5,0,0.7,0c0.7,0,1.4,0.1,2.2,0.4
			C35.2,15.8,35.3,15.9,35.3,16C35.3,16,35.3,16,35.3,16z"/>
		<g>
			<path class="st3" d="M31.1,12.4c2.8-0.4,3.1,0.4,3.1,0.4s0.1,0.2,0.3,0.1c0,0,0.2,0,0.1-0.2c0,0-0.3-0.9-1.8-1.1
				c0,0-0.8-0.1-1.6,0c-0.2,0-0.3,0.6-0.3,0.6C30.9,12.4,31.1,12.4,31.1,12.4z"/>
			<path class="st3" d="M28.7,12.9c-0.3-0.2-1.1-0.1-1.1-0.1c-1.3,0-1.6,0.8-1.6,0.8c-0.1,0.3,0.1,0.3,0.1,0.3
				c0.3,0.1,0.4-0.1,0.4-0.1s0.1-0.2,0.6-0.4c0,0.1,0,0.2,0,0.2c0,0.4,0.3,0.7,0.7,0.7c0.4,0,0.7-0.3,0.7-0.7c0-0.1,0-0.2-0.1-0.3
				c0.2,0.1,0.4,0.2,0.5,0.4c0,0.1,0.1,0.1,0.4,0.1c0.3,0,0.2-0.2,0.2-0.2C29.1,13.1,28.7,12.9,28.7,12.9z"/>
			<path class="st3" d="M31.1,13.9c0.2,0,0.3,0,0.4-0.1c0.1-0.2,0.3-0.4,0.5-0.4c0,0.1-0.1,0.2-0.1,0.3c0,0.4,0.3,0.7,0.7,0.7
				c0.4,0,0.7-0.3,0.7-0.7c0-0.1,0-0.2,0-0.2c0.5,0.1,0.6,0.4,0.6,0.4s0.1,0.2,0.4,0.1c0,0,0.2,0,0.1-0.3c0,0-0.3-0.8-1.6-0.8
				c0,0-0.8,0-1.1,0.1c0,0-0.4,0.2-0.6,0.9C30.9,13.8,30.8,13.9,31.1,13.9z"/>
			<path class="st3" d="M25.6,12.9c0.2,0.1,0.3-0.1,0.3-0.1s0.3-0.8,3.1-0.4c0,0,0.3,0.1,0.2-0.2c0,0-0.1-0.6-0.3-0.6
				c-0.8-0.1-1.6,0-1.6,0c-1.5,0.2-1.8,1.1-1.8,1.1C25.4,12.8,25.6,12.9,25.6,12.9z"/>
		</g>
		<g>
			<path class="st5" d="M42.5,56.8c-0.4-0.1-1.2-0.1-2,0.3c-0.1,0-0.2,0-0.3-0.1c-0.1-0.1-0.1-0.2-0.1-0.3c0,0,0.2-0.6,0.3-1.2
				c0,0,0,0,0,0c0,0,0,0,0,0c-0.2,0.2-0.4,0.4-0.6,0.6c-0.6,0.7-0.9,1.4-0.8,2.2c0,0,0,0,0,0c0.1,0,0.2,0,0.4,0c0.2,0,0.4,0,0.6-0.1
				C40.6,58.2,41.5,57.8,42.5,56.8C42.5,56.8,42.5,56.8,42.5,56.8C42.5,56.8,42.5,56.8,42.5,56.8z"/>
			<path class="st5" d="M19.7,55.5C19.7,55.5,19.7,55.5,19.7,55.5C19.7,55.5,19.7,55.5,19.7,55.5c0,0.7,0.3,1.2,0.3,1.3
				c0,0.1,0,0.2-0.1,0.3c-0.1,0.1-0.2,0.1-0.3,0.1c-0.8-0.3-1.5-0.3-2-0.3c0,0,0,0,0,0c0,0,0,0,0,0c0.8,0.8,1.7,1.3,2.5,1.4
				c0.2,0,0.4,0.1,0.6,0.1c0.2,0,0.3,0,0.4,0c0,0,0,0,0,0C21.2,57,20.3,56,19.7,55.5z"/>
			<path class="st5" d="M44.3,54.4c-0.5,0-1.1,0.2-1.9,0.6c-0.1,0.1-0.2,0.1-0.3,0c-0.1-0.1-0.1-0.2-0.1-0.2c0,0,0.1-0.6,0.1-1.3
				c0,0,0,0,0,0c0,0,0,0,0,0c-0.2,0.2-0.4,0.4-0.5,0.7c-0.5,0.7-0.7,1.5-0.6,2.2c0,0,0,0,0,0c0,0,0.1,0,0.1,0c0.2,0,0.5,0,0.9-0.2
				c0.4-0.1,0.8-0.4,1.2-0.7C43.7,55.2,44,54.8,44.3,54.4C44.4,54.4,44.4,54.4,44.3,54.4C44.4,54.4,44.3,54.4,44.3,54.4z"/>
			<path class="st5" d="M45.9,51.8c-0.4,0.1-1.1,0.3-1.8,0.8c-0.1,0.1-0.2,0.1-0.3,0c-0.1,0-0.1-0.1-0.1-0.2c0,0,0.1-0.7-0.1-1.3
				c0,0,0,0,0,0c0,0,0,0,0,0c-0.2,0.2-0.3,0.5-0.4,0.7c-0.4,0.8-0.5,1.6-0.4,2.3c0,0,0,0,0,0h0c0.2,0,0.6,0,1-0.3
				c0.4-0.2,0.8-0.4,1.1-0.8C45.3,52.8,45.6,52.4,45.9,51.8C45.9,51.9,45.9,51.9,45.9,51.8C45.9,51.8,45.9,51.8,45.9,51.8z"/>
			<path class="st5" d="M47.1,49.1c-0.1,0-0.2,0-0.3,0.1c-0.4,0.1-0.9,0.4-1.4,1h0c-0.1,0.1-0.2,0.1-0.3,0.1c-0.1,0-0.2-0.1-0.2-0.2
				c0,0,0-0.7-0.2-1.3c0,0,0,0,0,0c0,0,0,0,0,0c-0.1,0.2-0.2,0.5-0.3,0.7C44,50.3,44,51,44.2,51.8c0,0,0,0,0,0l0,0
				c0.2,0,0.6-0.1,1-0.4c0.4-0.2,0.7-0.5,1-0.9C46.6,50.1,46.9,49.6,47.1,49.1C47.1,49.1,47.1,49.1,47.1,49.1
				C47.1,49.1,47.1,49.1,47.1,49.1z"/>
			<path class="st5" d="M47.9,46.3c-0.4,0.2-1,0.5-1.6,1.2c-0.1,0.1-0.2,0.1-0.3,0.1c-0.1,0-0.2-0.1-0.2-0.2c0,0-0.1-0.7-0.4-1.3
				c0,0,0,0,0,0h0c0,0,0,0,0,0c-0.1,0.3-0.2,0.5-0.3,0.8c-0.1,0.6-0.2,1.5,0.1,2.3c0,0,0,0,0,0c0,0,0,0,0,0c0.1,0,0.5-0.2,1-0.5
				c0.4-0.3,0.7-0.6,0.9-1C47.6,47.3,47.8,46.9,47.9,46.3C48,46.3,48,46.3,47.9,46.3C48,46.3,47.9,46.3,47.9,46.3z"/>
			<path class="st5" d="M48.5,43.4c-0.4,0.2-1,0.6-1.4,1.4c-0.1,0.1-0.1,0.1-0.2,0.1c-0.1,0-0.2-0.1-0.2-0.2c0,0-0.2-0.7-0.5-1.3
				c0,0,0,0,0,0c0,0,0,0,0,0C46,43.7,46,44,45.9,44.2c-0.1,0.9,0,1.7,0.4,2.4c0,0,0,0,0,0c0,0,0,0,0,0c0.2-0.1,0.5-0.2,0.9-0.6
				c0.3-0.3,0.6-0.7,0.8-1.1C48.3,44.5,48.4,44,48.5,43.4C48.5,43.4,48.5,43.4,48.5,43.4C48.5,43.4,48.5,43.4,48.5,43.4z"/>
			<path class="st5" d="M47.5,41.9c0,0.1-0.1,0.1-0.2,0.1c-0.1,0-0.2-0.1-0.2-0.2c0,0-0.2-0.7-0.6-1.2c0,0,0,0,0,0c0,0,0,0,0,0
				c-0.1,0.3-0.1,0.6-0.1,0.8c0,0.9,0.2,1.6,0.7,2.2c0,0,0,0,0,0c0,0,0,0,0,0c0.1-0.1,0.5-0.3,0.8-0.7c0.3-0.3,0.5-0.7,0.7-1.2
				c0.2-0.5,0.3-1,0.3-1.5c0,0,0,0,0,0c0,0,0,0,0,0C48.4,40.7,47.9,41.2,47.5,41.9z"/>
			<path class="st5" d="M47.4,39.3c-0.1,0-0.2,0-0.2-0.1c0,0-0.3-0.6-0.7-1c0,0,0,0,0,0c0,0,0,0,0,0c0,0.7,0,2.1,0.8,3c0,0,0,0,0,0
				s0,0,0,0c0.1-0.1,0.4-0.3,0.7-0.8c0.3-0.4,0.4-0.8,0.6-1.3c0.1-0.5,0.2-1,0.2-1.6c0,0,0,0,0,0c0,0,0,0,0,0
				c-0.3,0.3-0.8,0.8-1.1,1.6C47.6,39.2,47.5,39.3,47.4,39.3z"/>
			<path class="st5" d="M47.3,36.4c-0.1,0-0.2,0-0.2-0.1c0,0-0.3-0.5-0.8-0.9c0,0,0,0,0,0c0,0,0,0,0,0c0.1,0.8,0.3,2.2,1.1,2.9
				c0,0,0,0,0,0s0,0,0,0c0.1-0.1,0.4-0.4,0.7-0.8c0.2-0.4,0.4-0.8,0.4-1.3c0.1-0.5,0.1-1,0-1.6c0,0,0,0,0,0c0,0,0,0,0,0
				c-0.3,0.3-0.7,0.9-0.9,1.7C47.4,36.3,47.4,36.4,47.3,36.4z"/>
			<path class="st5" d="M46.9,33.7c-0.1,0-0.2,0-0.2-0.1c0,0-0.4-0.5-0.9-0.9c0,0,0,0,0,0c0,0,0,0,0,0c0,0.3,0.1,0.6,0.1,0.8
				c0.1,0.6,0.5,1.4,1.1,2c0,0,0,0,0,0c0,0,0,0,0,0c0.1-0.1,0.4-0.4,0.6-0.9c0.2-0.4,0.3-0.8,0.4-1.3c0-0.5,0-1-0.1-1.6c0,0,0,0,0,0
				c0,0,0,0,0,0c-0.3,0.3-0.7,0.9-0.9,1.8C47.1,33.6,47,33.6,46.9,33.7z"/>
			<path class="st5" d="M46.3,30.9c-0.1,0-0.2,0-0.3-0.1c0,0-0.5-0.5-1-0.8c0,0,0,0,0,0c0,0,0,0,0,0c0.1,0.3,0.1,0.5,0.2,0.8
				c0.3,0.8,0.8,1.4,1.4,1.8c0,0,0,0,0,0c0,0,0,0,0,0c0.1-0.1,0.3-0.4,0.5-0.9c0.1-0.4,0.2-0.9,0.2-1.4c0-0.5-0.1-1-0.3-1.5
				c0,0,0,0,0,0c0,0,0,0,0,0c-0.2,0.4-0.5,1-0.6,1.9C46.4,30.8,46.4,30.9,46.3,30.9z"/>
			<path class="st5" d="M45.1,28.2c0,0-0.5-0.4-1.1-0.7c0,0,0,0,0,0c0,0,0,0,0,0c0.1,0.3,0.2,0.5,0.3,0.8c0.4,0.8,0.9,1.3,1.6,1.7
				c0,0,0,0,0,0c0,0,0,0,0,0c0.1-0.1,0.3-0.5,0.4-1c0.1-0.4,0.1-0.9,0-1.4c-0.1-0.5-0.2-1-0.4-1.5c0,0,0,0,0,0c0,0,0,0,0,0
				c-0.2,0.4-0.4,1.1-0.4,1.9c0,0.1-0.1,0.2-0.1,0.2h0C45.2,28.3,45.1,28.3,45.1,28.2z"/>
			<path class="st5" d="M42.6,25.1C42.6,25.1,42.6,25.1,42.6,25.1c0.1,0.3,0.2,0.5,0.4,0.8c0.5,0.7,1.1,1.2,1.8,1.5c0,0,0,0,0,0
				s0,0,0,0c0.1-0.1,0.2-0.5,0.3-1c0-0.4,0-0.9-0.1-1.4c-0.1-0.5-0.3-1-0.6-1.4c0,0,0,0,0,0c0,0,0,0,0,0c-0.2,0.4-0.3,1.1-0.2,1.9
				c0,0.1,0,0.2-0.1,0.2h0c-0.1,0.1-0.2,0-0.3,0C43.8,25.7,43.3,25.2,42.6,25.1C42.6,25.1,42.6,25.1,42.6,25.1z"/>
			<path class="st5" d="M41,22.9C41,22.9,41,23,41,22.9c0.2,0.3,0.4,0.5,0.6,0.7c0.6,0.6,1.3,1,2,1.2l0,0c0,0,0,0,0,0
				c0.1-0.2,0.1-0.5,0.1-1c0-0.4-0.1-0.9-0.3-1.3c-0.2-0.4-0.5-0.9-0.8-1.3c0,0,0,0,0,0c0,0,0,0,0,0c-0.1,0.5-0.1,1.2,0.1,1.9
				c0,0.1,0,0.2-0.1,0.3c-0.1,0.1-0.2,0.1-0.3,0C42.3,23.4,41.7,23,41,22.9C41,22.9,41,22.9,41,22.9z"/>
			<path class="st5" d="M40.7,21.2c-0.1,0.1-0.2,0.1-0.3,0.1c0,0-0.6-0.2-1.2-0.2c0,0-0.1,0-0.1,0c0,0,0,0,0,0c0,0,0,0,0,0
				c0.2,0.2,0.5,0.4,0.7,0.6c0.5,0.4,1.2,0.8,2.1,0.8c0,0,0,0,0,0c0,0,0,0,0,0c0-0.2,0.1-0.6-0.1-1.1c-0.1-0.4-0.3-0.9-0.6-1.3
				c-0.3-0.4-0.6-0.8-1-1.2c0,0,0,0,0,0c0,0,0,0,0,0c0,0.4,0.1,1.1,0.5,1.9C40.8,21,40.8,21.1,40.7,21.2z"/>
			<path class="st5" d="M19.1,56.4c0,0,0.1,0,0.1,0c0,0,0,0,0,0c0.1-1.2-0.7-2.3-1.2-2.9c0,0,0,0,0,0c0,0,0,0,0,0
				c-0.1,0.6,0.1,1.2,0.1,1.3c0,0.1,0,0.2-0.1,0.3c-0.1,0.1-0.2,0.1-0.3,0c-0.7-0.5-1.4-0.6-1.9-0.6c0,0,0,0,0,0c0,0,0,0,0,0
				c0.3,0.5,0.7,0.8,1.1,1.1c0.4,0.3,0.8,0.5,1.2,0.7C18.6,56.3,18.9,56.4,19.1,56.4z"/>
			<path class="st5" d="M17.5,54.2L17.5,54.2C17.5,54.2,17.5,54.2,17.5,54.2c0.2-0.9-0.1-1.7-0.4-2.3c-0.1-0.2-0.3-0.5-0.4-0.7
				c0,0,0,0,0,0c0,0,0,0,0,0c-0.1,0.6-0.1,1.2-0.1,1.3c0,0.1,0,0.2-0.1,0.2c-0.1,0-0.2,0-0.3,0c-0.7-0.5-1.4-0.7-1.8-0.8
				c0,0,0,0,0,0c0,0,0,0,0,0c0.3,0.5,0.6,0.9,1,1.2c0.4,0.3,0.7,0.6,1.1,0.8C16.9,54.1,17.3,54.2,17.5,54.2z"/>
			<path class="st5" d="M16,51.8L16,51.8C16,51.8,16,51.8,16,51.8c0.2-0.7,0.2-1.5-0.1-2.3c-0.1-0.3-0.2-0.5-0.4-0.8c0,0,0,0,0,0
				c0,0,0,0,0,0c-0.2,0.6-0.2,1.3-0.2,1.3c0,0.1-0.1,0.2-0.2,0.2c-0.1,0-0.2,0-0.3-0.1c-0.5-0.5-1.1-0.8-1.4-0.9
				c-0.1,0-0.2-0.1-0.2-0.1c0,0,0,0,0,0c0,0,0,0,0,0c0.2,0.5,0.5,1,0.8,1.3c0.3,0.4,0.7,0.7,1,0.9C15.4,51.7,15.8,51.8,16,51.8z"/>
			<path class="st5" d="M14.8,49.3C14.8,49.3,14.8,49.3,14.8,49.3C14.8,49.3,14.8,49.3,14.8,49.3c0.6-1.3,0.2-2.5-0.1-3.1
				c0,0,0,0,0,0h0c0,0,0,0,0,0c-0.3,0.6-0.4,1.3-0.4,1.3c0,0.1-0.1,0.2-0.2,0.2c-0.1,0-0.2,0-0.3-0.1c-0.5-0.6-1-0.9-1.3-1.1
				c-0.1,0-0.2-0.1-0.2-0.1c0,0,0,0,0,0c0,0,0,0,0,0C12.9,48.5,14.2,49.1,14.8,49.3z"/>
			<path class="st5" d="M12.9,46.1c0.4,0.3,0.8,0.5,0.9,0.6c0,0,0,0,0,0c0,0,0,0,0,0c0.4-0.8,0.6-1.6,0.4-2.4
				c-0.1-0.3-0.1-0.5-0.3-0.8c0,0,0,0,0,0c0,0,0,0,0,0c-0.3,0.6-0.5,1.2-0.5,1.3l0,0h0l0,0h0l0,0v0c0,0.1-0.1,0.2-0.2,0.2
				c-0.1,0-0.2,0-0.2-0.1c-0.5-0.7-1.1-1.1-1.5-1.3c0,0,0,0,0,0c0,0,0,0,0,0c0.1,0.6,0.3,1,0.5,1.5C12.3,45.4,12.6,45.8,12.9,46.1z"
				/>
			<path class="st5" d="M13.1,43.9C13.1,44,13.1,44,13.1,43.9C13.1,44,13.1,43.9,13.1,43.9c0.9-1.2,0.8-2.5,0.7-3.1c0,0,0,0,0,0
				c0,0,0,0,0,0c-0.4,0.5-0.7,1.1-0.7,1.2c0,0.1-0.1,0.1-0.2,0.2h0l0,0c-0.1,0-0.2-0.1-0.2-0.1c-0.3-0.7-0.7-1.1-1-1.4
				c-0.1-0.1-0.1-0.1-0.2-0.2c0,0,0,0,0,0c0,0,0,0,0,0C11.5,42.8,12.6,43.7,13.1,43.9z"/>
			<path class="st5" d="M12.9,41.2C12.9,41.2,12.9,41.2,12.9,41.2C12.9,41.2,12.9,41.2,12.9,41.2c0.5-0.4,0.7-1,0.9-1.7
				c0.1-0.6,0.1-1.1,0-1.4c0,0,0,0,0,0c0,0,0,0,0,0c-0.5,0.5-0.6,1.1-0.6,1.1v0c0,0.1-0.1,0.2-0.2,0.2c-0.1,0-0.2-0.1-0.2-0.2
				c-0.2-0.7-0.6-1.2-0.9-1.5c-0.1-0.1-0.1-0.1-0.2-0.2c0,0,0,0,0,0c0,0,0,0,0,0C11.4,39.8,12.4,40.8,12.9,41.2z"/>
			<path class="st5" d="M12.2,37.4c0.3,0.5,0.5,0.7,0.7,0.8c0,0,0,0,0,0s0,0,0,0c0.5-0.5,0.9-1.2,1-2.1c0-0.3,0.1-0.6,0.1-0.9
				c0,0,0,0,0,0c0,0,0,0,0,0c-0.5,0.4-0.8,1-0.8,1c0,0.1-0.1,0.1-0.2,0.1c-0.1,0-0.2-0.1-0.2-0.2c-0.2-0.8-0.6-1.4-0.9-1.7
				c0,0,0,0,0,0c0,0,0,0,0,0c-0.1,0.6-0.1,1.1,0,1.6C11.8,36.6,12,37,12.2,37.4z"/>
			<path class="st5" d="M12.5,34.6c0.2,0.4,0.5,0.7,0.6,0.8c0,0,0,0,0,0c0,0,0,0,0,0c0.6-0.5,1-1.2,1.2-2.1c0.1-0.2,0.1-0.5,0.1-0.8
				c0,0,0,0,0,0c0,0,0,0,0,0c-0.5,0.4-0.9,0.9-0.9,1c-0.1,0.1-0.2,0.1-0.2,0.1c-0.1,0-0.2-0.1-0.2-0.2c-0.2-0.8-0.6-1.4-0.9-1.8
				c0,0,0,0,0,0c0,0,0,0,0,0c-0.1,0.6-0.1,1.1-0.1,1.6C12.2,33.7,12.3,34.2,12.5,34.6z"/>
			<path class="st5" d="M13.5,32.6C13.5,32.6,13.5,32.6,13.5,32.6C13.5,32.6,13.5,32.6,13.5,32.6c0.8-0.5,1.3-1.1,1.5-1.9
				c0.1-0.2,0.1-0.5,0.2-0.8c0,0,0,0,0,0c0,0,0,0,0,0c-0.6,0.3-1,0.9-1,0.9c-0.1,0.1-0.2,0.1-0.3,0.1c-0.1,0-0.2-0.1-0.2-0.2
				c-0.1-0.9-0.4-1.5-0.6-1.9c0,0,0,0,0,0c0,0,0,0,0,0c-0.2,0.5-0.3,1.1-0.3,1.5c0,0.5,0.1,0.9,0.2,1.4
				C13.1,32.2,13.4,32.5,13.5,32.6z"/>
			<path class="st5" d="M14.2,29.9C14.2,29.9,14.2,29.9,14.2,29.9C14.2,29.9,14.2,29.9,14.2,29.9c0.8-0.4,1.4-1,1.8-1.7
				c0.1-0.2,0.2-0.5,0.3-0.7c0,0,0,0,0,0c0,0,0,0,0,0c-0.6,0.3-1.1,0.7-1.1,0.7c-0.1,0.1-0.2,0.1-0.3,0c-0.1,0-0.1-0.1-0.1-0.2
				c0-0.9-0.2-1.5-0.4-1.9c0,0,0,0,0,0h0c0,0,0,0,0,0c-0.2,0.5-0.4,1-0.5,1.5c-0.1,0.5-0.1,0.9,0,1.4C13.9,29.4,14.1,29.8,14.2,29.9
				z"/>
			<path class="st5" d="M15.2,27.3C15.2,27.3,15.2,27.3,15.2,27.3C15.2,27.3,15.2,27.3,15.2,27.3c0.7-0.2,1.4-0.7,1.9-1.4
				c0.2-0.3,0.4-0.6,0.5-0.8c0,0,0,0,0,0c0,0,0,0,0,0c-0.7,0.1-1.2,0.6-1.2,0.6c-0.1,0.1-0.2,0.1-0.3,0c-0.1-0.1-0.1-0.2-0.1-0.3
				c0.2-0.9,0-1.5-0.1-2c0,0,0,0,0,0c0,0,0,0,0,0c-0.3,0.5-0.5,1-0.7,1.4c-0.1,0.5-0.2,0.9-0.2,1.4C15,26.8,15.2,27.2,15.2,27.3z"/>
			<path class="st5" d="M16.6,24.8L16.6,24.8c1.2-0.2,2.1-1.3,2.5-1.9c0,0,0,0,0,0c0,0,0,0,0,0C18.5,23,18,23.4,18,23.4
				c-0.1,0.1-0.2,0.1-0.3,0c-0.1-0.1-0.1-0.2-0.1-0.3c0.3-0.8,0.2-1.5,0.1-2c0,0,0,0,0,0c0,0,0,0,0,0C16.2,22.9,16.5,24.3,16.6,24.8
				C16.6,24.8,16.6,24.8,16.6,24.8z"/>
			<path class="st5" d="M18.3,22.5C18.3,22.5,18.4,22.5,18.3,22.5c0.8,0,1.5-0.4,2-0.8c0.2-0.2,0.5-0.4,0.7-0.6c0,0,0,0,0,0
				c0,0,0,0,0,0c-0.6,0-1.2,0.2-1.2,0.2c-0.1,0-0.2,0-0.3-0.1c-0.1-0.1-0.1-0.2,0-0.3c0.4-0.8,0.5-1.5,0.5-1.9c0,0,0,0,0,0
				c0,0,0,0,0,0c-0.4,0.4-0.8,0.8-1,1.2c-0.3,0.4-0.5,0.8-0.5,1.3C18.2,22,18.3,22.4,18.3,22.5C18.3,22.5,18.3,22.5,18.3,22.5z"/>
			<path class="st5" d="M23.2,19.4c-0.6,0-1.3,0.1-1.3,0.1c-0.1,0-0.2,0-0.2-0.1c-0.1-0.1-0.1-0.2,0-0.3c0.5-0.7,0.6-1.4,0.6-1.9
				c0,0,0,0,0,0c0,0,0,0,0,0c-1.9,1.3-2,2.8-2,3.3c0,0,0,0,0,0c0,0,0.1,0,0.1,0C21.6,20.6,22.7,19.9,23.2,19.4
				C23.2,19.4,23.2,19.4,23.2,19.4C23.2,19.4,23.2,19.4,23.2,19.4z"/>
			<path class="st5" d="M25.6,18.3c-0.2-0.1-0.4-0.1-0.7-0.1c-0.4,0-0.6,0-0.6,0l0,0c-0.1,0-0.2-0.1-0.2-0.2c0-0.1,0-0.2,0.1-0.3
				c0.7-0.6,1-1.1,1.1-1.4c0,0,0,0,0,0c0,0,0,0,0,0c-2.2,0.7-2.7,2-2.8,2.5c0,0,0,0,0,0c0.2,0.1,0.5,0.1,0.9,0.1
				c0.4,0,0.9-0.1,1.5-0.3C25.1,18.5,25.4,18.4,25.6,18.3C25.6,18.3,25.6,18.3,25.6,18.3C25.6,18.3,25.6,18.3,25.6,18.3z"/>
			<path class="st5" d="M28.2,17.6c-0.6-0.3-1.2-0.4-1.2-0.4c-0.1,0-0.2-0.1-0.2-0.2c0-0.1,0-0.2,0.1-0.3c0.7-0.4,1.1-0.7,1.3-1
				c0,0,0,0,0,0c0,0,0,0,0,0c-1.1,0.2-2,0.5-2.6,1.1c-0.3,0.3-0.4,0.6-0.5,0.7c0,0,0,0,0,0c0.5,0.2,1,0.3,1.5,0.3
				c0.3,0,0.6,0,0.8-0.1C27.7,17.7,28,17.7,28.2,17.6C28.2,17.6,28.2,17.6,28.2,17.6C28.2,17.6,28.2,17.6,28.2,17.6z"/>
			<path class="st5" d="M29.9,16.8c-0.1,0-0.2-0.1-0.2-0.2c0-0.1,0.1-0.2,0.2-0.2c0.7-0.2,1.1-0.5,1.4-0.7c0,0,0,0,0,0c0,0,0,0,0,0
				c-1.1-0.1-2,0.1-2.7,0.5c-0.3,0.2-0.6,0.5-0.7,0.6c0,0,0,0,0,0c0.7,0.6,1.7,0.7,2.4,0.7c0.2,0,0.4,0,0.6,0c0,0,0,0,0,0
				c0,0,0,0,0,0C30.5,17,29.9,16.8,29.9,16.8z"/>
			<path class="st5" d="M32.8,17c-0.1-0.1-0.1-0.2-0.1-0.3c0-0.1,0.1-0.2,0.2-0.2c0.7-0.1,1.2-0.3,1.5-0.4c0,0,0,0,0,0c0,0,0,0,0,0
				c-1-0.3-2-0.3-2.7,0c-0.4,0.1-0.6,0.3-0.8,0.5c0,0,0,0,0,0c0.9,1.1,2.2,1.3,2.9,1.3h0c0,0,0,0,0,0c0,0,0,0,0,0
				C33.4,17.4,32.8,17,32.8,17z"/>
			<path class="st5" d="M39.9,20.6C39.9,20.6,39.9,20.6,39.9,20.6c0-0.2,0-0.7-0.2-1.2c-0.3-0.8-1-1.4-2-1.8c0,0,0,0,0,0
				c0,0,0,0,0,0c0.1,0.4,0.4,1,0.8,1.5c0.1,0.1,0.1,0.2,0,0.3c-0.1,0.1-0.2,0.1-0.3,0.1c0,0-0.6-0.1-1.2,0c0,0,0,0,0,0c0,0,0,0,0,0
				c0.6,0.4,1.8,1.1,2.8,1.1C39.8,20.6,39.9,20.6,39.9,20.6z"/>
			<path class="st5" d="M37.7,18.8C37.7,18.8,37.7,18.8,37.7,18.8c-0.5-0.6-1.2-0.9-2.1-0.8c-0.3,0-0.6,0.1-0.9,0.2c0,0,0,0,0,0
				c0,0,0,0,0,0c0.7,0.5,1.4,0.8,2.1,0.8c0,0,0.1,0,0.1,0C37.2,19,37.5,18.9,37.7,18.8C37.6,18.8,37.7,18.8,37.7,18.8z"/>
			<path class="st5" d="M33.6,17C33.6,17.1,33.6,17.1,33.6,17c0.4,0.3,0.9,0.5,1.5,0.5c0.3,0,0.5,0,0.8-0.1c0.4-0.1,0.8-0.2,1.1-0.3
				c0,0,0,0,0,0c0,0,0,0,0,0c-0.4-0.2-0.8-0.4-1.2-0.4c-0.4-0.1-0.9-0.1-1.3,0C34.2,16.8,33.8,16.9,33.6,17C33.6,17,33.6,17,33.6,17
				z"/>
		</g>
		<g>
			<path class="st6" d="M25.5,33c0.1,0.2,0.4,0.2,0.7,0.2h3.2c-1.9-1.2-2.6-1-3.9-0.4C25.4,32.9,25.5,32.9,25.5,33z"/>
			<path class="st6" d="M33.2,31.5c-0.3-0.1-0.6-0.2-0.8-0.3c-1-0.4-1.8-1-1.8-1.1c-0.2-0.2-0.2-0.5-0.1-0.7
				c0.2-0.2,0.5-0.2,0.7-0.1c0,0,0.7,0.6,1.6,0.9c0.2,0.1,0.4,0.1,0.7,0.2c0.4,0.1,0.9,0.2,1.3,0.4c-0.1-0.5-0.2-1-0.3-1.4
				c-1.3-0.3-2.3-1.1-2.4-1.2c-0.1-0.1-0.2-0.2-0.2-0.3c0-0.1,0-0.2,0.1-0.3c0.2-0.2,0.5-0.2,0.7-0.1c0,0,0.7,0.6,1.5,0.9
				c-0.3-1.3-0.8-2.4-1.4-3.6c-0.4-0.8-1.1-1.4-1.9-1.7c-0.6-0.2-1.1-0.2-1.1-0.2c0,0,0,0,0,0c0,0-1.5,0-2.5,1.2c0,0,0,0,0,0
				c-0.2,0.2-0.7,0.7-0.7,1.2c0,0.2,0,0.4,0.2,0.5c0.1,0,0.3,0.1,0.7-0.2c0.1-0.1,0.2-0.1,0.2-0.2c0.2-0.1,0.5-0.1,0.6,0.1
				c0.2,0.2,0.1,0.5-0.1,0.6c-0.1,0.1-0.1,0.1-0.2,0.1c-0.2,0.2-0.6,0.5-1,1.1c-0.6,0.8-1.3,2.1-1.7,4c0,0,0,0.1,0,0.1
				c1.3-0.6,2.4-0.8,4.7,0.7c0.9,0.6,2,0.6,2.2,0.6h1c0,0,0,0,0,0c0.3,0,1,0,1.4-0.4c0.1-0.1,0.1-0.1,0.1-0.2
				C34.8,32,34.3,31.8,33.2,31.5z"/>
		</g>
		<g>
			<path class="st7" d="M28.7,49.7c0.1-0.1,0.3-0.3,0.3-0.4c0-0.1,0-0.1-0.1-0.2C28.7,49,28.6,49,28.5,49c-0.2,0-0.5,0.2-0.9,0.5
				c-0.3,0.2-0.7,0.5-0.7,0.9c0,0.1,0.1,0.2,0.1,0.2c0.2,0.1,0.6,0.1,0.8,0.1C28,50.3,28.2,49.9,28.7,49.7z"/>
			<path class="st7" d="M30.3,50.2c0,0,0-0.1-0.1-0.2c0,0-0.2-0.2-0.7,0.1c-0.4,0.2-0.7,0.5-0.9,0.8c0.1,0.1,0.2,0.1,0.2,0.1
				c0.4,0.1,0.9-0.3,1.1-0.4c0,0,0,0,0,0C30,50.6,30.2,50.4,30.3,50.2z"/>
			<path class="st7" d="M25.4,48C25.3,48,25.3,48,25.4,48c-0.4,0-0.9,0.2-1.1,0.5c-0.2,0.2-0.1,0.3-0.1,0.4c0,0.1,0.2,0.1,0.4,0.2
				c0.1,0,0.1,0,0.2,0c0.1-0.4,0.4-0.7,0.6-0.9c0.1-0.1,0.1-0.1,0.2-0.2C25.5,48,25.4,48,25.4,48C25.4,48,25.4,48,25.4,48z"/>
			<path class="st7" d="M25.5,49.5c0,0.1,0,0.3,0.4,0.4c0.1,0,0.1,0,0.2,0c0.1-0.4,0.4-0.8,1-1.2c0.1,0,0.1-0.1,0.2-0.2
				c0,0,0-0.1,0-0.1c0-0.1-0.1-0.1-0.2-0.2c-0.1,0-0.2-0.1-0.3-0.1c-0.3,0-0.6,0.2-0.9,0.5C25.6,49.1,25.5,49.2,25.5,49.5z"/>
			<path class="st7" d="M35.5,48.7c0.2,0,0.4-0.1,0.5-0.2c0.1-0.1,0.2-0.3,0.2-0.4c-0.2-0.3-1-1.2-2.1-1.9c-0.4-0.3-0.9-0.6-1.4-0.8
				c-0.5-0.2-1-0.3-1.4-0.1c0,0,0,0,0,0c-0.1,0-0.3,0.1-0.5,0.3c-0.1,0.1-0.3,0.2-0.5,0.3c-0.5,0.3-1.1,0.5-1.7,0.5
				c-0.5,0-1.1,0.1-1.4-0.5c-0.2-0.3-0.3-0.6-0.2-1c0.1-0.3,0.5-0.5,1-0.7c0.2-0.1,0.4-0.2,0.6-0.3c0.2-0.1,0.4-0.3,0.5-0.4
				c0.2-0.1,0.4-0.3,0.7-0.5c0.1-0.1,0.3-0.2,0.4-0.2c-0.2,0-0.3,0-0.5-0.1c-0.8-0.1-1.3,0.2-2.1,0.8c-0.7,0.5-2,0.9-4.1,1.3
				c-2,0.4-4.7,0.8-8.2,1.2c0.1,0.4,0.2,0.8,0.3,1.1c0.4,1.4,1,2.6,1.6,3.8c1.2-0.5,4.2-1.9,6.5-3.1c0.5-0.4,1.2-0.7,1.7-0.6
				c0.1,0,0.6,0.1,0.9,0.3c0.4-0.1,0.8-0.1,1.1,0.1c0.4,0.2,0.5,0.4,0.6,0.6l0,0c0.5-0.1,0.9-0.1,1.3,0.3c0.2,0.2,0.4,0.4,0.4,0.7
				c0.5-0.1,0.8,0.1,1,0.3c0.3,0.3,0.4,0.7,0.4,0.9c0,0.2-0.1,0.3-0.2,0.5c0.2,0,0.5,0,0.7-0.1c0.1,0,0.1-0.1,0.2-0.1
				c-0.1-0.2-0.3-0.5-0.6-0.8c-0.1-0.1-0.1-0.2-0.1-0.3c0-0.1,0.1-0.2,0.1-0.3c0.2-0.1,0.4-0.1,0.6,0c0.4,0.5,0.6,0.9,0.7,1.1
				c0.2,0,0.4,0,0.5-0.2c0.1-0.1,0.1-0.2,0.2-0.3c0-0.1-0.2-0.3-0.4-0.6c-0.2-0.3-0.7-0.7-0.9-0.8c-0.1-0.1-0.1-0.2-0.2-0.3
				c0-0.1,0-0.2,0.1-0.3c0.1-0.1,0.2-0.1,0.3-0.2c0.1,0,0.2,0,0.3,0.1c0,0,0.7,0.5,1.1,0.9c0.3,0.3,0.4,0.6,0.5,0.8
				c0.3,0,0.5-0.1,0.7-0.3c0-0.1,0.1-0.1,0.1-0.2c-0.3-0.4-1.1-1.4-2-1.8c-0.1,0-0.2-0.1-0.2-0.2c0-0.1,0-0.2,0-0.3
				c0-0.1,0.1-0.2,0.2-0.2c0.1,0,0.2,0,0.3,0C34.2,47.2,35.1,48.2,35.5,48.7z"/>
			<path class="st7" d="M30.3,44.9c0.3-0.2,0.5-0.3,0.8-0.4c1.4-0.4,2.7,0.5,3.5,1c1,0.7,1.8,1.5,2.2,1.9c0,0,0,0,0.1,0.1l0,0
				c0,0,0,0,0,0c0.1,0.1,0.4,0.4,0.7,0.6c1.7,1.3,4.3,2.4,5.4,2.9c0.7-1.2,1.2-2.6,1.7-4c0.1-0.3,0.2-0.7,0.3-1
				c-2.2-0.1-4.5-0.6-6-1c-1.8-0.4-3.1-0.8-3.2-0.9c-0.4-0.1-0.7-0.2-1-0.3c-1-0.4-1.6-0.6-2.3-0.6c-0.1,0-0.2,0-0.3,0
				c-0.1,0-0.2,0-0.3,0l0,0c-0.7,0-1.1,0-1.5,0.3c-0.3,0.2-0.5,0.4-0.6,0.5c-0.2,0.1-0.3,0.3-0.6,0.5c-0.2,0.1-0.4,0.2-0.6,0.3
				c-0.2,0.1-0.5,0.2-0.6,0.3c0,0,0,0.1,0.1,0.2c0.1,0.1,0.3,0.1,0.7,0.1c0.3,0,0.9-0.1,1.3-0.4C30,45.1,30.1,45,30.3,44.9z"/>
		</g>
	</g>
	<g>
		<g>
			<path class="st0" d="M62.8,29.8l1.3-1.5c1.2,1,2.3,1.6,3.8,1.6c1.3,0,2.1-0.6,2.1-1.5v0c0-0.9-0.5-1.3-2.7-1.8
				c-2.6-0.6-4-1.4-4-3.6v0c0-2.1,1.7-3.5,4.1-3.5c1.8,0,3.1,0.5,4.4,1.5l-1.1,1.6c-1.1-0.8-2.2-1.2-3.3-1.2c-1.2,0-2,0.6-2,1.4v0
				c0,0.9,0.6,1.3,2.9,1.9c2.5,0.6,3.9,1.5,3.9,3.5v0c0,2.3-1.8,3.6-4.3,3.6C66,31.7,64.2,31.1,62.8,29.8z"/>
			<path class="st0" d="M73.7,27L73.7,27c0-2.6,1.8-4.8,4.4-4.8c2.9,0,4.3,2.3,4.3,4.9c0,0.2,0,0.4,0,0.6h-6.7
				C76,29.2,77,30,78.4,30c1,0,1.7-0.4,2.5-1.1l1.2,1.1c-0.9,1-2,1.7-3.7,1.7C75.7,31.7,73.7,29.8,73.7,27z M80.4,26.4
				C80.3,25,79.5,24,78.1,24c-1.3,0-2.2,1-2.4,2.4H80.4z"/>
			<path class="st0" d="M83.9,27L83.9,27c0-2.6,2-4.8,4.7-4.8c1.7,0,2.8,0.6,3.6,1.6l-1.3,1.4c-0.6-0.7-1.3-1.1-2.4-1.1
				c-1.5,0-2.6,1.3-2.6,2.9v0c0,1.6,1.1,2.9,2.7,2.9c1,0,1.7-0.5,2.4-1.1l1.3,1.2c-0.9,1-1.9,1.7-3.7,1.7
				C85.9,31.7,83.9,29.6,83.9,27z"/>
			<path class="st0" d="M94,22.5h2.1v2c0.6-1.4,1.6-2.3,3.2-2.2v2.2h-0.1c-1.8,0-3.1,1.2-3.1,3.6v3.5H94V22.5z"/>
			<path class="st0" d="M100.2,27L100.2,27c0-2.6,1.8-4.8,4.4-4.8c2.9,0,4.4,2.3,4.4,4.9c0,0.2,0,0.4,0,0.6h-6.7
				c0.2,1.5,1.3,2.3,2.6,2.3c1,0,1.7-0.4,2.5-1.1l1.2,1.1c-0.9,1-2,1.7-3.7,1.7C102.2,31.7,100.2,29.8,100.2,27z M106.9,26.4
				c-0.1-1.3-0.9-2.4-2.3-2.4c-1.3,0-2.2,1-2.4,2.4H106.9z"/>
			<path class="st0" d="M111.3,29v-4.8h-1.2v-1.8h1.2V20h2.1v2.5h2.4v1.8h-2.4v4.5c0,0.8,0.4,1.1,1.1,1.1c0.5,0,0.9-0.1,1.3-0.3v1.7
				c-0.5,0.3-1.1,0.5-1.9,0.5C112.4,31.7,111.3,31,111.3,29z"/>
			<path class="st0" d="M123.3,31.5v-1.1c-0.6,0.7-1.6,1.3-2.9,1.3c-1.7,0-3.2-1-3.2-2.8v0c0-2,1.6-3,3.7-3c1.1,0,1.8,0.2,2.5,0.4
				v-0.2c0-1.3-0.8-1.9-2.2-1.9c-1,0-1.8,0.2-2.6,0.6l-0.6-1.7c1-0.4,2-0.8,3.5-0.8c2.7,0,4,1.4,4,3.8v5.4H123.3z M123.4,27.7
				c-0.5-0.2-1.3-0.4-2.1-0.4c-1.3,0-2.1,0.5-2.1,1.4v0c0,0.9,0.8,1.3,1.8,1.3c1.4,0,2.4-0.8,2.4-1.9V27.7z"/>
			<path class="st0" d="M127.7,22.5h2.1v2c0.6-1.4,1.6-2.3,3.2-2.2v2.2h-0.1c-1.8,0-3.1,1.2-3.1,3.6v3.5h-2.1V22.5z"/>
			<path class="st0" d="M134.7,22.5h2.1v9.1h-2.1V22.5z M136.7,18.5l1.9,0.8l-2.1,2h-1.6L136.7,18.5z"/>
			<path class="st0" d="M144.9,31.5v-1.1c-0.6,0.7-1.6,1.3-2.9,1.3c-1.7,0-3.2-1-3.2-2.8v0c0-2,1.6-3,3.7-3c1.1,0,1.8,0.2,2.5,0.4
				v-0.2c0-1.3-0.8-1.9-2.2-1.9c-1,0-1.8,0.2-2.6,0.6l-0.6-1.7c1-0.4,2-0.8,3.5-0.8c2.7,0,4,1.4,4,3.8v5.4H144.9z M144.9,27.7
				c-0.5-0.2-1.3-0.4-2.1-0.4c-1.3,0-2.1,0.5-2.1,1.4v0c0,0.9,0.8,1.3,1.8,1.3c1.4,0,2.4-0.8,2.4-1.9V27.7z"/>
			<path class="st0" d="M153.8,27L153.8,27c0-3,2-4.7,4.2-4.7c1.5,0,2.4,0.8,3.1,1.6V19h2.1v12.6h-2.1V30c-0.7,0.9-1.6,1.7-3.1,1.7
				C155.9,31.7,153.8,30,153.8,27z M161.1,27L161.1,27c0-1.8-1.2-2.9-2.6-2.9c-1.4,0-2.6,1.1-2.6,2.9v0c0,1.8,1.2,2.9,2.6,2.9
				C159.9,29.9,161.1,28.7,161.1,27z"/>
			<path class="st0" d="M165.1,27L165.1,27c0-2.6,1.8-4.8,4.4-4.8c2.9,0,4.4,2.3,4.4,4.9c0,0.2,0,0.4,0,0.6h-6.7
				c0.2,1.5,1.3,2.3,2.6,2.3c1,0,1.7-0.4,2.5-1.1l1.2,1.1c-0.9,1-2,1.7-3.7,1.7C167.1,31.7,165.1,29.8,165.1,27z M171.8,26.4
				c-0.1-1.3-0.9-2.4-2.3-2.4c-1.3,0-2.2,1-2.4,2.4H171.8z"/>
			<path class="st0" d="M181,19.5h2.3l3.7,5.7l3.7-5.7h2.3v12h-2.1v-8.6l-3.8,5.7h-0.1l-3.8-5.6v8.6H181V19.5z"/>
			<path class="st0" d="M195.1,27L195.1,27c0-2.6,2.1-4.8,4.8-4.8c2.8,0,4.8,2.1,4.8,4.7v0c0,2.6-2.1,4.7-4.9,4.7
				C197.1,31.7,195.1,29.6,195.1,27z M202.7,27L202.7,27c0-1.6-1.2-3-2.8-3c-1.7,0-2.7,1.3-2.7,2.9v0c0,1.6,1.2,2.9,2.8,2.9
				C201.6,29.9,202.7,28.6,202.7,27z"/>
			<path class="st0" d="M206.2,27L206.2,27c0-3,2-4.7,4.2-4.7c1.5,0,2.4,0.8,3.1,1.6V19h2.1v12.6h-2.1V30c-0.7,0.9-1.6,1.7-3.1,1.7
				C208.3,31.7,206.2,30,206.2,27z M213.6,27L213.6,27c0-1.8-1.2-2.9-2.6-2.9c-1.4,0-2.6,1.1-2.6,2.9v0c0,1.8,1.2,2.9,2.6,2.9
				C212.3,29.9,213.6,28.7,213.6,27z"/>
			<path class="st0" d="M217.5,27L217.5,27c0-2.6,1.8-4.8,4.4-4.8c2.9,0,4.3,2.3,4.3,4.9c0,0.2,0,0.4,0,0.6h-6.7
				c0.2,1.5,1.3,2.3,2.6,2.3c1,0,1.7-0.4,2.5-1.1l1.2,1.1c-0.9,1-2,1.7-3.7,1.7C219.6,31.7,217.5,29.8,217.5,27z M224.2,26.4
				c-0.1-1.3-0.9-2.4-2.3-2.4c-1.3,0-2.2,1-2.4,2.4H224.2z"/>
			<path class="st0" d="M228.2,22.5h2.1v2c0.6-1.4,1.6-2.3,3.2-2.2v2.2h-0.1c-1.8,0-3.1,1.2-3.1,3.6v3.5h-2.1V22.5z"/>
			<path class="st0" d="M235.2,22.5h2.1v1.4c0.6-0.9,1.4-1.6,2.8-1.6c2,0,3.2,1.4,3.2,3.5v5.8h-2.1v-5.2c0-1.4-0.7-2.2-1.9-2.2
				c-1.2,0-2,0.8-2,2.3v5.1h-2.1V22.5z"/>
			<path class="st0" d="M245.7,19.1h2.2v2h-2.2V19.1z M245.8,22.5h2.1v9.1h-2.1V22.5z"/>
			<path class="st0" d="M250,30.1l5.2-5.9h-5.1v-1.7h7.7v1.4l-5.2,5.9h5.2v1.7H250V30.1z"/>
			<path class="st0" d="M265.4,31.5v-1.1c-0.6,0.7-1.6,1.3-2.9,1.3c-1.7,0-3.2-1-3.2-2.8v0c0-2,1.6-3,3.7-3c1.1,0,1.8,0.2,2.5,0.4
				v-0.2c0-1.3-0.8-1.9-2.2-1.9c-1,0-1.8,0.2-2.6,0.6l-0.6-1.7c1-0.4,2-0.8,3.5-0.8c2.7,0,4,1.4,4,3.8v5.4H265.4z M265.5,27.7
				c-0.5-0.2-1.3-0.4-2.1-0.4c-1.3,0-2.1,0.5-2.1,1.4v0c0,0.9,0.8,1.3,1.8,1.3c1.4,0,2.4-0.8,2.4-1.9V27.7z"/>
			<path class="st0" d="M269.3,27L269.3,27c0-2.6,2-4.8,4.7-4.8c1.7,0,2.8,0.6,3.6,1.6l-1.3,1.4c-0.6-0.7-1.3-1.1-2.4-1.1
				c-1.5,0-2.6,1.3-2.6,2.9v0c0,1.6,1.1,2.9,2.7,2.9c1,0,1.7-0.5,2.4-1.1l1.3,1.2c-0.9,1-1.9,1.7-3.7,1.7
				C271.3,31.7,269.3,29.6,269.3,27z"/>
			<path class="st0" d="M279.5,19.1h2.2v2h-2.2V19.1z M279.5,22.5h2.1v9.1h-2.1V22.5z"/>
			<path class="st0" d="M283.7,27L283.7,27c0-2.6,2.1-4.8,4.8-4.8c2.8,0,4.8,2.1,4.8,4.7v0c0,2.6-2.1,4.7-4.9,4.7
				C285.7,31.7,283.7,29.6,283.7,27z M291.3,27L291.3,27c0-1.6-1.2-3-2.8-3c-1.7,0-2.7,1.3-2.7,2.9v0c0,1.6,1.2,2.9,2.8,2.9
				C290.2,29.9,291.3,28.6,291.3,27z M289.5,18.5l1.9,0.8l-2.1,2h-1.6L289.5,18.5z"/>
			<path class="st0" d="M295.3,22.5h2.1v1.4c0.6-0.9,1.4-1.6,2.8-1.6c2,0,3.2,1.4,3.2,3.5v5.8h-2.1v-5.2c0-1.4-0.7-2.2-1.9-2.2
				c-1.2,0-2,0.8-2,2.3v5.1h-2.1V22.5z"/>
		</g>
	</g>
</g>
</svg>
